<svg width="96" height="19" viewBox="0 0 96 19" fill="none" xmlns="http://www.w3.org/2000/svg">
<path d="M29.016 16L27.464 16L27.464 4.536L29.016 4.536L29.016 16ZM32.8314 9.072C33.0074 8.87467 33.194 8.696 33.3914 8.536C33.5887 8.376 33.7967 8.24 34.0154 8.128C34.2394 8.01067 34.474 7.92267 34.7194 7.864C34.97 7.8 35.2394 7.768 35.5274 7.768C35.97 7.768 36.3594 7.84267 36.6954 7.992C37.0367 8.136 37.3194 8.344 37.5434 8.616C37.7727 8.88267 37.946 9.20533 38.0634 9.584C38.1807 9.96267 38.2394 10.3813 38.2394 10.84L38.2394 16L36.8074 16L36.8074 10.84C36.8074 10.2267 36.666 9.752 36.3834 9.416C36.106 9.07467 35.682 8.904 35.1114 8.904C34.69 8.904 34.2954 9.00533 33.9274 9.208C33.5647 9.41067 33.2287 9.68533 32.9194 10.032L32.9194 16L31.4874 16L31.4874 7.896L32.3434 7.896C32.546 7.896 32.6714 7.99467 32.7194 8.192L32.8314 9.072ZM45.1293 9.232C45.0653 9.34933 44.9666 9.408 44.8333 9.408C44.7533 9.408 44.6626 9.37867 44.5613 9.32C44.4599 9.26133 44.3346 9.19733 44.1853 9.128C44.0413 9.05333 43.8679 8.98667 43.6653 8.928C43.4626 8.864 43.2226 8.832 42.9453 8.832C42.7053 8.832 42.4893 8.864 42.2973 8.928C42.1053 8.98667 41.9399 9.06933 41.8013 9.176C41.6679 9.28267 41.5639 9.408 41.4893 9.552C41.4199 9.69067 41.3853 9.84267 41.3853 10.008C41.3853 10.216 41.4439 10.3893 41.5613 10.528C41.6839 10.6667 41.8439 10.7867 42.0413 10.888C42.2386 10.9893 42.4626 11.08 42.7133 11.16C42.9639 11.2347 43.2199 11.3173 43.4813 11.408C43.7479 11.4933 44.0066 11.5893 44.2573 11.696C44.5079 11.8027 44.7319 11.936 44.9293 12.096C45.1266 12.256 45.2839 12.4533 45.4013 12.688C45.5239 12.9173 45.5853 13.1947 45.5853 13.52C45.5853 13.8933 45.5186 14.24 45.3853 14.56C45.2519 14.8747 45.0546 15.1493 44.7933 15.384C44.5319 15.6133 44.2119 15.7947 43.8333 15.928C43.4546 16.0613 43.0173 16.128 42.5213 16.128C41.9559 16.128 41.4439 16.0373 40.9853 15.856C40.5266 15.6693 40.1373 15.432 39.8173 15.144L40.1533 14.6C40.1959 14.5307 40.2466 14.4773 40.3053 14.44C40.3639 14.4027 40.4386 14.384 40.5293 14.384C40.6253 14.384 40.7266 14.4213 40.8333 14.496C40.9399 14.5707 41.0679 14.6533 41.2173 14.744C41.3719 14.8347 41.5586 14.9173 41.7773 14.992C41.9959 15.0667 42.2679 15.104 42.5933 15.104C42.8706 15.104 43.1133 15.0693 43.3213 15C43.5293 14.9253 43.7026 14.8267 43.8413 14.704C43.9799 14.5813 44.0813 14.44 44.1453 14.28C44.2146 14.12 44.2493 13.9493 44.2493 13.768C44.2493 13.544 44.1879 13.36 44.0653 13.216C43.9479 13.0667 43.7906 12.9413 43.5933 12.84C43.3959 12.7333 43.1693 12.6427 42.9133 12.568C42.6626 12.488 42.4039 12.4053 42.1373 12.32C41.8759 12.2347 41.6173 12.1387 41.3613 12.032C41.1106 11.92 40.8866 11.7813 40.6893 11.616C40.4919 11.4507 40.3319 11.248 40.2093 11.008C40.0919 10.7627 40.0333 10.4667 40.0333 10.12C40.0333 9.81067 40.0973 9.51467 40.2253 9.232C40.3533 8.944 40.5399 8.69333 40.7853 8.48C41.0306 8.26133 41.3319 8.088 41.6893 7.96C42.0466 7.832 42.4546 7.768 42.9133 7.768C43.4466 7.768 43.9239 7.85333 44.3453 8.024C44.7719 8.18933 45.1399 8.41867 45.4493 8.712L45.1293 9.232ZM49.8191 16.128C49.1791 16.128 48.6858 15.9493 48.3391 15.592C47.9978 15.2347 47.8271 14.72 47.8271 14.048L47.8271 9.088L46.8511 9.088C46.7658 9.088 46.6938 9.064 46.6351 9.016C46.5765 8.96267 46.5471 8.88267 46.5471 8.776L46.5471 8.208L47.8751 8.04L48.2031 5.536C48.2191 5.456 48.2538 5.392 48.3071 5.344C48.3658 5.29067 48.4405 5.264 48.5311 5.264L49.2511 5.264L49.2511 8.056L51.5951 8.056L51.5951 9.088L49.2511 9.088L49.2511 13.952C49.2511 14.2933 49.3338 14.5467 49.4991 14.712C49.6645 14.8773 49.8778 14.96 50.1391 14.96C50.2885 14.96 50.4165 14.9413 50.5231 14.904C50.6351 14.8613 50.7311 14.816 50.8111 14.768C50.8911 14.72 50.9578 14.6773 51.0111 14.64C51.0698 14.5973 51.1205 14.576 51.1631 14.576C51.2378 14.576 51.3045 14.6213 51.3631 14.712L51.7791 15.392C51.5338 15.6213 51.2378 15.8027 50.8911 15.936C50.5445 16.064 50.1871 16.128 49.8191 16.128ZM57.4575 12.352C56.8015 12.3733 56.2415 12.4267 55.7775 12.512C55.3188 12.592 54.9428 12.6987 54.6495 12.832C54.3615 12.9653 54.1508 13.1227 54.0175 13.304C53.8895 13.4853 53.8255 13.688 53.8255 13.912C53.8255 14.1253 53.8602 14.3093 53.9295 14.464C53.9988 14.6187 54.0922 14.7467 54.2095 14.848C54.3322 14.944 54.4735 15.016 54.6335 15.064C54.7988 15.1067 54.9748 15.128 55.1615 15.128C55.4122 15.128 55.6415 15.104 55.8495 15.056C56.0575 15.0027 56.2522 14.928 56.4335 14.832C56.6202 14.736 56.7962 14.6213 56.9615 14.488C57.1322 14.3547 57.2975 14.2027 57.4575 14.032L57.4575 12.352ZM52.8575 9.04C53.3055 8.608 53.7882 8.28533 54.3055 8.072C54.8228 7.85867 55.3962 7.752 56.0255 7.752C56.4788 7.752 56.8815 7.82667 57.2335 7.976C57.5855 8.12533 57.8815 8.33333 58.1215 8.6C58.3615 8.86667 58.5428 9.18933 58.6655 9.568C58.7882 9.94667 58.8495 10.3627 58.8495 10.816L58.8495 16L58.2175 16C58.0788 16 57.9722 15.9787 57.8975 15.936C57.8228 15.888 57.7642 15.7973 57.7215 15.664L57.5615 14.896C57.3482 15.0933 57.1402 15.2693 56.9375 15.424C56.7348 15.5733 56.5215 15.7013 56.2975 15.808C56.0735 15.9093 55.8335 15.9867 55.5775 16.04C55.3268 16.0987 55.0468 16.128 54.7375 16.128C54.4228 16.128 54.1268 16.0853 53.8495 16C53.5722 15.9093 53.3295 15.776 53.1215 15.6C52.9188 15.424 52.7562 15.2027 52.6335 14.936C52.5162 14.664 52.4575 14.344 52.4575 13.976C52.4575 13.656 52.5455 13.3493 52.7215 13.056C52.8975 12.7573 53.1828 12.4933 53.5775 12.264C53.9722 12.0347 54.4868 11.848 55.1215 11.704C55.7562 11.5547 56.5348 11.4693 57.4575 11.448L57.4575 10.816C57.4575 10.1867 57.3215 9.712 57.0495 9.392C56.7775 9.06667 56.3802 8.904 55.8575 8.904C55.5055 8.904 55.2095 8.94933 54.9695 9.04C54.7348 9.12533 54.5295 9.224 54.3535 9.336C54.1828 9.44267 54.0335 9.54133 53.9055 9.632C53.7828 9.71733 53.6602 9.76 53.5375 9.76C53.4415 9.76 53.3588 9.736 53.2895 9.688C53.2202 9.63467 53.1615 9.57067 53.1135 9.496L52.8575 9.04ZM63.8426 12.04C64.1306 12.04 64.384 12 64.6026 11.92C64.8213 11.84 65.0053 11.728 65.1546 11.584C65.304 11.44 65.416 11.2693 65.4906 11.072C65.5653 10.8693 65.6026 10.648 65.6026 10.408C65.6026 9.912 65.4506 9.51733 65.1466 9.224C64.848 8.93067 64.4133 8.784 63.8426 8.784C63.2666 8.784 62.8266 8.93067 62.5226 9.224C62.224 9.51733 62.0746 9.912 62.0746 10.408C62.0746 10.648 62.112 10.8693 62.1866 11.072C62.2666 11.2693 62.3813 11.44 62.5306 11.584C62.68 11.728 62.864 11.84 63.0826 11.92C63.3013 12 63.5546 12.04 63.8426 12.04ZM66.4106 16.44C66.4106 16.2427 66.3546 16.0827 66.2426 15.96C66.1306 15.8373 65.9786 15.7413 65.7866 15.672C65.6 15.6027 65.3813 15.5547 65.1306 15.528C64.88 15.496 64.6133 15.472 64.3306 15.456C64.0533 15.44 63.7706 15.424 63.4826 15.408C63.1946 15.392 62.9173 15.3653 62.6506 15.328C62.352 15.4667 62.1066 15.6427 61.9146 15.856C61.728 16.064 61.6346 16.3093 61.6346 16.592C61.6346 16.7733 61.68 16.9413 61.7706 17.096C61.8666 17.256 62.0106 17.392 62.2026 17.504C62.3946 17.6213 62.6346 17.712 62.9226 17.776C63.216 17.8453 63.56 17.88 63.9546 17.88C64.3386 17.88 64.6826 17.8453 64.9866 17.776C65.2906 17.7067 65.5466 17.608 65.7546 17.48C65.968 17.352 66.1306 17.2 66.2426 17.024C66.3546 16.848 66.4106 16.6533 66.4106 16.44ZM67.8586 8.216L67.8586 8.744C67.8586 8.92 67.7466 9.032 67.5226 9.08L66.6026 9.2C66.784 9.552 66.8746 9.94133 66.8746 10.368C66.8746 10.7627 66.7973 11.1227 66.6426 11.448C66.4933 11.768 66.2853 12.0427 66.0186 12.272C65.752 12.5013 65.432 12.6773 65.0586 12.8C64.6853 12.9227 64.28 12.984 63.8426 12.984C63.464 12.984 63.1066 12.9387 62.7706 12.848C62.6 12.9547 62.4693 13.0693 62.3786 13.192C62.288 13.3093 62.2426 13.4293 62.2426 13.552C62.2426 13.744 62.32 13.8907 62.4746 13.992C62.6346 14.088 62.8426 14.1573 63.0986 14.2C63.3546 14.2427 63.6453 14.2693 63.9706 14.28C64.3013 14.2907 64.6373 14.3093 64.9786 14.336C65.3253 14.3573 65.6613 14.3973 65.9866 14.456C66.3173 14.5147 66.6106 14.6107 66.8666 14.744C67.1226 14.8773 67.328 15.0613 67.4826 15.296C67.6426 15.5307 67.7226 15.8347 67.7226 16.208C67.7226 16.5547 67.6346 16.8907 67.4586 17.216C67.288 17.5413 67.04 17.8293 66.7146 18.08C66.3893 18.336 65.9893 18.5387 65.5146 18.688C65.0453 18.8427 64.5146 18.92 63.9226 18.92C63.3306 18.92 62.8133 18.8613 62.3706 18.744C61.928 18.6267 61.56 18.4693 61.2666 18.272C60.9733 18.0747 60.752 17.8453 60.6026 17.584C60.4586 17.328 60.3866 17.0587 60.3866 16.776C60.3866 16.376 60.512 16.0373 60.7626 15.76C61.0133 15.4827 61.3573 15.2613 61.7946 15.096C61.5546 14.9893 61.3626 14.848 61.2186 14.672C61.08 14.4907 61.0106 14.248 61.0106 13.944C61.0106 13.8267 61.032 13.7067 61.0746 13.584C61.1173 13.456 61.1813 13.3307 61.2666 13.208C61.3573 13.08 61.4666 12.96 61.5946 12.848C61.7226 12.736 61.872 12.6373 62.0426 12.552C61.6426 12.328 61.3306 12.032 61.1066 11.664C60.8826 11.2907 60.7706 10.8587 60.7706 10.368C60.7706 9.97333 60.8453 9.616 60.9946 9.296C61.1493 8.97067 61.3626 8.696 61.6346 8.472C61.9066 8.24267 62.2293 8.06667 62.6026 7.944C62.9813 7.82133 63.3946 7.76 63.8426 7.76C64.1946 7.76 64.5226 7.8 64.8266 7.88C65.1306 7.95467 65.408 8.06667 65.6586 8.216L67.8586 8.216ZM70.6831 9.52C70.9391 8.96533 71.2538 8.53333 71.6271 8.224C72.0005 7.90933 72.4565 7.752 72.9951 7.752C73.1658 7.752 73.3285 7.77067 73.4831 7.808C73.6431 7.84533 73.7845 7.904 73.9071 7.984L73.8031 9.048C73.7711 9.18133 73.6911 9.248 73.5631 9.248C73.4885 9.248 73.3791 9.232 73.2351 9.2C73.0911 9.168 72.9285 9.152 72.7471 9.152C72.4911 9.152 72.2618 9.18933 72.0591 9.264C71.8618 9.33867 71.6831 9.45067 71.5231 9.6C71.3685 9.744 71.2271 9.92533 71.0991 10.144C70.9765 10.3573 70.8645 10.6027 70.7631 10.88L70.7631 16L69.3311 16L69.3311 7.896L70.1471 7.896C70.3018 7.896 70.4085 7.92533 70.4671 7.984C70.5258 8.04267 70.5658 8.144 70.5871 8.288L70.6831 9.52ZM79.4263 12.352C78.7703 12.3733 78.2103 12.4267 77.7463 12.512C77.2876 12.592 76.9116 12.6987 76.6183 12.832C76.3303 12.9653 76.1196 13.1227 75.9863 13.304C75.8583 13.4853 75.7943 13.688 75.7943 13.912C75.7943 14.1253 75.8289 14.3093 75.8983 14.464C75.9676 14.6187 76.0609 14.7467 76.1783 14.848C76.3009 14.944 76.4423 15.016 76.6023 15.064C76.7676 15.1067 76.9436 15.128 77.1303 15.128C77.3809 15.128 77.6103 15.104 77.8183 15.056C78.0263 15.0027 78.2209 14.928 78.4023 14.832C78.5889 14.736 78.7649 14.6213 78.9303 14.488C79.1009 14.3547 79.2663 14.2027 79.4263 14.032L79.4263 12.352ZM74.8263 9.04C75.2743 8.608 75.7569 8.28533 76.2743 8.072C76.7916 7.85867 77.3649 7.752 77.9943 7.752C78.4476 7.752 78.8503 7.82667 79.2023 7.976C79.5543 8.12533 79.8503 8.33333 80.0903 8.6C80.3303 8.86667 80.5116 9.18933 80.6343 9.568C80.7569 9.94667 80.8183 10.3627 80.8183 10.816L80.8183 16L80.1863 16C80.0476 16 79.9409 15.9787 79.8663 15.936C79.7916 15.888 79.7329 15.7973 79.6903 15.664L79.5303 14.896C79.3169 15.0933 79.1089 15.2693 78.9063 15.424C78.7036 15.5733 78.4903 15.7013 78.2663 15.808C78.0423 15.9093 77.8023 15.9867 77.5463 16.04C77.2956 16.0987 77.0156 16.128 76.7063 16.128C76.3916 16.128 76.0956 16.0853 75.8183 16C75.5409 15.9093 75.2983 15.776 75.0903 15.6C74.8876 15.424 74.7249 15.2027 74.6023 14.936C74.4849 14.664 74.4263 14.344 74.4263 13.976C74.4263 13.656 74.5143 13.3493 74.6903 13.056C74.8663 12.7573 75.1516 12.4933 75.5463 12.264C75.9409 12.0347 76.4556 11.848 77.0903 11.704C77.7249 11.5547 78.5036 11.4693 79.4263 11.448L79.4263 10.816C79.4263 10.1867 79.2903 9.712 79.0183 9.392C78.7463 9.06667 78.3489 8.904 77.8263 8.904C77.4743 8.904 77.1783 8.94933 76.9383 9.04C76.7036 9.12533 76.4983 9.224 76.3223 9.336C76.1516 9.44267 76.0023 9.54133 75.8743 9.632C75.7516 9.71733 75.6289 9.76 75.5063 9.76C75.4103 9.76 75.3276 9.736 75.2583 9.688C75.1889 9.63467 75.1303 9.57067 75.0823 9.496L74.8263 9.04ZM82.9874 16L82.9874 7.896L83.8434 7.896C84.046 7.896 84.1714 7.99467 84.2194 8.192L84.3234 9.024C84.622 8.656 84.958 8.35467 85.3314 8.12C85.7047 7.88533 86.1367 7.768 86.6274 7.768C87.1714 7.768 87.6114 7.92 87.9474 8.224C88.2887 8.528 88.534 8.93867 88.6834 9.456C88.8007 9.16267 88.95 8.90933 89.1314 8.696C89.318 8.48267 89.526 8.30667 89.7554 8.168C89.9847 8.02933 90.2274 7.928 90.4834 7.864C90.7447 7.8 91.0087 7.768 91.2754 7.768C91.702 7.768 92.0807 7.83733 92.4114 7.976C92.7474 8.10933 93.03 8.30667 93.2594 8.568C93.494 8.82933 93.6727 9.152 93.7954 9.536C93.918 9.91467 93.9794 10.3493 93.9794 10.84L93.9794 16L92.5474 16L92.5474 10.84C92.5474 10.2053 92.4087 9.72533 92.1314 9.4C91.854 9.06933 91.454 8.904 90.9314 8.904C90.6967 8.904 90.4727 8.94667 90.2594 9.032C90.0514 9.112 89.8674 9.232 89.7074 9.392C89.5474 9.552 89.4194 9.75467 89.3234 10C89.2327 10.24 89.1874 10.52 89.1874 10.84L89.1874 16L87.7554 16L87.7554 10.84C87.7554 10.1893 87.6247 9.704 87.3634 9.384C87.102 9.064 86.7207 8.904 86.2194 8.904C85.8674 8.904 85.542 9 85.2434 9.192C84.9447 9.37867 84.67 9.63467 84.4194 9.96L84.4194 16L82.9874 16Z" fill="#515151"/>
<g clip-path="url(#clip0)">
<path d="M15.9843 6.70404C15.9468 5.8539 15.8093 5.26944 15.6124 4.76299C15.4092 4.22541 15.0967 3.74412 14.6872 3.34401C14.2871 2.93768 13.8026 2.62195 13.2712 2.42196C12.7619 2.22502 12.1805 2.08754 11.3303 2.05006C10.4738 2.0094 10.2019 2 8.02963 2C5.85733 2 5.58543 2.0094 4.73211 2.04688C3.88197 2.08437 3.29751 2.22197 2.79119 2.41878C2.25348 2.62195 1.77219 2.93451 1.37209 3.34401C0.965758 3.74412 0.650145 4.22858 0.450033 4.75994C0.253095 5.26944 0.115618 5.85073 0.0781348 6.70087C0.0374775 7.55736 0.0280763 7.82926 0.0280763 10.0016C0.0280764 12.1739 0.0374776 12.4458 0.0749605 13.2991C0.112443 14.1492 0.250043 14.7337 0.446981 15.2401C0.650145 15.7777 0.965758 16.259 1.37209 16.6591C1.77219 17.0654 2.25666 17.3812 2.78801 17.5812C3.29751 17.7781 3.8788 17.9156 4.72906 17.9531C5.58225 17.9907 5.85428 18 8.02658 18C10.1989 18 10.4708 17.9907 11.3241 17.9531C12.1742 17.9156 12.7587 17.7781 13.265 17.5812C14.3403 17.1654 15.1904 16.3153 15.6062 15.2401C15.803 14.7306 15.9406 14.1492 15.9781 13.2991C16.0156 12.4458 16.025 12.1739 16.025 10.0016C16.025 7.82926 16.0218 7.55736 15.9843 6.70404ZM14.5435 13.2366C14.509 14.018 14.3778 14.4399 14.2684 14.7212C13.9995 15.4183 13.4463 15.9715 12.7493 16.2403C12.468 16.3497 12.043 16.481 11.2646 16.5153C10.4207 16.5529 10.1676 16.5622 8.0328 16.5622C5.89799 16.5622 5.64171 16.5529 4.80085 16.5153C4.01945 16.481 3.59749 16.3497 3.31619 16.2403C2.96932 16.1121 2.65359 15.909 2.39731 15.6433C2.13163 15.3838 1.92847 15.0713 1.80027 14.7244C1.69087 14.4431 1.55962 14.018 1.52532 13.2397C1.48771 12.3958 1.47843 12.1426 1.47843 10.0078C1.47843 7.87297 1.48771 7.6167 1.52531 6.77596C1.55962 5.99455 1.69087 5.5726 1.80027 5.29129C1.92847 4.9443 2.13163 4.62869 2.40048 4.37229C2.65981 4.10661 2.97237 3.90345 3.31936 3.77537C3.60067 3.66597 4.0258 3.53472 4.80403 3.50029C5.64794 3.46281 5.90116 3.45341 8.03585 3.45341C10.1738 3.45341 10.4269 3.46281 11.2678 3.50029C12.0492 3.53472 12.4712 3.66598 12.7525 3.77537C13.0993 3.90345 13.4151 4.10661 13.6713 4.37229C13.937 4.63174 14.1402 4.9443 14.2684 5.29129C14.3778 5.5726 14.509 5.99761 14.5435 6.77596C14.5809 7.61987 14.5903 7.87297 14.5903 10.0078C14.5903 12.1426 14.5809 12.3927 14.5435 13.2366Z" fill="#515151"/>
<path d="M8.02961 5.8916C5.76049 5.8916 3.91943 7.73254 3.91943 10.0018C3.91943 12.271 5.76049 14.112 8.02961 14.112C10.2989 14.112 12.1398 12.271 12.1398 10.0018C12.1398 7.73254 10.2989 5.8916 8.02961 5.8916ZM8.02961 12.668C6.55752 12.668 5.36344 11.474 5.36344 10.0018C5.36344 8.52957 6.55752 7.33561 8.02961 7.33561C9.50182 7.33561 10.6958 8.52957 10.6958 10.0018C10.6958 11.474 9.50182 12.668 8.02961 12.668Z" fill="#515151"/>
<path d="M13.262 5.72858C13.262 6.25847 12.8323 6.68812 12.3023 6.68812C11.7724 6.68812 11.3428 6.25847 11.3428 5.72858C11.3428 5.19857 11.7724 4.76904 12.3023 4.76904C12.8323 4.76904 13.262 5.19857 13.262 5.72858Z" fill="#515151"/>
</g>
<defs>
<clipPath id="clip0">
<rect width="16" height="16" fill="white" transform="translate(0 2)"/>
</clipPath>
</defs>
</svg>
