<svg width="120" height="52" viewBox="0 0 120 52" fill="none" xmlns="http://www.w3.org/2000/svg">
<path d="M23.7182 41.457C23.2966 41.0329 22.7695 40.6088 22.2424 40.3968C21.61 40.0787 20.8721 39.9727 20.2396 39.9727C19.5017 39.9727 18.7639 40.0787 18.026 40.3968C17.3935 40.6088 16.761 41.0329 16.234 41.457C15.7069 41.8811 15.2853 42.5173 15.0745 43.1534C14.442 44.7438 14.442 46.5463 15.0745 48.1367C15.3907 48.7728 15.8123 49.409 16.234 49.8331C16.761 50.3632 17.3935 50.6813 18.026 50.8934C18.7639 51.1054 19.5017 51.3175 20.2396 51.3175C21.0829 51.3175 21.9262 51.1054 22.6641 50.7874C23.2966 50.5753 23.8236 50.1512 24.2453 49.7271C24.4561 49.515 24.4561 49.303 24.2453 49.0909L22.7695 48.0307L22.6641 47.9246C22.4533 47.8186 22.2424 47.8186 22.137 48.0307C21.9262 48.2427 21.7154 48.4548 21.5046 48.6668C21.0829 48.8789 20.6613 48.9849 20.2396 48.9849C19.7126 48.9849 19.0801 48.7728 18.6585 48.4548C18.1314 47.9246 17.9206 47.2885 17.8152 46.6523C17.8152 46.5463 17.9206 46.4403 18.026 46.4403H24.6669C24.8777 46.4403 25.0886 46.2282 25.0886 45.9101V45.38C25.0886 44.6378 24.9832 43.8956 24.7723 43.1534C24.4561 42.5173 24.1399 41.9872 23.7182 41.457ZM21.61 44.2137H18.026C17.9206 44.2137 17.8152 44.1077 17.8152 44.0017C17.8152 43.7896 17.9206 43.6836 17.9206 43.4715C18.026 43.2595 18.1314 43.0474 18.3422 42.8354C18.7639 42.4113 19.3963 42.1992 19.9234 42.1992C20.4504 42.1992 20.9775 42.4113 21.2937 42.7293C21.61 43.0474 21.8208 43.4715 21.8208 43.8956C21.8208 44.1077 21.7154 44.2137 21.61 44.2137Z" fill="white"/>
<path d="M32.1511 40.2896H30.4645C30.3591 40.2896 30.2537 40.1836 30.2537 40.0775V39.3354C30.2537 38.6992 30.3591 38.1691 30.6754 38.063C30.9916 37.851 31.4133 37.745 31.8349 37.745H32.5728C32.7836 37.745 32.9944 37.5329 32.9944 37.3209V35.4124C32.9944 35.2003 32.7836 34.9883 32.5728 34.9883H31.2024C30.4645 34.9883 29.8321 35.0943 29.1996 35.3064C28.6726 35.5184 28.3563 35.8365 28.0401 36.1546C27.7238 36.5787 27.513 37.0028 27.513 37.4269C27.4076 37.957 27.4076 38.4872 27.4076 39.0173V39.9715C27.4076 40.0775 27.3022 40.1836 27.1968 40.1836H25.8264C25.6156 40.1836 25.4048 40.3956 25.4048 40.6077V42.1981C25.4048 42.4101 25.6156 42.6222 25.8264 42.6222H27.1968C27.3022 42.6222 27.4076 42.7282 27.4076 42.8342V50.4681C27.4076 50.6802 27.6184 50.8922 27.8293 50.9983H30.0429C30.2537 50.9983 30.4645 50.7862 30.4645 50.5742V42.9403C30.4645 42.8342 30.57 42.7282 30.6754 42.7282H32.2566C32.4674 42.7282 32.6782 42.5162 32.6782 42.3041V40.7137C32.6782 40.5017 32.4674 40.2896 32.1511 40.2896Z" fill="white"/>
<path d="M12.0166 35.2007C10.9625 35.2007 10.2246 36.0489 10.2246 37.0031C10.2246 38.0634 11.0679 38.8056 12.0166 38.8056C13.0707 38.8056 13.8086 37.9574 13.8086 37.0031C13.8086 36.473 13.5978 36.0489 13.2815 35.7308C12.9653 35.4127 12.4383 35.2007 12.0166 35.2007Z" fill="white"/>
<path d="M13.0708 40.29H10.8571C10.6463 40.29 10.4355 40.5021 10.3301 40.7141V50.6806C10.3301 50.8927 10.5409 51.1047 10.7517 51.1047H12.9654C13.1762 51.1047 13.387 50.8927 13.387 50.6806V40.7141C13.4924 40.5021 13.2816 40.29 13.0708 40.29Z" fill="white"/>
<path d="M50.8088 39.9727H50.1763C49.5439 39.9727 48.9114 40.0787 48.3843 40.3968C48.0681 40.6088 47.7519 40.9269 47.541 41.245V41.351L47.4356 41.457C47.3302 41.457 47.3302 41.351 47.2248 41.351V40.7148C47.2248 40.5028 47.014 40.2907 46.6977 40.2907H44.4841C44.2733 40.2907 44.0624 40.5028 43.957 40.7148V50.6813C43.957 50.8934 44.1679 51.1054 44.3787 51.1054H46.5923C46.8031 51.1054 47.014 50.8934 47.014 50.6813V46.2282C47.014 45.8041 47.014 45.274 47.1194 44.8499C47.1194 44.4258 47.3302 44.1077 47.4356 43.7896C47.6464 43.4715 47.9627 43.2595 48.2789 43.0474C48.5951 42.9414 49.0168 42.8354 49.4384 42.8354H50.598C50.8088 42.8354 51.0196 42.6233 51.0196 42.4113V40.5028C51.2304 40.1847 51.0196 39.9727 50.8088 39.9727Z" fill="white"/>
<path d="M41.9541 41.457C41.5324 41.0329 41.0053 40.6088 40.4783 40.3968C39.8458 40.0787 39.1079 39.9727 38.4755 39.9727C37.7376 39.9727 36.9997 40.0787 36.2618 40.3968C35.6293 40.6088 34.9969 41.0329 34.4698 41.457C33.9428 41.8811 33.5211 42.5173 33.3103 43.1534C32.6778 44.7438 32.6778 46.5463 33.3103 48.1367C33.6265 48.7728 34.0482 49.409 34.4698 49.8331C34.9969 50.3632 35.6293 50.6813 36.2618 50.8934C36.9997 51.1054 37.7376 51.3175 38.4755 51.3175C39.3188 51.3175 40.1621 51.1054 40.8999 50.7874C41.5324 50.5753 42.0595 50.1512 42.4811 49.7271C42.6919 49.515 42.6919 49.303 42.4811 49.0909L41.0053 48.0307L40.8999 47.9246C40.6891 47.8186 40.4783 47.8186 40.3729 48.0307C40.1621 48.2427 39.9512 48.4548 39.7404 48.6668C39.3188 48.8789 38.8971 48.9849 38.4755 48.9849C37.9484 48.9849 37.3159 48.7728 36.8943 48.4548C36.3672 47.9246 36.1564 47.2885 36.051 46.6523C36.051 46.5463 36.1564 46.4403 36.2618 46.4403H42.9028C43.1136 46.4403 43.3244 46.2282 43.3244 45.9101V45.38C43.3244 44.6378 43.219 43.8956 43.0082 43.1534C42.6919 42.5173 42.3757 41.9872 41.9541 41.457ZM39.8458 44.2137H36.2618C36.1564 44.2137 36.051 44.1077 36.051 44.0017C36.051 43.7896 36.1564 43.6836 36.1564 43.4715C36.2618 43.2595 36.3672 43.0474 36.5781 42.8354C36.7889 42.6233 36.9997 42.5173 37.2105 42.4113C37.5268 42.3052 37.843 42.1992 38.1592 42.1992C38.6863 42.1992 39.2133 42.4113 39.5296 42.7293C39.8458 43.0474 40.0566 43.4715 40.0566 43.8956C40.0566 44.1077 39.9512 44.2137 39.8458 44.2137Z" fill="white"/>
<path d="M8.74917 48.1363H3.37318C3.26776 48.1363 3.16235 48.0302 3.16235 47.9242V36.6854C3.16235 36.4734 2.95153 36.2613 2.7407 36.1553H0.421645C0.210821 36.1553 0 36.3673 0 36.6854V50.6809C0 50.999 0.210823 51.211 0.527059 51.211H8.85458C9.06541 51.211 9.27623 50.999 9.38164 50.7869V48.6664C9.17082 48.3483 9.06541 48.1363 8.74917 48.1363Z" fill="white"/>
<path d="M108.68 34.9883H108.048C107.731 34.9883 107.521 35.2003 107.521 35.5184V41.3499C107.521 41.4559 107.415 41.4559 107.31 41.4559H107.204L107.099 41.3499C106.783 41.0318 106.361 40.7137 105.834 40.5017C105.201 40.1836 104.569 40.0775 103.831 40.0775C103.093 40.0775 102.355 40.1836 101.723 40.5017C101.09 40.7137 100.563 41.1378 100.036 41.5619C99.6147 42.092 99.193 42.6222 98.9822 43.2583C98.4551 44.8487 98.4551 46.6512 98.9822 48.2416C99.193 48.8777 99.6147 49.4079 100.036 49.938C100.458 50.3621 100.985 50.7862 101.618 50.9983C102.25 51.3163 102.882 51.4224 103.515 51.4224C104.358 51.4224 105.096 51.2103 105.834 50.7862C106.256 50.5742 106.677 50.2561 106.993 49.832V49.7259L107.099 49.6199C107.204 49.6199 107.31 49.7259 107.31 49.7259V50.4681C107.31 50.7862 107.521 50.9983 107.837 50.9983H108.575C108.891 50.9983 109.102 50.7862 109.102 50.4681V35.5184C109.207 35.2003 108.996 34.9883 108.68 34.9883ZM107.31 47.6054C106.993 48.4536 106.361 49.1958 105.518 49.5139C104.569 49.938 103.515 49.938 102.672 49.5139C101.828 49.0898 101.196 48.4536 100.88 47.6054C100.563 46.3331 100.563 45.0608 100.88 43.7885C100.985 43.3644 101.301 42.9403 101.618 42.6222C101.934 42.3041 102.355 41.986 102.777 41.88C103.726 41.4559 104.78 41.4559 105.623 41.88C106.045 42.092 106.361 42.3041 106.677 42.6222C106.993 42.9403 107.204 43.3644 107.415 43.7885C107.626 45.0608 107.626 46.3331 107.31 47.6054Z" fill="white"/>
<path d="M119.747 43.0474C119.537 42.4113 119.22 41.8811 118.799 41.351C118.377 40.9269 117.85 40.5028 117.323 40.2907C116.69 40.0787 116.058 39.9727 115.425 39.9727C114.688 39.9727 114.055 40.0787 113.423 40.3968C112.79 40.6088 112.263 41.0329 111.841 41.457C111.42 41.9872 110.998 42.5173 110.787 43.1534C110.577 43.8956 110.366 44.7438 110.366 45.5921C110.366 46.4403 110.471 47.2885 110.682 48.1367C110.893 48.7729 111.209 49.303 111.631 49.8331C112.052 50.3632 112.579 50.6813 113.212 50.9994C113.844 51.3175 114.582 51.4235 115.32 51.4235C116.163 51.4235 117.007 51.3175 117.745 50.9994C118.377 50.6813 118.904 50.2572 119.431 49.7271C119.537 49.515 119.537 49.303 119.326 49.0909L118.799 48.6668C118.588 48.5608 118.377 48.5608 118.166 48.6668C117.428 49.515 116.374 49.9391 115.215 49.9391C114.793 49.9391 114.371 49.8331 113.95 49.7271C113.528 49.515 113.212 49.303 113.001 48.9849C112.685 48.6668 112.474 48.3487 112.263 47.9246C112.052 47.3945 111.947 46.8644 111.947 46.3342C111.947 46.2282 112.052 46.1222 112.158 46.1222H119.431C119.642 46.1222 119.853 45.9101 119.958 45.6981V45.5921C120.064 44.6378 119.958 43.8956 119.747 43.0474ZM118.061 44.6378H112.263C112.158 44.6378 112.052 44.5318 112.052 44.4258C112.158 43.6836 112.474 42.8354 113.001 42.4113C113.633 41.8811 114.371 41.5631 115.215 41.6691C116.058 41.6691 116.796 41.8811 117.428 42.4113C117.955 42.8354 118.166 43.6836 118.272 44.4258C118.272 44.5318 118.166 44.6378 118.061 44.6378Z" fill="white"/>
<path d="M97.4009 48.8779C97.0846 48.8779 96.7684 48.984 96.5576 49.196C96.1359 49.6201 96.1359 50.3623 96.663 50.7864C97.0846 51.2105 97.8225 51.2105 98.2442 50.7864C98.6658 50.3623 98.6658 49.6201 98.2442 49.196C98.0333 48.984 97.7171 48.8779 97.4009 48.8779Z" fill="white"/>
<path d="M59.8736 41.4563C59.452 41.0322 59.0303 40.6081 58.3979 40.3961C57.66 40.184 56.9221 39.972 56.1842 40.078C55.3409 40.078 54.4976 40.184 53.7597 40.5021C53.1273 40.7142 52.6002 41.0322 52.0732 41.4563C51.8623 41.6684 51.8623 41.9865 52.0732 42.0925L53.0219 43.0467C53.2327 43.2588 53.5489 43.2588 53.6543 43.0467C53.8652 42.8347 54.1814 42.6226 54.3922 42.5166C54.8139 42.3046 55.3409 42.1985 55.7626 42.1985C56.2896 42.1985 56.8167 42.4106 57.1329 42.7287C57.4492 43.0467 57.66 43.5769 57.7654 44.4251C57.7654 44.5311 57.66 44.6371 57.5546 44.6371C57.2383 44.6371 56.8167 44.6371 56.395 44.6371C55.868 44.6371 55.3409 44.7432 54.9193 44.7432C54.3922 44.8492 53.9706 44.9552 53.4435 45.0612C53.0219 45.1673 52.6002 45.3793 52.1786 45.6974C51.8623 45.9095 51.5461 46.3336 51.3353 46.7577C51.1245 47.1818 51.019 47.7119 51.019 48.242C51.019 48.6661 51.1245 49.1963 51.3353 49.6204C51.5461 50.0445 51.7569 50.3626 52.0732 50.5746C52.3894 50.8927 52.811 50.9987 53.2327 51.2108C53.6543 51.3168 54.1814 51.4228 54.603 51.4228C55.2355 51.4228 55.868 51.3168 56.395 51.1048C56.8167 50.8927 57.2383 50.5746 57.5546 50.2565C57.66 50.2565 57.66 50.2565 57.7654 50.2565V50.3626V50.6806C57.7654 50.8927 57.9762 51.1048 58.187 51.1048H60.1899C60.4007 51.1048 60.6115 50.8927 60.6115 50.6806V45.9095C60.6115 44.9552 60.5061 44.001 60.4007 43.0467C60.5061 42.5166 60.1899 41.8805 59.8736 41.4563ZM57.9762 47.2878C57.9762 47.8179 57.7654 48.3481 57.2383 48.6661C57.0275 48.8782 56.7113 48.9842 56.5005 48.9842C56.1842 49.0903 55.868 49.0903 55.6572 49.0903C55.3409 49.0903 54.9193 48.9842 54.603 48.8782C54.2868 48.7722 54.076 48.4541 54.076 48.03C54.076 47.7119 54.1814 47.3938 54.3922 47.1818C54.603 46.9697 54.9193 46.8637 55.2355 46.7577C55.5517 46.6516 55.868 46.5456 56.2896 46.5456C56.6059 46.5456 56.9221 46.5456 57.1329 46.5456H57.66C57.7654 46.5456 57.8708 46.6516 57.8708 46.7577L57.9762 47.2878Z" fill="white"/>
<path d="M71.0473 41.3506C70.731 40.9265 70.4148 40.5024 69.8878 40.2903C69.2553 39.9722 68.6228 39.8662 67.9903 39.8662C67.6741 39.8662 67.2525 39.8662 66.9362 39.9722C66.62 40.0783 66.3038 40.1843 66.0929 40.3963C65.8821 40.5024 65.6713 40.7144 65.4605 40.9265C65.3551 41.0325 65.355 41.0325 65.2496 41.1385C65.1442 41.2446 65.0388 41.2446 65.0388 41.1385V41.0325V40.6084C65.0388 40.2903 64.828 40.0783 64.5118 40.0783H62.4035C62.0873 40.0783 61.8765 40.2903 61.8765 40.6084V50.5749C61.8765 50.7869 62.0873 50.999 62.4035 50.999H64.6172C64.828 50.999 65.0388 50.7869 65.1442 50.5749V45.2736C65.1442 44.9555 65.1442 44.6374 65.2496 44.3193C65.2496 44.0012 65.3551 43.7892 65.4605 43.4711C65.5659 43.2591 65.7767 43.047 65.9875 42.835C66.3038 42.7289 66.62 42.6229 66.9362 42.6229C67.5687 42.5169 68.2012 42.941 68.412 43.5771C68.5174 43.8952 68.6228 44.1073 68.6228 44.4253C68.6228 44.7434 68.6228 45.0615 68.6228 45.3796V50.5749C68.6228 50.7869 68.8336 50.999 69.1499 50.999H71.3635C71.5743 50.999 71.7852 50.7869 71.8906 50.5749V44.7434C71.8906 44.1073 71.8906 43.4711 71.7852 42.835C71.5743 42.4108 71.3635 41.8807 71.0473 41.3506Z" fill="white"/>
<path d="M83.2751 35.2007H81.0615C80.8506 35.2007 80.6398 35.4127 80.6398 35.6248V40.9261C80.6398 41.0321 80.5344 41.0321 80.429 41.0321C80.429 41.0321 80.3236 41.0321 80.3236 40.9261C80.0074 40.608 79.6911 40.396 79.2695 40.2899C78.637 40.0779 78.0045 39.9719 77.4775 39.9719C76.845 39.9719 76.1071 40.0779 75.5801 40.396C75.053 40.7141 74.5259 41.1382 74.1043 41.5623C73.6827 42.0924 73.3664 42.6225 73.1556 43.2587C72.7339 44.8491 72.7339 46.4395 73.1556 48.0299C73.3664 48.666 73.6826 49.1962 74.2097 49.7263C74.6314 50.1504 75.1584 50.5745 75.7909 50.7866C76.4234 51.1046 77.1612 51.2107 77.7937 51.2107C78.1099 51.2107 78.5316 51.2107 78.8478 51.1046C79.1641 50.9986 79.4803 50.8926 79.7965 50.6805C80.0074 50.5745 80.3236 50.3625 80.5344 50.1504L80.7452 49.9383V49.8323H80.8507C80.9561 49.8323 80.9561 49.9383 81.0615 49.9383V50.3625C81.0615 50.5745 81.2723 50.7866 81.4831 50.7866H83.4859C83.6968 50.7866 83.9076 50.5745 83.9076 50.2564V35.7308C83.8022 35.4127 83.5914 35.2007 83.2751 35.2007ZM80.2182 47.9238C79.1641 48.8781 77.5829 48.8781 76.5288 47.9238C76.1071 47.4997 75.8963 46.4395 75.8963 45.6973C75.8963 44.9551 76.1071 44.0009 76.5288 43.5768C77.5829 42.6225 79.1641 42.6225 80.2182 43.5768C80.6398 44.1069 80.8507 44.9551 80.8507 45.6973C80.8507 46.4395 80.6398 47.3937 80.2182 47.9238Z" fill="white"/>
<path d="M94.133 41.6683C93.6059 41.1382 92.9734 40.8201 92.341 40.608C90.8652 40.0779 89.3894 40.0779 87.9137 40.608C87.2812 40.8201 86.6487 41.2442 86.1217 41.6683C85.5946 42.0924 85.173 42.7286 84.9621 43.3647C84.3297 44.9551 84.3297 46.7576 84.9621 48.348C85.2784 48.9841 85.7 49.6203 86.1217 50.0444C86.6487 50.5745 87.2812 50.8926 87.9137 51.1047C89.3894 51.6348 90.8652 51.6348 92.341 51.1047C92.9734 50.8926 93.6059 50.4685 94.133 50.0444C94.66 49.6203 95.0817 48.9841 95.2925 48.348C95.925 46.7576 95.925 44.9551 95.2925 43.3647C95.0817 42.7286 94.66 42.1984 94.133 41.6683ZM92.0247 48.1359C90.9706 49.0902 89.3894 49.0902 88.3353 48.1359C87.9137 47.7118 87.7028 46.7576 87.7028 45.9094C87.7028 45.1672 87.9137 44.2129 88.3353 43.6828C89.3894 42.7286 90.9706 42.7286 92.0247 43.6828C92.4464 44.1069 92.6572 45.0612 92.6572 45.9094C92.6572 46.6516 92.4464 47.6058 92.0247 48.1359Z" fill="white"/>
<path d="M54.6239 0.318079C55.1509 -0.106026 55.8888 -0.106026 56.5213 0.318079C57.997 1.27232 59.3674 2.22655 60.6323 3.28682C60.6323 3.28682 60.9486 3.49887 61.054 3.07476C61.054 3.07476 60.9486 1.80245 61.1594 1.37834C61.2648 1.06026 61.581 0.848211 61.8973 0.848211C61.8973 0.848211 63.4784 0.954237 64.5326 1.06026C64.9542 1.16629 65.3759 1.48437 65.3759 2.0145C65.3759 2.0145 66.0083 6.46761 66.2191 8.058C66.2191 8.058 66.3246 8.90621 67.4841 10.2846C67.4841 10.2846 69.9086 13.6774 70.1194 14.3136C70.1194 14.3136 70.6464 15.4798 69.4869 15.5859C69.4869 15.5859 67.2733 15.7979 67.0624 15.7979C66.7462 15.7979 66.5354 16.116 66.5354 16.4341C66.5354 16.4341 66.43 24.174 65.9029 27.991C65.9029 27.991 65.7975 29.4753 64.9542 29.4753C64.9542 29.4753 62.7406 29.3693 62.2135 29.3693C62.2135 29.3693 62.0027 29.3693 62.0027 29.0512C62.0027 29.0512 63.1622 16.8582 62.3189 10.8147C62.3189 10.8147 62.3189 10.0725 61.6864 9.86045C61.6864 9.86045 61.1594 9.6484 60.6323 10.3906C60.6323 10.3906 57.0483 14.9497 57.0483 21.3113C57.0483 21.3113 56.9429 23.2198 57.2592 23.7499C57.2592 23.7499 57.47 24.068 58.4187 24.174L59.5782 24.3861C59.5782 24.3861 59.789 24.3861 59.789 24.7041C59.789 24.7041 59.5782 28.309 59.4728 28.9452C59.4728 29.0512 59.4728 29.2633 59.3674 29.3693C59.3674 29.3693 59.3674 29.4753 58.9457 29.4753C58.9457 29.4753 53.7806 29.4753 53.1481 29.4753C53.1481 29.4753 52.9373 29.4753 52.8319 29.3693C52.7264 29.2633 52.5156 24.8102 52.5156 24.174C52.5156 24.068 52.621 23.962 52.7264 23.8559C53.5697 23.3258 54.0968 22.4776 54.2022 21.5234C54.2022 21.5234 54.3076 21.2053 54.2022 19.5089C54.2022 19.5089 54.413 12.7232 54.413 11.5569C54.413 11.5569 54.413 11.2388 53.9914 11.1328C53.7806 11.1328 53.5697 11.2388 53.4643 11.4508C53.4643 11.4508 53.1481 15.904 53.2535 17.7064C53.2535 17.7064 53.3589 18.8727 52.5156 18.8727C52.5156 18.8727 51.7777 18.9787 51.6723 18.0245C51.6723 18.0245 51.7777 13.6774 51.8832 11.4508C51.8832 11.2388 51.6723 11.0267 51.3561 11.0267C51.1453 11.0267 50.829 11.1328 50.829 11.4508C50.829 11.4508 50.5128 15.6919 50.6182 17.8124C50.6182 17.8124 50.7236 18.8727 49.8803 18.8727C49.8803 18.8727 49.1424 18.9787 49.1424 18.0245C49.1424 18.0245 49.3533 11.981 49.3533 11.5569C49.3533 11.2388 49.1424 11.0267 48.9316 11.0267C48.7208 11.0267 48.4046 11.1328 48.4046 11.4508C48.4046 11.4508 48.0883 18.6606 48.1937 20.7812C48.1937 20.7812 48.1937 22.9017 49.7749 23.8559C49.7749 23.8559 49.9857 23.962 49.9857 24.174C49.9857 24.174 50.1966 27.991 50.302 29.1572C50.302 29.1572 50.4074 29.4753 50.0912 29.4753L46.1909 29.6874C46.1909 29.6874 45.5584 29.6874 45.3476 28.9452C45.2422 28.203 44.5043 21.8414 44.6097 16.7522C44.6097 16.4341 44.3989 16.116 44.0827 16.116C44.0827 16.116 42.0799 15.904 41.5528 15.7979C41.1312 15.6919 40.8149 15.1618 40.9203 14.7377C40.9203 14.6316 40.9203 14.6316 41.0257 14.5256C41.0257 14.5256 45.453 6.0435 54.6239 0.318079Z" fill="white"/>
</svg>
