<svg width="23" height="22" viewBox="0 0 23 22" fill="none" xmlns="http://www.w3.org/2000/svg">
<g clip-path="url(#clip0)">
<path d="M3.08838 0V22H19.9119V0H3.08838ZM18.6178 20.7059H4.3825V1.29412H18.6178V20.7059Z" fill="#C1252A"/>
<path d="M5.67651 14.2354H10.853V15.5295H5.67651V14.2354Z" fill="#C1252A"/>
<path d="M5.67651 17.4707H10.853V18.7648H5.67651V17.4707Z" fill="#C1252A"/>
<path d="M5.67651 11H17.3236V12.2941H5.67651V11Z" fill="#C1252A"/>
<path d="M13.4414 14.2354H17.3238V15.5295H13.4414V14.2354Z" fill="#C1252A"/>
<path d="M13.4414 17.4707H17.3238V18.7648H13.4414V17.4707Z" fill="#C1252A"/>
<path d="M16.6767 9.05888V7.76476H15.3283C15.0548 6.14147 13.7706 4.85723 12.1473 4.58369V3.23535H10.8531V4.58369C9.22984 4.85723 7.94556 6.14147 7.67207 7.76476H6.32373V9.05888H16.6767ZM11.5002 5.82359C12.704 5.82359 13.7185 6.64967 14.0066 7.76476H8.99384C9.28191 6.64967 10.2964 5.82359 11.5002 5.82359Z" fill="#C1252A"/>
</g>
<defs>
<clipPath id="clip0">
<rect width="22" height="22" fill="white" transform="translate(0.5)"/>
</clipPath>
</defs>
</svg>
