<svg width="300" height="300" viewBox="0 0 300 300" fill="none" xmlns="http://www.w3.org/2000/svg">
<g opacity="0.7">
<path opacity="0.7" d="M242.131 76.1565C240.421 76.2887 238.58 75.8921 236.344 74.8344C234.239 73.9088 232.267 72.4545 230.557 70.7356C226.48 66.7691 224.375 62.2738 224.244 57.2495C224.112 52.2253 226.085 47.7299 230.031 43.6312C233.845 39.6647 238.185 37.5492 243.183 37.2848C248.049 37.0203 252.652 39.1358 256.992 43.3667C260.281 46.6722 262.253 50.7709 262.385 53.9441L255.283 55.9273C254.625 53.1508 253.31 50.7709 251.469 49.0521C249.364 46.9366 246.865 46.0111 244.103 46.0111C241.341 46.0111 238.843 47.3333 236.344 49.8454C234.108 52.2253 232.924 54.8696 232.924 57.7784C232.924 60.6872 234.108 63.3315 236.475 65.5792C238.58 67.6946 241.078 68.8846 244.103 69.2812L242.131 76.1565Z" stroke="#111211" stroke-opacity="0.5" stroke-miterlimit="10"/>
<path opacity="0.7" d="M259.097 69.5459C261.201 70.6036 264.095 73.1158 265.673 75.7601C269.355 81.7099 268.04 85.9408 262.385 89.5106L250.416 97.047L246.734 91.2295L248.575 90.0395C246.602 89.9073 244.761 88.5851 243.183 86.073C240.815 82.3709 241.604 78.2722 245.55 75.7601C249.89 72.9835 253.967 74.5701 256.729 78.8011C257.782 80.3877 258.308 81.9743 258.045 83.4287C260.412 82.1065 260.938 80.5199 259.754 78.5366C258.965 77.2145 257.519 75.7601 255.283 74.1735L259.097 69.5459ZM252.784 86.8663L253.967 86.073C253.967 85.1475 253.704 84.222 253.047 83.1642C252.389 82.1065 251.337 81.5776 250.285 82.2387C249.364 82.7676 249.364 83.9575 250.022 85.0153C250.942 86.073 251.863 86.7341 252.784 86.8663Z" stroke="#111211" stroke-opacity="0.5" stroke-miterlimit="10"/>
<path opacity="0.7" d="M251.732 100.617L276.984 90.0397C282.902 87.5275 287.374 89.2464 289.478 94.2706C290.53 96.9149 290.793 99.8237 290.004 101.543L283.428 101.41C283.823 100.617 283.691 99.6915 283.165 98.3693C282.639 97.3116 281.324 96.7827 279.483 97.576L276.326 98.8982L278.167 103.526L271.328 106.302L269.487 101.675L254.494 107.889L251.732 100.617Z" stroke="#111211" stroke-opacity="0.5" stroke-miterlimit="10"/>
<path opacity="0.7" d="M264.095 134.597C261.859 132.613 260.281 129.837 259.492 126.135C258.702 122.3 259.097 118.995 260.807 116.218C262.516 113.442 265.278 111.723 268.829 110.93C272.249 110.136 275.406 110.665 278.167 112.516C280.929 114.367 282.771 117.144 283.56 120.846C284.217 123.887 283.823 126.796 282.245 129.44C280.666 132.084 278.299 133.803 275.143 134.464C273.564 134.861 272.249 134.861 271.197 134.861L267.909 119.524C265.936 120.714 265.278 122.697 265.936 125.606C266.462 127.986 267.383 129.837 268.829 131.291L264.095 134.597ZM273.17 118.069L275.011 126.399C276.721 126.002 277.904 124.284 277.378 121.904C276.852 119.656 275.406 118.334 273.17 118.069Z" stroke="#111211" stroke-opacity="0.5" stroke-miterlimit="10"/>
<path opacity="0.7" d="M299.342 139.753L299.211 147.686L285.533 147.422C286.322 149.008 286.716 150.859 286.716 152.71C286.716 156.148 285.533 158.792 283.297 160.775C281.061 162.759 278.167 163.816 274.616 163.684C266.857 163.552 261.859 158.263 261.99 149.669C261.99 147.818 262.253 145.835 262.779 143.984C263.306 142.001 263.963 140.414 264.621 139.224L299.342 139.753ZM277.904 147.289L269.882 147.157C269.356 147.95 269.224 149.008 269.092 150.066C269.092 152.975 270.802 155.09 273.959 155.222C277.378 155.222 279.22 153.107 279.22 150.595C279.351 149.405 278.825 148.347 277.904 147.289Z" stroke="#111211" stroke-opacity="0.5" stroke-miterlimit="10"/>
<path opacity="0.7" d="M282.771 171.485C283.56 173.733 283.691 177.435 283.034 180.608C281.456 187.484 277.51 189.467 271.065 187.88L257.256 184.707L258.834 178.096L260.938 178.625C259.623 177.171 259.228 174.923 259.886 172.014C260.938 167.651 264.226 165.403 268.829 166.461C273.827 167.651 275.669 171.618 274.485 176.51C274.09 178.361 273.301 179.815 272.118 180.741C274.748 181.534 276.195 180.741 276.721 178.493C277.115 177.038 277.115 174.923 276.721 172.279L282.771 171.485ZM266.199 179.286L267.646 179.683C268.303 179.022 268.829 178.228 269.093 176.906C269.356 175.584 268.961 174.526 267.909 174.262C266.857 173.997 266.068 174.791 265.805 176.113C265.278 177.435 265.541 178.493 266.199 179.286Z" stroke="#111211" stroke-opacity="0.5" stroke-miterlimit="10"/>
<path opacity="0.7" d="M255.809 188.145L277.378 197.532L274.222 204.804L272.512 204.011C273.433 205.598 273.564 207.449 272.643 209.432C271.986 210.886 271.197 211.944 270.408 212.473L264.752 206.92C265.673 206.259 266.33 205.465 266.725 204.672C267.251 203.482 267.12 202.424 266.33 201.367L252.521 195.417L255.809 188.145Z" stroke="#111211" stroke-opacity="0.5" stroke-miterlimit="10"/>
<path opacity="0.7" d="M226.874 238.255C226.611 236.536 227.006 234.685 227.795 232.437C228.584 230.19 229.899 228.206 231.477 226.355C235.291 221.992 239.5 219.612 244.498 219.216C249.496 218.819 254.099 220.538 258.439 224.24C262.648 227.81 264.884 232.173 265.41 237.065C265.936 241.957 264.095 246.717 260.149 251.344C257.124 254.914 253.178 257.03 249.89 257.294L247.654 250.287C250.416 249.361 252.652 248.039 254.231 246.056C256.203 243.808 257.124 241.296 256.861 238.519C256.729 235.743 255.283 233.231 252.652 230.983C250.153 228.867 247.523 227.81 244.63 228.074C241.736 228.339 239.237 229.661 237.001 232.173C235.028 234.42 233.976 237.065 233.845 239.974L226.874 238.255Z" stroke="#111211" stroke-opacity="0.5" stroke-miterlimit="10"/>
<path opacity="0.7" d="M234.371 254.914C233.45 257.162 231.083 260.07 228.584 261.921C222.929 266.02 218.588 264.83 214.774 259.409L206.62 247.774L212.144 243.808L213.327 245.526C213.327 243.543 214.511 241.692 217.01 239.973C220.561 237.461 224.638 237.99 227.4 241.824C230.294 246.055 228.978 250.286 224.901 253.195C223.323 254.253 221.745 254.914 220.43 254.782C221.876 257.029 223.586 257.558 225.427 256.236C226.611 255.31 228.058 253.724 229.505 251.476L234.371 254.914ZM216.879 249.493L217.668 250.683C218.588 250.683 219.509 250.286 220.561 249.625C221.613 248.832 222.008 247.774 221.35 246.849C220.693 245.923 219.64 246.055 218.588 246.716C217.405 247.642 216.879 248.567 216.879 249.493Z" stroke="#111211" stroke-opacity="0.5" stroke-miterlimit="10"/>
<path opacity="0.7" d="M203.069 249.229L214.906 274.086C217.668 279.903 216.352 284.399 211.486 286.779C208.987 287.969 206.094 288.365 204.253 287.704L203.989 281.093C204.779 281.358 205.831 281.225 206.883 280.697C207.935 280.168 208.33 278.713 207.541 276.995L206.094 273.954L201.622 276.069L198.466 269.458L202.937 267.343L195.967 252.667L203.069 249.229Z" stroke="#111211" stroke-opacity="0.5" stroke-miterlimit="10"/>
<path opacity="0.7" d="M170.057 263.376C171.898 260.996 174.66 259.277 178.211 258.351C181.894 257.294 185.182 257.558 188.075 259.145C190.837 260.731 192.81 263.376 193.731 266.946C194.651 270.383 194.388 273.556 192.679 276.465C190.969 279.374 188.338 281.357 184.656 282.415C181.631 283.208 178.737 282.944 176.107 281.489C173.345 280.167 171.635 277.787 170.715 274.614C170.32 273.027 170.057 271.838 170.189 270.648L185.182 266.549C183.998 264.698 181.894 264.037 179 264.83C176.765 265.491 174.923 266.549 173.477 268.135L170.057 263.376ZM186.892 271.573L178.737 273.821C179.132 275.54 180.973 276.597 183.341 275.936C185.576 275.407 186.76 273.953 186.892 271.573Z" stroke="#111211" stroke-opacity="0.5" stroke-miterlimit="10"/>
<path opacity="0.7" d="M166.769 299.075L158.878 299.339L158.352 285.589C156.773 286.514 155.064 287.043 153.222 287.043C149.803 287.175 147.041 286.117 144.936 284.002C142.832 281.754 141.648 278.978 141.517 275.408C141.254 267.607 146.252 262.318 154.8 262.054C156.642 261.922 158.615 262.186 160.587 262.583C162.56 262.979 164.138 263.508 165.322 264.169L166.769 299.075ZM158.089 277.92L157.825 269.987C156.905 269.59 155.984 269.326 154.932 269.458C152.039 269.59 149.934 271.441 150.066 274.615C150.197 278.052 152.433 279.771 154.932 279.639C156.116 279.507 157.168 278.978 158.089 277.92Z" stroke="#111211" stroke-opacity="0.5" stroke-miterlimit="10"/>
<path opacity="0.7" d="M134.152 284.134C131.916 285.059 128.233 285.456 125.077 284.795C118.238 283.605 116.002 279.771 117.185 273.16L119.684 259.145L126.392 260.335L125.997 262.45C127.444 260.996 129.548 260.599 132.573 261.128C136.914 261.922 139.413 265.227 138.623 269.855C137.703 274.879 133.757 276.994 128.891 276.069C126.918 275.672 125.471 275.011 124.551 273.953C123.893 276.598 124.814 278.052 127.05 278.581C128.496 278.845 130.601 278.713 133.231 278.184L134.152 284.134ZM125.734 267.871L125.471 269.326C126.129 269.987 127.05 270.383 128.233 270.648C129.548 270.912 130.601 270.383 130.732 269.326C130.864 268.268 130.075 267.475 128.759 267.21C127.444 266.946 126.392 267.21 125.734 267.871Z" stroke="#111211" stroke-opacity="0.5" stroke-miterlimit="10"/>
<path opacity="0.7" d="M116.265 257.955L108.11 280.167L100.745 277.391L101.403 275.672C99.9562 276.73 98.1149 276.862 96.0105 276.201C94.4323 275.672 93.3801 274.879 92.854 274.085L97.9833 268.136C98.7725 269.061 99.5616 269.722 100.351 269.987C101.534 270.383 102.718 270.251 103.639 269.458L108.9 255.311L116.265 257.955Z" stroke="#111211" stroke-opacity="0.5" stroke-miterlimit="10"/>
<path opacity="0.7" d="M64.9714 231.644C66.5497 231.379 68.5225 231.512 70.7584 232.305C72.9942 233.098 74.967 234.156 76.9399 235.743C81.4116 239.312 84.042 243.543 84.6996 248.435C85.3572 253.46 83.9105 258.087 80.4909 262.715C77.0714 267.078 72.9942 269.59 68.1279 270.383C63.2617 271.177 58.5269 269.59 53.6606 265.888C49.978 262.979 47.6106 259.145 47.2161 255.972L54.0552 253.327C55.1073 256.104 56.5541 258.219 58.5269 259.806C60.8943 261.657 63.3932 262.45 66.1551 262.054C68.9171 261.657 71.2845 260.203 73.5203 257.294C75.4931 254.782 76.2823 252.005 76.0192 248.964C75.6247 246.055 74.1779 243.543 71.5475 241.56C69.1801 239.709 66.5497 238.784 63.6562 238.784L64.9714 231.644Z" stroke="#111211" stroke-opacity="0.5" stroke-miterlimit="10"/>
<path opacity="0.7" d="M48.9259 239.974C46.6901 239.18 43.6651 236.933 41.6922 234.553C37.352 229 38.2727 224.769 43.5335 220.538L54.7129 211.679L58.9215 217.1L57.2118 218.422C59.1846 218.29 61.1574 219.48 62.9987 221.728C65.7606 225.165 65.3661 229.264 61.815 232.173C57.8694 235.346 53.5292 234.288 50.3727 230.322C49.189 228.735 48.5314 227.281 48.5314 225.826C46.2955 227.413 45.9009 229.132 47.3477 230.851C48.2683 232.041 49.9781 233.363 52.2139 234.685L48.9259 239.974ZM53.2661 222.124L52.0824 223.05C52.0824 223.975 52.477 224.901 53.2661 225.959C54.0552 227.016 55.2389 227.281 56.0281 226.62C56.8172 225.959 56.8172 224.769 55.8965 223.843C55.2389 222.653 54.3183 222.124 53.2661 222.124Z" stroke="#111211" stroke-opacity="0.5" stroke-miterlimit="10"/>
<path opacity="0.7" d="M52.8714 208.374L28.8031 221.595C23.1476 224.636 18.5444 223.579 16.0455 218.819C14.7303 216.307 14.2042 213.398 14.7303 211.679L21.1748 211.15C20.9118 211.944 21.0433 213.001 21.7009 214.059C22.227 215.117 23.6737 215.381 25.3835 214.456L28.277 212.869L25.9096 208.506L32.3541 204.936L34.7215 209.299L48.9258 201.499L52.8714 208.374Z" stroke="#111211" stroke-opacity="0.5" stroke-miterlimit="10"/>
<path opacity="0.7" d="M37.089 175.981C39.5879 177.7 41.2977 180.344 42.4814 183.914C43.665 187.616 43.5335 190.921 42.2183 193.83C40.7716 196.739 38.2727 198.854 34.7216 200.044C31.4336 201.102 28.1455 200.97 25.2521 199.516C22.2271 198.061 20.1227 195.417 18.9391 191.847C17.8869 188.806 18.1499 186.029 19.3336 183.121C20.5173 180.344 22.7532 178.361 25.7782 177.435C27.2249 176.906 28.5401 176.642 29.5923 176.642L34.5901 191.583C36.4314 190.26 36.8259 188.145 35.9053 185.368C35.1162 183.121 33.9325 181.402 32.3542 179.947L37.089 175.981ZM29.7238 193.301L27.0934 185.236C25.5151 185.765 24.4629 187.616 25.2521 189.864C25.9097 192.111 27.4879 193.169 29.7238 193.301Z" stroke="#111211" stroke-opacity="0.5" stroke-miterlimit="10"/>
<path opacity="0.7" d="M1.44672 174.526L0.657593 166.725L14.3358 165.403C13.4152 163.816 12.7575 162.23 12.626 160.379C12.363 156.941 13.1521 154.165 15.2565 151.917C17.3608 149.669 20.1227 148.347 23.6738 148.083C31.4336 147.289 36.8259 152.049 37.7466 160.643C37.8781 162.494 37.8781 164.478 37.4835 166.461C37.089 168.444 36.6944 170.031 36.1683 171.353L1.44672 174.526ZM21.964 164.742L29.8553 163.949C30.2499 163.023 30.3814 162.098 30.2499 160.908C29.9868 157.999 28.014 156.016 24.8575 156.28C21.4379 156.545 19.8597 158.924 20.1227 161.437C20.2543 162.759 20.9119 163.816 21.964 164.742Z" stroke="#111211" stroke-opacity="0.5" stroke-miterlimit="10"/>
<path opacity="0.7" d="M14.4674 140.943C13.4152 138.696 12.8891 135.126 13.2837 131.953C14.2044 124.945 17.887 122.565 24.463 123.491L38.5358 125.209L37.7467 131.953L35.5108 131.82C36.9575 133.142 37.6151 135.258 37.2206 138.299C36.6945 142.662 33.538 145.306 28.9347 144.778C23.9369 144.116 21.5695 140.282 22.2272 135.39C22.4902 133.407 23.0163 131.953 24.0685 130.895C21.438 130.366 19.9913 131.291 19.5967 133.671C19.4652 135.126 19.5967 137.241 20.2543 139.886L14.4674 140.943ZM30.25 131.556L28.8032 131.424C28.1456 132.085 27.751 133.01 27.6195 134.332C27.488 135.655 28.0141 136.712 29.0663 136.845C30.1184 136.977 30.9076 136.051 31.0391 134.861C31.1706 133.407 30.9076 132.349 30.25 131.556Z" stroke="#111211" stroke-opacity="0.5" stroke-miterlimit="10"/>
<path opacity="0.7" d="M39.5879 121.64L17.0978 114.632L19.4652 107.096L21.3065 107.625C20.1228 106.17 19.8597 104.319 20.5173 102.204C21.0434 100.617 21.701 99.5595 22.4902 98.8984L28.6716 103.79C27.8825 104.584 27.2249 105.377 26.9619 106.303C26.5673 107.625 26.8304 108.682 27.751 109.608L42.0868 114.103L39.5879 121.64Z" stroke="#111211" stroke-opacity="0.5" stroke-miterlimit="10"/>
<path opacity="0.7" d="M62.9987 68.7526C63.3933 70.3392 63.2618 72.3224 62.7357 74.5701C62.0781 76.8178 61.1574 78.9333 59.7107 80.9165C56.4227 85.6763 52.3455 88.4529 47.4792 89.3784C42.6129 90.3039 37.7467 89.114 33.1434 85.8085C28.6717 82.6353 25.9097 78.6688 24.8576 73.7768C23.8054 69.017 25.1206 63.9928 28.5402 59.1008C31.1706 55.2665 34.9847 52.6221 38.1412 52.0933L41.1662 58.8363C38.5358 60.0263 36.4314 61.6129 34.9847 63.7283C33.2749 66.2405 32.7488 68.7526 33.1434 71.5291C33.6695 74.3057 35.3793 76.5534 38.1412 78.5366C40.7716 80.3877 43.5336 81.0487 46.4271 80.6521C49.3205 80.1232 51.6879 78.5366 53.5292 75.7601C55.239 73.3802 56.0281 70.6036 55.8966 67.6948L62.9987 68.7526Z" stroke="#111211" stroke-opacity="0.5" stroke-miterlimit="10"/>
<path opacity="0.7" d="M53.7921 53.0193C54.4497 50.7716 56.4225 47.5984 58.7899 45.483C64.0508 40.8554 68.391 41.5164 72.7312 46.5407L82.0692 57.2503L76.9398 61.7456L75.4931 60.159C75.7562 62.1423 74.704 64.1255 72.4681 66.1088C69.1801 69.0176 65.1029 68.8853 61.9464 65.4477C58.6584 61.6134 59.4475 57.2503 63.1301 53.9448C64.5769 52.6227 66.0236 51.9616 67.4703 51.8294C65.7605 49.7139 64.0508 49.4495 62.341 50.9038C61.1573 51.9616 59.9736 53.6804 58.7899 56.0603L53.7921 53.0193ZM71.679 56.5892L70.7583 55.5314C69.8377 55.6637 68.9171 56.0603 67.9964 56.8536C67.0758 57.7791 66.8127 58.8369 67.4703 59.6302C68.1279 60.4235 69.3116 60.2912 70.2323 59.3657C71.416 58.4402 71.8105 57.5147 71.679 56.5892Z" stroke="#111211" stroke-opacity="0.5" stroke-miterlimit="10"/>
<path opacity="0.7" d="M85.3573 55.3991L71.0215 31.8645C67.602 26.3114 68.5226 21.6838 73.1258 18.9072C75.4932 17.4529 78.3867 16.6596 80.228 17.3206L81.1486 23.7993C80.3595 23.5348 79.3073 23.7993 78.2552 24.4603C77.203 25.1214 76.94 26.5758 77.9921 28.1624L79.7019 31.0712L83.9106 28.4269L87.7247 34.641L83.516 37.2854L92.0649 51.1682L85.3573 55.3991Z" stroke="#111211" stroke-opacity="0.5" stroke-miterlimit="10"/>
<path opacity="0.7" d="M116.791 37.6816C115.213 40.1937 112.714 42.177 109.294 43.4992C105.743 44.9536 102.455 44.9536 99.4301 43.7636C96.4052 42.4414 94.3008 40.0615 92.8541 36.6239C91.5389 33.3185 91.5389 30.1453 92.8541 27.1043C94.1693 24.0633 96.6682 21.8156 100.219 20.3612C103.113 19.1713 106.006 19.1713 108.9 20.3612C111.793 21.4189 113.766 23.5344 114.95 26.5754C115.476 28.0298 115.87 29.352 116.002 30.4097L101.534 36.095C102.981 37.8138 105.086 38.2105 107.848 37.1528C110.083 36.2272 111.793 35.0373 112.977 33.3185L116.791 37.6816ZM99.1671 31.3352L107.058 28.162C106.401 26.5754 104.559 25.6499 102.324 26.5754C100.088 27.5009 99.0356 29.0875 99.1671 31.3352Z" stroke="#111211" stroke-opacity="0.5" stroke-miterlimit="10"/>
<path opacity="0.7" d="M116.133 1.85108L123.893 0.661133L125.866 14.2795C127.313 13.2217 129.022 12.5607 130.864 12.2962C134.283 11.7674 137.045 12.4284 139.413 14.4117C141.78 16.3949 143.227 19.0393 143.753 22.6091C144.936 30.4099 140.465 36.0953 132.047 37.4174C130.206 37.6819 128.233 37.6819 126.26 37.5496C124.288 37.2852 122.578 37.0208 121.394 36.4919L116.133 1.85108ZM127.05 21.948L128.233 29.8811C129.154 30.2777 130.206 30.2777 131.258 30.1455C134.152 29.7488 135.993 27.6334 135.467 24.4602C134.941 21.0225 132.573 19.5681 130.075 19.9648C128.891 20.097 127.97 20.7581 127.05 21.948Z" stroke="#111211" stroke-opacity="0.5" stroke-miterlimit="10"/>
<path opacity="0.7" d="M150.197 13.2215C152.302 12.1638 155.984 11.3705 159.141 11.5027C166.111 12.0316 168.61 15.6014 168.216 22.2123L167.163 36.4917L160.324 35.9628L160.456 33.8473C159.141 35.4339 157.036 36.095 154.143 35.8306C149.803 35.5662 146.909 32.5252 147.304 27.8976C147.698 22.7411 151.381 20.3612 156.379 20.6257C158.352 20.7579 159.798 21.2867 160.85 22.2123C161.245 19.5679 160.193 18.1135 157.957 17.9813C156.379 17.8491 154.406 18.2458 151.907 19.0391L150.197 13.2215ZM160.324 28.4265L160.456 26.9721C159.798 26.4432 158.746 26.0466 157.562 25.9143C156.247 25.7821 155.327 26.4432 155.195 27.5009C155.063 28.5587 155.984 29.2198 157.299 29.352C158.746 29.6164 159.798 29.2198 160.324 28.4265Z" stroke="#111211" stroke-opacity="0.5" stroke-miterlimit="10"/>
<path opacity="0.7" d="M170.715 37.2851L176.765 14.4116L184.393 16.3949L183.867 18.2459C185.313 17.056 187.023 16.6593 189.128 17.3204C190.706 17.717 191.89 18.3781 192.416 19.1714L187.812 25.5178C187.023 24.7245 186.103 24.1957 185.313 23.9312C183.998 23.5346 182.946 23.9312 182.157 24.8567L178.343 39.4006L170.715 37.2851Z" stroke="#111211" stroke-opacity="0.5" stroke-miterlimit="10"/>
</g>
</svg>
