<svg width="70" height="54" viewBox="0 0 70 54" fill="none" xmlns="http://www.w3.org/2000/svg">
<g clip-path="url(#clip0)">
<path d="M66.9918 9.3199V6.27088H65.8449C64.0234 6.27088 62.6741 7.11859 61.8645 8.44485V6.39394H58.5992V22.9516H61.8915V13.5448C61.8915 10.9743 63.4567 9.3199 65.6155 9.3199H66.9918ZM43.2984 13.1483C43.8921 10.6188 45.943 8.92339 48.3852 8.92339C50.8274 8.92339 52.8918 10.6051 53.445 13.1483H43.2984ZM48.4526 6.07946C43.5952 6.07946 39.8982 10.0035 39.8982 14.6796C39.8982 19.6155 43.7436 23.3208 48.7495 23.3208C51.7854 23.3208 54.268 21.9945 55.9277 19.7795L53.5394 18.0294C52.2981 19.6838 50.6655 20.4632 48.736 20.4632C45.9295 20.4632 43.6762 18.4533 43.2174 15.7598H56.7642V14.6933C56.7777 9.74376 53.2561 6.07946 48.4526 6.07946ZM29.6167 20.4632C26.4189 20.4632 23.8687 17.8927 23.8687 14.7206C23.8687 11.5075 26.4459 8.97808 29.6167 8.97808C32.747 8.97808 35.3241 11.5075 35.3241 14.7206C35.3376 17.8927 32.7605 20.4632 29.6167 20.4632ZM20.6439 22.9653H23.9092V20.887C25.4069 22.4184 27.5388 23.3481 29.846 23.3481C34.7439 23.3481 38.5894 19.4787 38.5894 14.707C38.5894 9.90783 34.7439 6.03845 29.846 6.03845C27.5253 6.03845 25.4339 6.98186 23.9362 8.49954V0.227539H20.6439V22.9653ZM9.05362 20.2991C12.2244 20.2991 14.6666 17.8654 14.6666 14.2558V0.227539H18.0938V22.9516H14.6936V20.846C13.1554 22.432 11.0371 23.3481 8.64883 23.3481C3.75094 23.3481 -6.10352e-05 19.8069 -6.10352e-05 14.4472V0.227539H3.44061V14.2558C3.44061 17.9337 5.85582 20.2991 9.05362 20.2991Z" fill="white"/>
<path d="M31.6677 43.912C31.6677 41.0408 29.4009 38.7848 26.5404 38.7848C23.7204 38.7848 21.4131 41.0408 21.4131 43.912C21.4131 46.7833 23.7204 49.0393 26.5404 49.0393C29.4009 49.0393 31.6677 46.7833 31.6677 43.912ZM35.8504 35.517V52.3208H31.5867V50.8031C30.1025 52.0473 28.227 52.7446 26.1896 52.7446C21.1433 52.7446 17.2033 48.8205 17.2033 43.912C17.2033 39.0172 21.1567 35.0794 26.1896 35.0794C28.227 35.0794 30.1025 35.7768 31.5867 37.021V35.517H35.8504ZM50.0179 48.5061H46.8066C45.8351 48.5061 45.2009 48.0822 45.2009 47.1798V39.318H50.0044V35.517H45.2009V30.7315H40.8967V35.517H37.6585V39.3317H40.8967V48.26C40.8967 50.516 42.5024 52.3071 45.3898 52.3071H50.0044V48.5061H50.0179ZM59.7327 52.7446C64.6576 52.7446 67.4371 50.4066 67.4371 47.1798C67.4371 44.8828 65.791 43.1737 62.3503 42.4354L58.7073 41.697C56.6024 41.3142 55.9277 40.9177 55.9277 40.1384C55.9277 39.1266 56.9397 38.5113 58.8152 38.5113C60.8526 38.5113 62.3368 39.0582 62.7686 40.9177H67.0323C66.803 37.4175 64.2528 35.0794 59.0985 35.0794C54.6459 35.0794 51.5156 36.9116 51.5156 40.4528C51.5156 42.9002 53.2427 44.5 56.9532 45.2793L61.0145 46.209C62.6202 46.5235 63.052 46.9474 63.052 47.6037C63.052 48.6565 61.8376 49.3128 59.8811 49.3128C57.4254 49.3128 56.0087 48.7658 55.469 46.9064H51.1648C51.7989 50.4066 54.4165 52.7446 59.7327 52.7446ZM0 29.5557H16.07V33.4387H4.34469V39.0035H15.7596V42.7772H4.34469V48.4104H16.07V52.2934H0V29.5557Z" fill="#06C167"/>
</g>
<defs>
<clipPath id="clip0">
<rect width="70" height="53.2" fill="white"/>
</clipPath>
</defs>
</svg>
