<svg width="92" height="44" viewBox="0 0 92 44" fill="none" xmlns="http://www.w3.org/2000/svg">
<path fill-rule="evenodd" clip-rule="evenodd" d="M91.2453 8.39407C87.2412 8.43008 81.1008 8.8378 75.351 9.27216C75.7275 7.78342 76.0684 6.5128 76.3135 5.55388C76.529 4.88566 76.4751 4.49575 75.6126 4.16173C74.7501 3.82753 73.2408 3.49332 71.947 3.60472C71.5158 3.66042 71.1923 3.77183 71.0306 4.27295C70.5466 5.83182 70.0742 7.70671 69.6367 9.71739C68.5872 9.80085 67.5886 9.88055 66.6642 9.95332C66.0174 10.009 65.6939 10.1761 65.4245 10.9C65.101 11.7911 64.9392 13.1277 65.0471 14.0187C65.101 14.6313 65.3167 14.9098 66.2331 14.7984C67.0532 14.6765 67.8841 14.5429 68.7201 14.4028C68.3473 16.5277 68.0279 18.6552 67.7859 20.6085C64.6713 25.9431 60.8051 31.1713 59.5487 31.1713C59.0097 31.1713 58.6862 30.8371 58.6862 28.6651C58.6323 23.9315 59.3869 17.1374 60.1955 12.0696C61.4893 8.56117 62.0822 6.66771 62.3518 3.43762C62.4057 2.7694 62.2439 2.32379 61.705 1.98977C60.6268 1.32155 58.5244 0.820236 57.1769 0.820236C56.7455 0.820236 56.3144 1.04304 56.2065 1.54416C55.4276 5.1079 54.7778 9.15569 54.3055 13.2487C52.5231 14.7074 50.6263 15.8993 48.9292 16.469C48.3902 14.1858 47.905 13.4062 46.6651 12.9606C45.2097 12.4038 41.8676 12.0696 40.3581 12.2367C39.0645 12.4038 38.3637 12.7935 37.5552 14.2972C35.1293 19.0864 34.806 26.3262 35.5606 30.7257C35.83 32.3406 36.3153 33.343 37.1238 33.9001C38.0941 34.5683 39.8191 35.1251 41.2206 35.2365C42.5144 35.3479 43.3769 35.2365 44.5629 34.0672C47.5815 31.0599 49.2527 24.1543 49.1449 18.8081C50.7537 18.2541 52.4164 17.4167 53.9987 16.1804C53.5434 21.0206 53.3531 25.7776 53.5112 29.7232C53.5652 31.0042 53.7808 31.8395 54.5894 32.3963C55.883 33.343 57.5002 33.8444 58.9557 33.8444C60.8908 33.8444 64.9781 30.6555 67.3256 25.5802C67.3207 25.6809 67.315 25.7833 67.3112 25.8806C67.1495 30.2801 71.0845 32.3406 73.8876 32.0623C77.5532 31.7281 82.6205 26.8273 86.34 21.7597C87.9032 19.6434 88.55 15.3554 88.2805 14.9098C88.1726 14.7427 87.9032 14.8541 87.4719 15.4109C82.8899 21.8711 76.2596 29.8346 73.7259 29.8346C72.7018 29.8346 72.594 28.5537 72.594 27.3286C72.594 22.6213 73.4497 17.5784 74.3803 13.355C79.8548 12.2558 85.4617 10.9137 90.7603 9.6193C91.5149 9.4522 92 8.89519 92 8.61687C92 8.44977 91.6767 8.39407 91.2453 8.39407ZM42.2433 31.169C41.3488 31.169 40.6649 28.6781 40.8228 24.9694C40.9806 21.2607 41.612 17.1645 43.927 13.1238C43.7166 15.67 44.7162 17.8842 46.4 18.0501C46.0316 25.2463 43.8743 31.169 42.2433 31.169ZM32.0618 1.45159C30.8246 0.565787 28.6189 -0.098522 27.0589 0.0120408C26.7361 0.0120408 26.5747 0.288914 26.6823 0.787285C27.5968 5.16095 28.0811 8.75955 28.0811 15.7353C28.0811 26.8635 24.5844 35.8877 23.2394 35.9984C22.3787 36.0538 22.1097 35.0573 21.8947 33.2303C21.1952 26.7528 20.8187 21.2718 20.9801 14.9048C20.9801 14.1851 20.7649 13.7977 20.0656 13.7977C18.9359 13.7977 17.4835 13.9636 16.2999 14.2405C15.6006 14.4066 15.2778 14.7943 15.0626 15.4586C12.5016 23.6883 9.33127 32.8057 6.04495 39.1567C5.92865 35.5638 5.76342 31.2782 6.34786 25.3132C6.88574 19.6107 7.58503 14.8496 9.36044 8.37193C9.46787 7.98449 9.30664 7.48612 8.66097 7.48612C6.24025 7.48612 3.98095 8.03987 2.36696 9.0918C1.50625 9.58998 1.18359 10.5865 1.02217 11.5831C-0.376595 19.4448 -0.268984 31.3479 0.914563 40.5382C0.968368 41.1472 1.23722 41.7561 1.66766 42.1437C2.47457 42.8634 4.19599 43.4725 5.43334 43.4725C6.07883 43.4725 6.77813 43.4725 7.4238 42.3098C9.70755 38.1159 12.6248 31.8493 15.1831 24.5659C15.3445 28.0834 15.7784 31.9885 16.2461 34.6143C16.7302 37.3271 18.5054 39.5971 22.1097 39.2648C27.7582 38.7112 31.6853 24.6489 33.0301 14.8496C33.6758 10.1437 33.7832 5.71451 33.2991 3.50008C33.0839 2.50353 32.6536 1.83922 32.0618 1.45159Z" fill="white"/>
</svg>
