<svg width="94" height="19" viewBox="0 0 94 19" fill="none" xmlns="http://www.w3.org/2000/svg">
<path d="M29.016 5.8L29.016 9.808L33.728 9.808L33.728 11.072L29.016 11.072L29.016 16L27.464 16L27.464 4.536L34.528 4.536L34.528 5.8L29.016 5.8ZM39.4263 12.352C38.7703 12.3733 38.2103 12.4267 37.7463 12.512C37.2876 12.592 36.9116 12.6987 36.6183 12.832C36.3303 12.9653 36.1196 13.1227 35.9863 13.304C35.8583 13.4853 35.7943 13.688 35.7943 13.912C35.7943 14.1253 35.8289 14.3093 35.8983 14.464C35.9676 14.6187 36.0609 14.7467 36.1783 14.848C36.3009 14.944 36.4423 15.016 36.6023 15.064C36.7676 15.1067 36.9436 15.128 37.1303 15.128C37.3809 15.128 37.6103 15.104 37.8183 15.056C38.0263 15.0027 38.2209 14.928 38.4023 14.832C38.5889 14.736 38.7649 14.6213 38.9303 14.488C39.1009 14.3547 39.2663 14.2027 39.4263 14.032L39.4263 12.352ZM34.8263 9.04C35.2743 8.608 35.7569 8.28533 36.2743 8.072C36.7916 7.85867 37.3649 7.752 37.9943 7.752C38.4476 7.752 38.8503 7.82667 39.2023 7.976C39.5543 8.12533 39.8503 8.33333 40.0903 8.6C40.3303 8.86667 40.5116 9.18933 40.6343 9.568C40.7569 9.94667 40.8183 10.3627 40.8183 10.816L40.8183 16L40.1863 16C40.0476 16 39.9409 15.9787 39.8663 15.936C39.7916 15.888 39.7329 15.7973 39.6903 15.664L39.5303 14.896C39.3169 15.0933 39.1089 15.2693 38.9063 15.424C38.7036 15.5733 38.4903 15.7013 38.2663 15.808C38.0423 15.9093 37.8023 15.9867 37.5463 16.04C37.2956 16.0987 37.0156 16.128 36.7063 16.128C36.3916 16.128 36.0956 16.0853 35.8183 16C35.5409 15.9093 35.2983 15.776 35.0903 15.6C34.8876 15.424 34.7249 15.2027 34.6023 14.936C34.4849 14.664 34.4263 14.344 34.4263 13.976C34.4263 13.656 34.5143 13.3493 34.6903 13.056C34.8663 12.7573 35.1516 12.4933 35.5463 12.264C35.9409 12.0347 36.4556 11.848 37.0903 11.704C37.7249 11.5547 38.5036 11.4693 39.4263 11.448L39.4263 10.816C39.4263 10.1867 39.2903 9.712 39.0183 9.392C38.7463 9.06667 38.3489 8.904 37.8263 8.904C37.4743 8.904 37.1783 8.94933 36.9383 9.04C36.7036 9.12533 36.4983 9.224 36.3223 9.336C36.1516 9.44267 36.0023 9.54133 35.8743 9.632C35.7516 9.71733 35.6289 9.76 35.5063 9.76C35.4103 9.76 35.3276 9.736 35.2583 9.688C35.1889 9.63467 35.1303 9.57067 35.0823 9.496L34.8263 9.04ZM48.6274 9.336C48.5847 9.39467 48.542 9.44 48.4994 9.472C48.4567 9.504 48.398 9.52 48.3234 9.52C48.2434 9.52 48.1554 9.488 48.0594 9.424C47.9634 9.35467 47.8434 9.28 47.6994 9.2C47.5607 9.12 47.3874 9.048 47.1794 8.984C46.9767 8.91467 46.726 8.88 46.4274 8.88C46.0274 8.88 45.6754 8.952 45.3714 9.096C45.0674 9.23467 44.8114 9.43733 44.6034 9.704C44.4007 9.97067 44.246 10.2933 44.1394 10.672C44.038 11.0507 43.9874 11.4747 43.9874 11.944C43.9874 12.4347 44.0434 12.872 44.1554 13.256C44.2674 13.6347 44.4247 13.9547 44.6274 14.216C44.8354 14.472 45.0834 14.6693 45.3714 14.808C45.6647 14.9413 45.9927 15.008 46.3554 15.008C46.702 15.008 46.9874 14.968 47.2114 14.888C47.4354 14.8027 47.6194 14.7093 47.7634 14.608C47.9127 14.5067 48.0354 14.416 48.1314 14.336C48.2327 14.2507 48.3314 14.208 48.4274 14.208C48.5447 14.208 48.6354 14.2533 48.6994 14.344L49.0994 14.864C48.9234 15.0827 48.7234 15.2693 48.4994 15.424C48.2754 15.5787 48.0327 15.7093 47.7714 15.816C47.5154 15.9173 47.246 15.992 46.9634 16.04C46.6807 16.088 46.3927 16.112 46.0994 16.112C45.5927 16.112 45.1207 16.0187 44.6834 15.832C44.2514 15.6453 43.8754 15.376 43.5554 15.024C43.2354 14.6667 42.9847 14.2293 42.8034 13.712C42.622 13.1947 42.5314 12.6053 42.5314 11.944C42.5314 11.3413 42.614 10.784 42.7794 10.272C42.95 9.76 43.1954 9.32 43.5154 8.952C43.8407 8.57867 44.238 8.288 44.7074 8.08C45.182 7.872 45.726 7.768 46.3394 7.768C46.91 7.768 47.4114 7.86133 47.8434 8.048C48.2807 8.22933 48.6674 8.488 49.0034 8.824L48.6274 9.336ZM55.9114 11.064C55.9114 10.7333 55.8634 10.432 55.7674 10.16C55.6767 9.88267 55.5407 9.64533 55.3594 9.448C55.1834 9.24533 54.9674 9.09067 54.7114 8.984C54.4554 8.872 54.1647 8.816 53.8394 8.816C53.1567 8.816 52.6154 9.016 52.2154 9.416C51.8207 9.81067 51.5754 10.36 51.4794 11.064L55.9114 11.064ZM57.0634 14.864C56.8874 15.0773 56.6767 15.264 56.4314 15.424C56.186 15.5787 55.922 15.7067 55.6394 15.808C55.362 15.9093 55.074 15.984 54.7754 16.032C54.4767 16.0853 54.1807 16.112 53.8874 16.112C53.3274 16.112 52.81 16.0187 52.3354 15.832C51.866 15.64 51.458 15.3627 51.1114 15C50.77 14.632 50.5034 14.1787 50.3114 13.64C50.1194 13.1013 50.0234 12.4827 50.0234 11.784C50.0234 11.2187 50.1087 10.6907 50.2794 10.2C50.4554 9.70933 50.706 9.28533 51.0314 8.928C51.3567 8.56533 51.754 8.28267 52.2234 8.08C52.6927 7.872 53.2207 7.768 53.8074 7.768C54.2927 7.768 54.7407 7.85067 55.1514 8.016C55.5674 8.176 55.9247 8.41067 56.2234 8.72C56.5274 9.024 56.7647 9.40267 56.9354 9.856C57.106 10.304 57.1914 10.816 57.1914 11.392C57.1914 11.616 57.1674 11.7653 57.1194 11.84C57.0714 11.9147 56.9807 11.952 56.8474 11.952L51.4314 11.952C51.4474 12.464 51.5167 12.9093 51.6394 13.288C51.7674 13.6667 51.9434 13.984 52.1674 14.24C52.3914 14.4907 52.658 14.68 52.9674 14.808C53.2767 14.9307 53.6234 14.992 54.0074 14.992C54.3647 14.992 54.6714 14.952 54.9274 14.872C55.1887 14.7867 55.4127 14.696 55.5994 14.6C55.786 14.504 55.9407 14.416 56.0634 14.336C56.1914 14.2507 56.3007 14.208 56.3914 14.208C56.5087 14.208 56.5994 14.2533 56.6634 14.344L57.0634 14.864ZM60.3725 14.048C60.6338 14.4 60.9192 14.648 61.2285 14.792C61.5432 14.936 61.8872 15.008 62.2605 15.008C63.0232 15.008 63.6072 14.7387 64.0125 14.2C64.4178 13.6613 64.6205 12.8587 64.6205 11.792C64.6205 10.8 64.4392 10.072 64.0765 9.608C63.7192 9.13867 63.2072 8.904 62.5405 8.904C62.0765 8.904 61.6712 9.01067 61.3245 9.224C60.9832 9.43733 60.6658 9.73867 60.3725 10.128L60.3725 14.048ZM60.3725 9.064C60.7138 8.66933 61.0978 8.35467 61.5245 8.12C61.9565 7.88533 62.4525 7.768 63.0125 7.768C63.4872 7.768 63.9138 7.85867 64.2925 8.04C64.6765 8.22133 65.0018 8.48533 65.2685 8.832C65.5352 9.17333 65.7378 9.58933 65.8765 10.08C66.0205 10.5707 66.0925 11.1227 66.0925 11.736C66.0925 12.392 66.0125 12.9893 65.8525 13.528C65.6925 14.0667 65.4605 14.528 65.1565 14.912C64.8578 15.2907 64.4925 15.5867 64.0605 15.8C63.6285 16.008 63.1432 16.112 62.6045 16.112C62.0712 16.112 61.6205 16.0133 61.2525 15.816C60.8898 15.6133 60.5725 15.328 60.3005 14.96L60.2285 15.696C60.1858 15.8987 60.0632 16 59.8605 16L58.9405 16L58.9405 4.216L60.3725 4.216L60.3725 9.064ZM71.3096 7.768C71.9016 7.768 72.435 7.86667 72.9096 8.064C73.3843 8.26133 73.7896 8.54133 74.1256 8.904C74.4616 9.26667 74.7176 9.70667 74.8936 10.224C75.075 10.736 75.1656 11.3093 75.1656 11.944C75.1656 12.584 75.075 13.16 74.8936 13.672C74.7176 14.184 74.4616 14.6213 74.1256 14.984C73.7896 15.3467 73.3843 15.6267 72.9096 15.824C72.435 16.016 71.9016 16.112 71.3096 16.112C70.7123 16.112 70.1736 16.016 69.6936 15.824C69.219 15.6267 68.8136 15.3467 68.4776 14.984C68.1416 14.6213 67.883 14.184 67.7016 13.672C67.5256 13.16 67.4376 12.584 67.4376 11.944C67.4376 11.3093 67.5256 10.736 67.7016 10.224C67.883 9.70667 68.1416 9.26667 68.4776 8.904C68.8136 8.54133 69.219 8.26133 69.6936 8.064C70.1736 7.86667 70.7123 7.768 71.3096 7.768ZM71.3096 15C72.1096 15 72.707 14.7333 73.1016 14.2C73.4963 13.6613 73.6936 12.912 73.6936 11.952C73.6936 10.9867 73.4963 10.2347 73.1016 9.696C72.707 9.15733 72.1096 8.888 71.3096 8.888C70.9043 8.888 70.5496 8.95733 70.2456 9.096C69.947 9.23467 69.6963 9.43467 69.4936 9.696C69.2963 9.95733 69.147 10.28 69.0456 10.664C68.9496 11.0427 68.9016 11.472 68.9016 11.952C68.9016 12.912 69.099 13.6613 69.4936 14.2C69.8936 14.7333 70.499 15 71.3096 15ZM80.3878 7.768C80.9798 7.768 81.5131 7.86667 81.9878 8.064C82.4624 8.26133 82.8678 8.54133 83.2038 8.904C83.5398 9.26667 83.7958 9.70667 83.9718 10.224C84.1531 10.736 84.2438 11.3093 84.2438 11.944C84.2438 12.584 84.1531 13.16 83.9718 13.672C83.7958 14.184 83.5398 14.6213 83.2038 14.984C82.8678 15.3467 82.4624 15.6267 81.9878 15.824C81.5131 16.016 80.9798 16.112 80.3878 16.112C79.7904 16.112 79.2518 16.016 78.7718 15.824C78.2971 15.6267 77.8918 15.3467 77.5558 14.984C77.2198 14.6213 76.9611 14.184 76.7798 13.672C76.6038 13.16 76.5158 12.584 76.5158 11.944C76.5158 11.3093 76.6038 10.736 76.7798 10.224C76.9611 9.70667 77.2198 9.26667 77.5558 8.904C77.8918 8.54133 78.2971 8.26133 78.7718 8.064C79.2518 7.86667 79.7904 7.768 80.3878 7.768ZM80.3878 15C81.1878 15 81.7851 14.7333 82.1798 14.2C82.5744 13.6613 82.7718 12.912 82.7718 11.952C82.7718 10.9867 82.5744 10.2347 82.1798 9.696C81.7851 9.15733 81.1878 8.888 80.3878 8.888C79.9824 8.888 79.6278 8.95733 79.3238 9.096C79.0251 9.23467 78.7744 9.43467 78.5718 9.696C78.3744 9.95733 78.2251 10.28 78.1238 10.664C78.0278 11.0427 77.9798 11.472 77.9798 11.952C77.9798 12.912 78.1771 13.6613 78.5718 14.2C78.9718 14.7333 79.5771 15 80.3878 15ZM87.4819 4.216L87.4819 11.152L87.8499 11.152C87.9565 11.152 88.0445 11.1387 88.1139 11.112C88.1885 11.08 88.2659 11.0187 88.3459 10.928L90.9059 8.184C90.9805 8.09333 91.0579 8.024 91.1379 7.976C91.2232 7.92267 91.3352 7.896 91.4739 7.896L92.7619 7.896L89.7779 11.072C89.6339 11.2533 89.4792 11.3947 89.3139 11.496C89.4099 11.56 89.4952 11.6347 89.5699 11.72C89.6499 11.8 89.7245 11.8933 89.7939 12L92.9619 16L91.6899 16C91.5672 16 91.4605 15.9813 91.3699 15.944C91.2845 15.9013 91.2099 15.8267 91.1459 15.72L88.4819 12.4C88.4019 12.288 88.3219 12.216 88.2419 12.184C88.1672 12.1467 88.0499 12.128 87.8899 12.128L87.4819 12.128L87.4819 16L86.0499 16L86.0499 4.216L87.4819 4.216Z" fill="#515151"/>
<g clip-path="url(#clip0)">
<path d="M11.9994 2.00333L9.92457 2C7.59358 2 6.08719 3.54552 6.08719 5.93762L6.08719 7.75313L4.00105 7.75313C3.82078 7.75313 3.6748 7.89927 3.6748 8.07954L3.6748 10.71C3.6748 10.8903 3.82095 11.0363 4.00105 11.0363L6.08719 11.0363L6.08719 17.6738C6.08719 17.854 6.23317 18 6.41344 18L9.13525 18C9.31552 18 9.4615 17.8539 9.4615 17.6738L9.4615 11.0363L11.9007 11.0363C12.0809 11.0363 12.2269 10.8903 12.2269 10.71L12.2279 8.07954C12.2279 7.99299 12.1935 7.91009 12.1324 7.84884C12.0713 7.78758 11.9881 7.75313 11.9015 7.75313L9.4615 7.75313L9.4615 6.2141C9.4615 5.47438 9.63777 5.09886 10.6014 5.09886L11.9991 5.09836C12.1792 5.09836 12.3251 4.95222 12.3251 4.77211L12.3251 2.32958C12.3251 2.14964 12.1793 2.00366 11.9994 2.00333Z" fill="#515151"/>
</g>
<defs>
<clipPath id="clip0">
<rect width="16" height="16" fill="white" transform="translate(0 2)"/>
</clipPath>
</defs>
</svg>
