<svg width="16" height="16" viewBox="0 0 16 16" fill="none" xmlns="http://www.w3.org/2000/svg">
<g clip-path="url(#clip0)">
<path d="M15.9726 0.224727C15.9164 0.0887387 15.7837 3.40909e-05 15.6366 0C1.52748 0 0.000209808 5.84874 0.000209808 8.36363C0.000209808 11.6262 2.48459 13.8182 6.18202 13.8182C10.8518 13.8182 11.83 9.37453 12.3551 6.9869C12.8655 4.55649 14.0989 2.33721 15.8933 0.620353C15.9972 0.51658 16.0285 0.360512 15.9726 0.224727Z" fill="#4CAF50"/>
<path d="M0.363858 16C0.163028 16 0.000209808 15.8372 0.000209808 15.6363C0.000209808 13.4741 3.74929 6.53667 9.65984 3.67269C9.84059 3.58514 10.0581 3.66066 10.1457 3.84141C10.2332 4.02216 10.1577 4.23966 9.97696 4.32724C4.00821 7.21962 0.727472 13.9367 0.727472 15.6364C0.727472 15.8372 0.564687 16 0.363858 16Z" fill="#388E3C"/>
</g>
<defs>
<clipPath id="clip0">
<rect width="16" height="16" fill="white"/>
</clipPath>
</defs>
</svg>
