<svg width="130" height="45" viewBox="0 0 130 45" fill="none" xmlns="http://www.w3.org/2000/svg">
<path d="M47.3355 10.2023C47.3355 10.1354 47.3355 10.0685 47.3214 10.0015C47.3073 9.93464 47.3002 9.86068 47.3002 9.77968C47.2885 9.70315 47.2726 9.62732 47.2525 9.55254C47.2367 9.49971 47.2278 9.46449 47.2225 9.44689C47.2172 9.42928 47.189 9.343 47.1519 9.23382C47.1011 9.09207 47.0421 8.95333 46.9754 8.81827C46.9031 8.66683 46.8325 8.53301 46.7654 8.41679C46.6984 8.30058 46.6278 8.18612 46.5519 8.07519C46.476 7.96426 46.4001 7.85509 46.3171 7.74944C46.2342 7.64379 46.1512 7.54166 46.063 7.44129C45.9747 7.34092 45.8865 7.24232 45.7912 7.14547C45.6959 7.04862 45.5988 6.9553 45.5 6.86726C45.4011 6.77921 45.3235 6.69998 45.2564 6.64363L45.124 6.52918C45.0764 6.48868 44.9475 6.38126 44.7428 6.2087C44.4938 6.00145 44.234 5.80748 43.9645 5.62763C43.6644 5.42337 43.4115 5.25902 43.2055 5.13459C42.999 5.00957 42.7908 4.88983 42.579 4.77362C42.3672 4.6574 42.1554 4.54999 41.9383 4.4461C41.7212 4.34221 41.5041 4.24185 41.2835 4.14852C41.0629 4.0552 40.8141 3.95483 40.5334 3.84918C40.2528 3.74353 40.0039 3.65901 39.8027 3.59738L39.4198 3.48116L39.1427 3.40193C39.0103 3.36319 38.7897 3.30156 38.4667 3.21704C38.1437 3.13252 37.7731 3.04095 37.3424 2.93882C36.9118 2.8367 36.4829 2.74865 36.0523 2.66237C35.6216 2.57609 35.2157 2.50038 34.8362 2.43523C34.4567 2.37007 34.1726 2.32077 33.982 2.2926L33.6184 2.23449L33.0554 2.15173C32.7248 2.10243 32.3059 2.05195 31.7988 2.0003C31.2916 1.94865 30.8363 1.90815 30.4327 1.8788C30.0268 1.84945 29.6455 1.82597 29.289 1.80837C28.9325 1.79076 28.666 1.78019 28.4895 1.77667L28.1471 1.76082L27.6176 1.75026C27.3299 1.75026 26.9946 1.73969 26.6116 1.75026H25.4679C25.0849 1.75026 24.6402 1.76082 24.1301 1.77315C23.62 1.78548 23.147 1.79604 22.7023 1.80837L21.7086 1.83126L21.2815 1.84358H21.1703L20.8967 1.85767C20.7679 1.85767 20.6179 1.88056 20.4484 1.89817C20.279 1.91578 20.1202 1.93691 19.9437 1.96508L19.4777 2.03375L19.153 2.08482L19.0153 2.10771L18.7153 2.15525C18.5388 2.18342 18.3164 2.2204 18.0569 2.26795C17.7975 2.31549 17.5486 2.36127 17.3139 2.40705C17.0792 2.45283 16.8815 2.49509 16.7262 2.53031L16.465 2.58842L16.2373 2.64124L15.8155 2.73633L15.2666 2.86135C15.0671 2.90713 14.8659 2.95467 14.6665 3.00398L14.0682 3.15365C13.867 3.20647 13.6675 3.26106 13.4681 3.32973C13.2687 3.3984 13.1292 3.43186 13.0463 3.45827L12.8698 3.51462L12.628 3.59562C12.5009 3.63788 12.3491 3.69422 12.1709 3.76114C11.9926 3.82805 11.8373 3.88792 11.6961 3.93722C11.5549 3.98652 11.4173 4.04815 11.2778 4.1133L10.8631 4.28939L10.4501 4.46547L10.0388 4.64156L9.62761 4.80707L9.29403 4.93738L9.11754 5.00605L8.87221 5.09761C8.73455 5.15044 8.57747 5.21383 8.39744 5.29131C8.21742 5.36878 8.07446 5.43041 7.95621 5.485C7.83796 5.53958 7.72147 5.59593 7.60322 5.65228C7.48497 5.70862 7.34554 5.7861 7.17611 5.87767C7.00667 5.96923 6.82312 6.08544 6.62545 6.21222C6.42777 6.339 6.29187 6.43937 6.19657 6.51333L6.02007 6.64891L5.97242 6.68941L5.893 6.76865C5.85267 6.81341 5.81496 6.86044 5.78004 6.90952C5.74298 6.96234 5.70591 7.01693 5.67062 7.0768C5.63532 7.13666 5.60355 7.19301 5.57178 7.25288C5.54001 7.31275 5.51354 7.37438 5.48883 7.42896C5.46412 7.48355 5.4447 7.5487 5.43058 7.60505C5.41647 7.66139 5.40764 7.68957 5.40058 7.7195C5.39352 7.74944 5.38823 7.78465 5.3847 7.81459C5.38117 7.84452 5.3847 7.88326 5.3847 7.91672C5.38543 7.95449 5.38897 7.99216 5.39529 8.02941C5.40438 8.07624 5.4192 8.12177 5.43941 8.16499C5.46568 8.21804 5.50228 8.26532 5.54707 8.3041C5.57331 8.32623 5.60168 8.3457 5.63179 8.36221L5.68121 8.38686C5.72651 8.40892 5.77307 8.42832 5.82064 8.44497C5.90101 8.47361 5.98367 8.4954 6.06773 8.51012C6.15148 8.52699 6.23649 8.537 6.32188 8.54005C6.38895 8.54005 6.44719 8.54005 6.49837 8.54005C6.54955 8.54005 6.59897 8.53125 6.65369 8.52421C6.71369 8.51553 6.77277 8.50138 6.83018 8.48195L6.89725 8.45729L7.20082 8.3358L7.7656 8.07343L8.36744 7.81987L8.89692 7.59096L9.4264 7.36205L9.95588 7.1349L10.4854 6.91304L11.0148 6.69469L11.449 6.51861L11.6838 6.42881L12.0791 6.2809C12.3033 6.19814 12.5927 6.10481 12.9475 5.98331C13.3022 5.86182 13.6234 5.76673 13.9111 5.68045C14.1988 5.59417 14.4671 5.51669 14.7195 5.4445L15.2895 5.28778L15.5349 5.22263L15.6849 5.18213L16.0749 5.10642C16.2455 5.06416 16.4485 5.01838 16.6838 4.96907C16.9168 4.91977 17.1515 4.87399 17.3898 4.82997C17.6281 4.78594 17.8469 4.74545 18.0552 4.71023L18.5229 4.63099L18.7241 4.59754L18.86 4.57464L19.19 4.52534C19.3454 4.50245 19.5271 4.4778 19.7389 4.45139L20.3814 4.37567L20.9991 4.30524H21.0768C21.0768 4.33517 21.0573 4.36687 21.0468 4.40032L20.8508 4.99901C20.7873 5.19446 20.7344 5.35998 20.692 5.4938C20.6496 5.62763 20.6179 5.72799 20.5985 5.79491C20.579 5.86182 20.5649 5.90232 20.5596 5.92169L20.512 6.08016C20.4908 6.15588 20.452 6.28442 20.399 6.46579C20.3461 6.64715 20.2861 6.86021 20.2225 7.10145L20.016 7.82691C19.9466 8.06169 19.876 8.30469 19.8042 8.5559C19.7319 8.80066 19.6489 9.06831 19.5571 9.35884C19.4654 9.64938 19.3648 9.96457 19.2571 10.2974C19.1494 10.6302 19.0541 10.9225 18.9712 11.1778C18.8882 11.4331 18.807 11.6796 18.7241 11.9297L18.4594 12.7467C18.364 13.0408 18.2952 13.2609 18.2476 13.4088C18.1999 13.5567 18.1734 13.65 18.1593 13.6923C18.1452 13.7345 18.1046 13.8684 18.0428 14.0673C17.9811 14.2663 17.8946 14.5551 17.7746 14.9477C17.6545 15.3404 17.5292 15.756 17.3951 16.2015C17.261 16.647 17.1198 17.066 16.9839 17.5098C16.848 17.9535 16.7403 18.3162 16.6538 18.5944L16.4773 19.1755C16.442 19.2882 16.4103 19.3886 16.3856 19.4749C16.3608 19.5611 16.3432 19.6122 16.3326 19.6509L16.3167 19.6932C16.3067 19.7087 16.2985 19.7252 16.292 19.7425L16.2532 19.8482L15.5931 20.0242H15.5754H15.5613L15.2083 20.1088L14.8677 20.1898C14.76 20.2144 14.67 20.2373 14.5959 20.2567L14.3859 20.313L13.7487 20.4891L12.4992 20.8237L11.3043 21.1301L10.5595 21.3343L10.233 21.4241L9.80763 21.5456C9.58172 21.609 9.31345 21.6935 8.99929 21.7974C8.68513 21.9013 8.40627 21.9981 8.15918 22.0879C7.91209 22.1777 7.665 22.264 7.41967 22.3644C7.17434 22.4648 6.93078 22.5563 6.68899 22.6567C6.44719 22.7571 6.20363 22.8592 5.9636 22.9648C5.72356 23.0705 5.48353 23.1761 5.24527 23.2853L4.53929 23.6181L3.96392 23.8963L3.65506 24.0478L3.43444 24.1605C3.31442 24.2203 3.17323 24.2996 3.01262 24.3946C2.85201 24.4897 2.71082 24.5707 2.58727 24.6588C2.46372 24.7468 2.34194 24.8243 2.22193 24.9123C2.10191 25.0004 1.98543 25.0884 1.86894 25.1835C1.75246 25.2786 1.64303 25.3754 1.5336 25.4758C1.42418 25.5762 1.31652 25.6818 1.21415 25.7892C1.11178 25.8966 1.00765 26.0076 0.91058 26.1238C0.813508 26.24 0.734086 26.3351 0.674078 26.4143L0.555827 26.571L0.486995 26.6714C0.456403 26.716 0.417574 26.7794 0.370509 26.8616C0.312684 26.963 0.261968 27.0683 0.218724 27.1768C0.169693 27.2971 0.129004 27.4207 0.0969437 27.5465C0.066582 27.6568 0.0447503 27.7693 0.031641 27.8829C0.0210514 27.9744 0.0122267 28.059 0.00869686 28.1558C0.00444762 28.2681 0.0085772 28.3805 0.0210514 28.4921C0.0302877 28.6036 0.0479878 28.7143 0.0739995 28.8232C0.0969437 28.9112 0.121653 28.9992 0.151657 29.082C0.183499 29.1758 0.22244 29.267 0.268143 29.3549C0.310501 29.4342 0.35639 29.5116 0.405808 29.5891C0.46166 29.6738 0.524221 29.7539 0.592891 29.8286C0.656429 29.8955 0.723496 29.9624 0.794094 30.0258C0.873528 30.0954 0.958527 30.1584 1.04824 30.2142C1.1312 30.2653 1.22474 30.3128 1.30946 30.3586C1.41094 30.4093 1.51665 30.4511 1.62538 30.4836C1.72598 30.5136 1.80187 30.5347 1.86188 30.547C1.92189 30.5593 1.96072 30.5681 1.99955 30.5734L2.43019 30.6474C2.68434 30.692 3.00674 30.7384 3.39738 30.7865C3.78802 30.8346 4.19983 30.881 4.63283 30.9256C5.06348 30.9679 5.42705 30.9972 5.72356 31.0136L6.21951 31.0401H6.39601C6.48249 31.0401 6.62545 31.0489 6.82841 31.0524C7.03138 31.0559 7.27141 31.0524 7.53439 31.0524C7.79737 31.0524 8.07446 31.0401 8.3445 31.0277C8.61453 31.0154 8.86515 31.0031 9.09989 30.9907L9.62937 30.9591L9.85528 30.945L10.1536 30.9256C10.3301 30.915 10.5507 30.8957 10.8313 30.8692C11.1119 30.8428 11.3731 30.8147 11.6255 30.7883L12.388 30.7055L12.741 30.6668C12.7074 30.7794 12.6686 30.9133 12.6209 31.07C12.5303 31.3705 12.4421 31.664 12.3562 31.9504C12.2697 32.2427 12.1956 32.491 12.1373 32.6917C12.0791 32.8925 12.035 33.0439 12.0067 33.146C11.9785 33.2481 11.9591 33.3098 11.952 33.3397L11.6079 34.5124C11.4067 35.2168 11.1596 36.0942 10.8666 37.1449C10.5736 38.1955 10.3718 38.9198 10.2612 39.3178C10.1494 39.7181 10.0859 39.9487 10.0706 40.0098L10.0353 40.133C10.0177 40.1982 9.99295 40.295 9.95941 40.4236C9.92588 40.5521 9.89058 40.693 9.85352 40.8426C9.81645 40.9923 9.77939 41.1596 9.7388 41.348C9.6982 41.5364 9.6682 41.7002 9.64702 41.8217C9.62584 41.9432 9.61525 42.0118 9.61172 42.0312C9.60819 42.0506 9.5976 42.1228 9.57819 42.246C9.55877 42.3693 9.53936 42.5348 9.51994 42.7303C9.50053 42.9257 9.48465 43.0948 9.47229 43.2585C9.45994 43.4223 9.44935 43.5579 9.44229 43.6917C9.43523 43.8255 9.42817 43.9259 9.42464 43.9945C9.42111 44.0632 9.42464 44.1037 9.42464 44.1231V44.1741C9.42564 44.2193 9.43155 44.2641 9.44229 44.308C9.44229 44.3432 9.4617 44.3819 9.47582 44.4224C9.48993 44.4663 9.50825 44.5088 9.53053 44.5492C9.55171 44.5856 9.57113 44.6173 9.58878 44.6443C9.60795 44.6707 9.62857 44.6959 9.65055 44.72C9.673 44.7468 9.69781 44.7716 9.72468 44.794C9.75271 44.8178 9.78283 44.839 9.81469 44.8574L9.85352 44.8785L9.94 44.9172C10.005 44.9432 10.0724 44.9626 10.1412 44.9753C10.2192 44.9894 10.2984 44.9965 10.3777 44.9965C10.4554 44.9967 10.5328 44.989 10.6089 44.9736C10.6837 44.9595 10.757 44.9382 10.8278 44.9102C10.8999 44.8839 10.9691 44.8503 11.0343 44.8098C11.1001 44.7698 11.1621 44.7238 11.2196 44.6725C11.2783 44.6187 11.3321 44.5598 11.3802 44.4964C11.5028 44.2707 11.6061 44.035 11.6891 43.792C11.7473 43.616 11.8338 43.3589 11.9503 43.0102C12.0667 42.6616 12.1885 42.2918 12.3191 41.8939C12.7745 40.5016 13.0533 39.6423 13.1557 39.316C13.2563 38.992 13.3163 38.8036 13.3322 38.7543C13.3481 38.705 13.394 38.5588 13.4769 38.2912C13.5599 38.0235 13.6623 37.6802 13.784 37.2646C13.9058 36.8491 14.0152 36.4775 14.1105 36.1465C14.2059 35.8154 14.287 35.5038 14.3771 35.2132C14.4671 34.9227 14.52 34.7044 14.5535 34.56L14.6312 34.28C14.6418 34.2448 14.6789 34.1039 14.7424 33.8803C14.8059 33.6567 14.8871 33.352 14.9824 32.9999C15.0777 32.6477 15.1589 32.3237 15.2383 32.0384C15.3178 31.7532 15.3848 31.4891 15.4519 31.2408C15.5084 31.033 15.5543 30.8693 15.586 30.7495V30.7354L15.669 30.3727L16.2532 30.2142L16.4844 30.1473L16.7897 30.0645L16.9344 30.0276L17.3174 29.929L18.2123 29.7036L19.3224 29.4254L20.3478 29.1665C20.6902 29.0802 21.0309 28.9904 21.3733 28.9024L22.2257 28.6752L22.7799 28.5238L23.0764 28.4411L23.23 28.397C23.3041 28.3759 23.4065 28.346 23.5141 28.309C23.6218 28.272 23.7736 28.2227 23.9448 28.1628C24.116 28.103 24.2872 28.0413 24.4566 27.9762L24.9596 27.779L25.4997 27.5624L25.9321 27.3863L26.1174 27.3141L26.481 27.1715L27.1693 26.9056L27.8982 26.6256L28.5477 26.3756L29.1972 26.122L29.845 25.8649L30.4909 25.6043L31.1351 25.3349L31.6646 25.1095L31.9435 24.9863L32.2771 24.8349C32.4535 24.7521 32.6742 24.6482 32.9142 24.5285C33.1542 24.4087 33.3501 24.3084 33.509 24.2256C33.6678 24.1428 33.8249 24.0601 33.9802 23.9756L34.5662 23.6586L35.3233 23.2395L35.9305 22.9015L36.1899 22.7571L36.6276 22.5158C36.8694 22.3802 37.1571 22.22 37.4642 22.0316C37.7713 21.8432 38.0908 21.6565 38.4014 21.4646C38.712 21.2727 39.0721 21.0367 39.478 20.7603C39.8839 20.4838 40.2599 20.2197 40.604 19.9626C40.9482 19.7055 41.2041 19.5083 41.3735 19.371L41.6948 19.1104L41.8818 18.9572L42.2348 18.6772L42.669 18.325L43.1049 17.9729C43.2497 17.8549 43.3944 17.7369 43.5373 17.6207C43.6803 17.5045 43.8233 17.3759 43.9627 17.2509C44.1021 17.1259 44.2433 16.9974 44.3792 16.8671C44.5151 16.7368 44.6493 16.6012 44.7816 16.4621C44.914 16.323 45.0252 16.1979 45.1187 16.087C45.2123 15.9761 45.2793 15.8933 45.3252 15.837L45.4347 15.6943L45.5494 15.5429L45.8141 15.1784C45.9306 15.0147 46.0524 14.8368 46.1777 14.6502C46.303 14.4635 46.4248 14.2628 46.5413 14.0656C46.6578 13.8684 46.7566 13.6905 46.8378 13.5373C46.919 13.3841 46.9719 13.2749 47.0037 13.2098L47.0672 13.076C47.076 13.0584 47.0884 13.0284 47.1043 12.9897C47.1291 12.9321 47.1508 12.8734 47.1696 12.8136C47.1908 12.7414 47.2084 12.6692 47.2243 12.597C47.2402 12.5248 47.2508 12.4526 47.2596 12.3787C47.2684 12.3047 47.2755 12.2361 47.2808 12.1639C47.2861 12.0917 47.2914 12.0212 47.2931 11.9508C47.2949 11.8804 47.2931 11.8099 47.2931 11.7413C47.2931 11.6726 47.2931 11.5951 47.2931 11.5106C47.2931 11.4261 47.2931 11.3609 47.2931 11.3046C47.2931 11.2482 47.2931 11.2112 47.2931 11.1954C47.2931 11.1813 47.2931 11.1391 47.2931 11.0704C47.2931 11.0017 47.2931 10.9189 47.302 10.8274C47.3108 10.7358 47.302 10.6513 47.302 10.5879C47.302 10.5245 47.302 10.4576 47.302 10.3925C47.302 10.3273 47.339 10.2674 47.3355 10.2023ZM15.0177 23.4984L14.6647 24.6042C14.5447 24.9845 14.4371 25.3279 14.3382 25.6343C14.2394 25.9407 14.1723 26.1625 14.13 26.2911C14.0876 26.4196 14.0647 26.4971 14.0558 26.5217L14.0258 26.6186C14.0064 26.6732 13.9799 26.7577 13.9429 26.8704C13.9058 26.9831 13.8705 27.0817 13.8387 27.1697L13.7381 27.4479C13.7028 27.5413 13.6728 27.624 13.6446 27.6874L13.6234 27.7402C13.6234 27.7402 13.6234 27.7402 13.6234 27.7508L13.5881 27.8494L13.2351 27.8793C13.2216 27.8785 13.2081 27.8785 13.1945 27.8793C11.885 28.0096 10.6242 28.1171 9.41228 28.2016L8.90398 28.2403L8.50334 28.2685L8.19624 28.2879H8.0321H7.93856H7.72147C7.62617 28.2879 7.52204 28.2879 7.41084 28.2879C7.29965 28.2879 7.18846 28.2879 7.07727 28.2879C6.96608 28.2879 6.85312 28.2879 6.74017 28.2773L6.44542 28.2614L6.18951 28.2456L5.91418 28.2262L5.59472 28.2033H5.50295L5.29468 28.1857L4.99994 28.1734L4.68049 28.1382L4.35927 28.0977L4.03628 28.0554L3.58093 27.9938C3.38502 27.9674 3.36561 27.8635 3.52092 27.6786C3.70446 27.4708 3.91451 27.2879 4.14571 27.1345C4.41222 26.9408 4.58871 26.8228 4.70873 26.7647L5.02994 26.5887L5.33351 26.4284C5.4347 26.3756 5.55237 26.3169 5.6865 26.2523L6.09773 26.0498L6.51249 25.8544L6.90254 25.6783L7.17787 25.555L7.29612 25.5022L7.56616 25.3842C7.70382 25.3226 7.87326 25.2522 8.07446 25.1712C8.27566 25.0902 8.45745 25.018 8.61983 24.9564L9.10695 24.7803L9.5976 24.6042C9.76174 24.5461 9.92588 24.4915 10.0918 24.4369L10.5877 24.2767L11.0872 24.1235L11.5885 23.9756C11.7555 23.9263 11.9232 23.8787 12.0915 23.8329L12.5962 23.6938L13.1028 23.5582L13.6746 23.4086L14.2147 23.2712L14.5024 23.199L14.5659 23.1814L14.7124 23.1445L14.9436 23.0846L15.1713 23.0247L15.0177 23.4984ZM44.7799 10.9665C44.7799 11.0299 44.7693 11.0721 44.7675 11.095C44.7657 11.1179 44.7675 11.1549 44.7516 11.22C44.7421 11.2887 44.7292 11.3569 44.7128 11.4243C44.6916 11.5088 44.6722 11.5863 44.651 11.6515C44.6298 11.7166 44.6087 11.7818 44.584 11.8469C44.5592 11.9121 44.5345 11.9772 44.5063 12.0406C44.4781 12.104 44.4498 12.1691 44.4198 12.2325C44.3898 12.2959 44.3563 12.3593 44.3228 12.4227C44.2892 12.4861 44.2539 12.5512 44.2186 12.6146L44.0933 12.8295L43.9698 13.032L43.9027 13.1411L43.7968 13.3172C43.7438 13.3982 43.6768 13.4933 43.5921 13.6095C43.5073 13.7257 43.4262 13.8261 43.3538 13.9141C43.2814 14.0022 43.2091 14.0902 43.1332 14.1747C43.0573 14.2593 42.9796 14.3508 42.9002 14.4248C42.8208 14.4987 42.7414 14.5885 42.6584 14.6678C42.5755 14.747 42.4925 14.8262 42.4078 14.9037C42.3231 14.9812 42.2313 15.0587 42.1466 15.1326C42.0619 15.2066 41.9577 15.2929 41.8448 15.3844C41.7318 15.476 41.6365 15.5605 41.5553 15.6133L41.3965 15.7331L41.1847 15.8933L40.7876 16.1944L40.3693 16.5149L39.9969 16.7984L39.6263 17.0801L39.2538 17.3601L38.8797 17.6365C38.7544 17.7263 38.6308 17.8126 38.5037 17.9077L38.0784 18.2088C37.9219 18.318 37.7878 18.4096 37.676 18.4835L37.4589 18.6279C37.4218 18.6508 37.3371 18.7054 37.2083 18.7917L36.6241 19.1685C36.3652 19.3363 36.1234 19.4895 35.8987 19.6281L35.221 20.0454C34.9962 20.1804 34.7697 20.3142 34.5415 20.4468C34.3138 20.5789 34.1214 20.6863 33.9696 20.7726L33.449 21.0543C33.2566 21.1565 33.096 21.2427 32.9583 21.3097L32.6918 21.4435L32.4747 21.5509L32.0829 21.7446L31.8252 21.8714L31.4722 22.0474L30.7769 22.3873L30.0797 22.7218L29.3737 23.0476C29.139 23.1533 28.9043 23.2589 28.6678 23.361C28.4312 23.4632 28.1965 23.5653 27.9618 23.6639C27.727 23.7625 27.487 23.8576 27.247 23.9492C27.0069 24.0407 26.7687 24.1252 26.5269 24.2186C26.2851 24.3119 26.0733 24.377 25.8915 24.4351L25.4785 24.5672L25.2491 24.6376L24.8767 24.7486C24.6849 24.8049 24.396 24.8924 24.0101 25.0109L22.7746 25.3895L21.458 25.798L20.0602 26.233L18.8688 26.6027L18.3393 26.7647L18.2158 26.8035L17.9334 26.8845L17.5628 26.9848L17.1798 27.0834L16.9327 27.1468C17.0139 26.8792 17.1286 26.4953 17.2857 25.9988C17.4692 25.393 17.6169 24.9041 17.7287 24.532C17.8399 24.1605 17.9052 23.9597 17.9052 23.9298C17.9052 23.8998 17.9193 23.8787 17.9422 23.803C17.9652 23.7273 17.9987 23.6164 18.0428 23.4667C18.087 23.317 18.1293 23.1744 18.1664 23.0423C18.2034 22.9103 18.2281 22.8152 18.244 22.7571C18.2599 22.699 18.267 22.669 18.2687 22.6585C18.2705 22.6479 18.2687 22.6426 18.2687 22.6268C18.2687 22.6109 18.2687 22.6004 18.2811 22.581V22.5546C18.2811 22.5458 18.2811 22.537 18.2811 22.5264L18.3005 22.4436L19.4424 22.3257L19.6189 22.3028L20.129 22.2323L20.6373 22.1637L21.0609 22.1091L21.4403 22.0633C21.5798 22.0474 21.698 22.0334 21.7933 22.0246L21.9839 22.0069L22.2081 21.9858L22.7376 21.9418C22.9688 21.9242 23.2176 21.9048 23.4841 21.8872C23.7506 21.8696 24.0136 21.8502 24.2836 21.8344L25.1361 21.7851L25.8633 21.7428L26.1898 21.7235H26.3222L26.6328 21.7058L27.074 21.6847L27.3088 21.6741H27.3476H27.5435C27.7006 21.6741 27.8665 21.6636 28.043 21.6583C28.2496 21.6494 28.454 21.6115 28.6501 21.5456C28.8099 21.5416 28.9664 21.4993 29.1065 21.4224C29.2465 21.3455 29.366 21.2362 29.4549 21.1036C29.5609 20.9809 29.6366 20.8351 29.6758 20.6779C29.715 20.5207 29.7168 20.3565 29.6808 20.1986C29.6043 19.891 29.3778 19.6997 29.0013 19.6245C28.6248 19.5494 27.8412 19.4643 26.6504 19.3692C25.4409 19.2917 24.2695 19.253 23.1364 19.253C21.9666 19.2547 20.7978 19.3188 19.6348 19.4449H19.543L19.3665 19.4625L19.2465 19.4749C20.7608 14.5034 22.3116 9.41108 23.8989 4.19782H26.248H26.7581H26.9875H27.2134H27.7429H28.3942H28.9925C29.1919 4.19782 29.3896 4.19782 29.5891 4.20839L30.085 4.22248L30.5298 4.24185C30.6939 4.24185 30.8333 4.25769 30.9463 4.2665L31.1687 4.28234L31.5217 4.31052C31.6982 4.3246 31.9223 4.34397 32.1817 4.37039C32.4412 4.3968 32.6742 4.42321 32.8877 4.44962C33.1013 4.47604 33.299 4.50069 33.5054 4.53062C33.7119 4.56056 33.9167 4.59225 34.1214 4.62571C34.3261 4.65916 34.5291 4.69614 34.7321 4.73664C34.935 4.77714 35.138 4.81764 35.341 4.86166C35.5439 4.90568 35.7452 4.95322 35.9446 5.00429C36.144 5.05535 36.3717 5.11698 36.6223 5.18037C36.8729 5.24376 37.0794 5.31596 37.2489 5.37406L37.5825 5.48852L37.6936 5.52726L37.9019 5.59769L38.1561 5.68045L38.4102 5.75969L38.6626 5.83717L38.9132 5.91464L39.1603 5.99388L39.4039 6.07488L39.6457 6.16116C39.7233 6.18933 39.8027 6.21927 39.8804 6.25096L40.0675 6.32668L40.1699 6.37246L40.3799 6.46579C40.4875 6.51333 40.6164 6.5732 40.7699 6.64187C40.9235 6.71054 41.0576 6.78097 41.1776 6.84084L41.5306 7.02749C41.6483 7.09088 41.7659 7.15603 41.8836 7.22295C41.9983 7.28986 42.1113 7.35677 42.2242 7.42896C42.3372 7.50116 42.4466 7.57159 42.5543 7.64555C42.6619 7.7195 42.7696 7.79698 42.8755 7.87622C42.9814 7.95545 43.0961 8.0523 43.2285 8.15443C43.3609 8.25656 43.4562 8.34988 43.5338 8.42912C43.6115 8.50836 43.6733 8.56647 43.6962 8.58936L43.7862 8.68092L43.9398 8.8482C44.0015 8.91863 44.0598 8.98907 44.1163 9.0595C44.1727 9.12993 44.2257 9.20213 44.2769 9.27608C44.328 9.35004 44.3757 9.42223 44.4198 9.49619C44.4639 9.57014 44.5045 9.64586 44.5416 9.72334C44.5787 9.80081 44.6122 9.87653 44.6422 9.95577C44.6722 10.035 44.6952 10.1142 44.7163 10.197C44.7382 10.2786 44.7547 10.3615 44.7657 10.4453C44.7788 10.5322 44.7865 10.6198 44.7887 10.7076C44.7913 10.794 44.7883 10.8805 44.7799 10.9665ZM129.998 23.2149C129.998 23.1973 129.998 23.1268 129.998 23.0071C129.988 22.8659 129.928 22.7327 129.83 22.6303C129.733 22.5091 129.593 22.4287 129.439 22.4049C129.309 22.3823 129.176 22.3883 129.049 22.4225L128.847 22.4841C128.819 22.4951 128.793 22.5093 128.768 22.5264L128.717 22.5616L128.681 22.5898L128.475 22.7659C128.355 22.8627 128.175 23.0089 127.945 23.2061L127.185 23.84L126.479 24.4334L125.925 24.8965C125.757 25.0356 125.612 25.1518 125.494 25.2487L125.291 25.4124L125.236 25.4582L124.995 25.6466C124.855 25.7558 124.679 25.8826 124.465 26.0252C124.251 26.1678 124.061 26.2911 123.888 26.3985C123.715 26.5059 123.535 26.608 123.358 26.7084C123.182 26.8088 123.005 26.9038 122.829 26.9972C122.652 27.0905 122.465 27.1732 122.28 27.2701C122.095 27.3669 121.885 27.4462 121.648 27.5554C121.412 27.6645 121.212 27.7438 121.045 27.8107L120.757 27.9234L120.711 27.941L120.663 27.9586C120.636 27.9687 120.608 27.9764 120.579 27.9815C120.564 27.9848 120.549 27.9846 120.535 27.9809C120.52 27.9773 120.507 27.9702 120.496 27.9603C120.485 27.9521 120.476 27.9417 120.47 27.9299C120.464 27.9181 120.46 27.9051 120.459 27.8917C120.455 27.8507 120.455 27.8094 120.459 27.7684V27.7543C120.459 27.7543 120.459 27.7367 120.459 27.7103C120.459 27.6839 120.471 27.6452 120.483 27.5976C120.483 27.58 120.492 27.5624 120.497 27.5448C121.762 26.4495 122.837 25.4517 123.722 24.5514C124.607 23.651 125.093 22.7847 125.182 21.9524C125.266 21.1236 125.017 20.505 124.435 20.0964L124.417 20.0788C124.379 20.046 124.339 20.0165 124.296 19.9908C124.251 19.9661 124.204 19.9449 124.156 19.9274C124.118 19.9135 124.078 19.9035 124.038 19.8975H123.983H123.966H123.883C123.831 19.8975 123.761 19.8975 123.667 19.8851C123.572 19.8799 123.477 19.8799 123.381 19.8851C123.294 19.889 123.207 19.8996 123.122 19.9168C123.048 19.9333 122.986 19.9491 122.937 19.9644C122.896 19.9766 122.856 19.9913 122.817 20.0084L122.762 20.033L122.727 20.0507L122.626 20.1035C122.575 20.1299 122.501 20.1704 122.404 20.2285C122.307 20.2866 122.197 20.3553 122.075 20.4416C121.954 20.5278 121.837 20.6176 121.722 20.7092C121.608 20.8008 121.502 20.8994 121.396 20.9997C121.29 21.1001 121.191 21.2022 121.092 21.3079C120.993 21.4135 120.898 21.5192 120.805 21.6266C120.711 21.734 120.609 21.859 120.499 21.9981C120.39 22.1372 120.296 22.2552 120.222 22.3503L120.097 22.5264L120.065 22.5704L119.929 22.7588C119.851 22.868 119.765 23.0036 119.668 23.1691C119.571 23.3346 119.491 23.4825 119.417 23.6164C119.343 23.7502 119.281 23.8858 119.218 24.0213C119.154 24.1569 119.094 24.2943 119.041 24.4316C118.988 24.569 118.927 24.7063 118.865 24.8454C118.803 24.9845 118.75 25.1395 118.688 25.3138C118.653 25.4089 118.62 25.4987 118.59 25.5832L115.324 30.0276L115.107 30.2935L115.035 30.3797C114.938 30.4977 114.83 30.6298 114.712 30.7777C114.594 30.9256 114.493 31.0541 114.414 31.1616L114.278 31.3376L114.218 31.4186L113.881 31.8747C113.685 32.1406 113.392 32.542 112.998 33.0756C112.605 33.6091 112.195 34.1849 111.763 34.7994C111.33 35.414 110.854 36.0637 110.351 36.754C109.848 37.4442 109.456 38.0006 109.152 38.4197L108.665 39.0906L108.618 39.1558C108.618 39.1558 108.595 39.1892 108.558 39.2385C108.521 39.2878 108.478 39.3442 108.425 39.4146C108.385 39.4697 108.333 39.5159 108.273 39.5502C108.222 39.5766 108.198 39.522 108.198 39.3847C108.198 39.2473 108.198 39.0624 108.198 38.8247C108.198 38.587 108.198 38.3493 108.198 38.1204C108.198 37.8915 108.198 37.6467 108.198 37.416C108.198 37.1854 108.206 36.9459 108.215 36.7117C108.224 36.4775 108.235 36.2416 108.251 36.0074C108.266 35.7732 108.284 35.5408 108.305 35.303C108.326 35.0653 108.353 34.8681 108.378 34.6938C108.402 34.5195 108.422 34.3909 108.436 34.3046C108.45 34.2184 108.459 34.1603 108.464 34.1286L108.478 34.0564L108.563 33.5897C108.616 33.2998 108.682 32.9406 108.761 32.5121C108.839 32.0836 108.911 31.6945 108.976 31.3447C109.039 30.9925 109.092 30.7125 109.129 30.4977L109.193 30.1455L109.202 30.091C109.202 30.0751 109.218 30.0082 109.237 29.8937C109.257 29.7793 109.288 29.605 109.327 29.3743C109.366 29.1436 109.581 28.1716 109.975 26.4583C110.368 24.7451 110.6 23.759 110.67 23.4984C110.741 23.2378 110.81 22.9983 110.873 22.7764C110.937 22.5546 110.99 22.3697 111.034 22.2218C111.078 22.0739 111.133 21.889 111.196 21.6671C111.26 21.4452 111.341 21.1864 111.429 20.8888C111.517 20.5912 111.606 20.3148 111.678 20.0559C111.75 19.7971 111.812 19.5999 111.855 19.4696C111.897 19.3393 111.913 19.2653 111.918 19.246L111.932 19.2002C111.932 19.1861 111.966 19.0857 112.02 18.8938C112.075 18.7019 112.16 18.4166 112.269 18.0345C112.379 17.6524 112.492 17.2685 112.601 16.8864L112.848 16.0254C112.901 15.8334 112.931 15.7313 112.935 15.719V15.6943C112.935 15.6943 112.935 15.682 112.935 15.6662C112.935 15.6503 112.944 15.6362 112.949 15.6221C112.954 15.6081 112.959 15.594 112.961 15.5852C112.962 15.5787 112.962 15.5722 112.961 15.5658C112.961 15.5658 113.109 15.1344 113.399 14.2821L114.671 14.2575H114.897H115.266C115.43 14.2575 115.603 14.2469 115.796 14.2381L116.385 14.2135C116.592 14.2029 116.758 14.1959 116.885 14.1923H117.089H117.148L117.481 14.1818L118.364 14.1536L119.615 14.1131L121.027 14.0673L122.238 14.0251L122.739 14.0039H122.801L123.127 13.9898C123.332 13.9898 123.583 13.967 123.881 13.9458L124.694 13.8842C124.936 13.8648 125.139 13.849 125.302 13.8331L125.55 13.812H125.619C125.679 13.8059 125.738 13.7953 125.796 13.7803C125.856 13.7671 125.915 13.7494 125.972 13.7275L126.094 13.6747C126.133 13.655 126.171 13.6333 126.207 13.6095C126.243 13.586 126.277 13.5589 126.308 13.5285L126.35 13.481L126.364 13.4634C126.376 13.4499 126.387 13.4358 126.398 13.4211C126.416 13.3952 126.432 13.3681 126.447 13.3401C126.469 13.3001 126.486 13.2583 126.5 13.2151C126.518 13.1642 126.528 13.1106 126.528 13.0566C126.53 13.003 126.527 12.9493 126.518 12.8964C126.511 12.8441 126.495 12.7934 126.47 12.7467C126.447 12.7011 126.421 12.6575 126.391 12.6164C126.362 12.576 126.328 12.5393 126.29 12.5072C126.252 12.4763 126.211 12.4475 126.17 12.4209C126.123 12.383 126.071 12.3511 126.016 12.3259C125.959 12.3047 125.9 12.2899 125.84 12.2818C125.802 12.2755 125.764 12.2714 125.725 12.2695H114.121C114.237 11.942 114.407 11.4736 114.626 10.8608C114.844 10.2481 115.099 9.54725 115.384 8.74783C115.67 7.94841 115.972 7.10849 116.292 6.21399C116.611 5.31948 116.869 4.59753 117.061 4.04991C117.253 3.50229 117.359 3.20295 117.377 3.15365L117.407 3.06913L117.43 3.00398C117.441 2.96876 117.455 2.92122 117.467 2.86487C117.479 2.80852 117.494 2.74865 117.504 2.68879C117.515 2.62892 117.522 2.57433 117.529 2.5127C117.536 2.45107 117.543 2.39825 117.546 2.33662C117.55 2.27499 117.546 2.2116 117.559 2.1306C117.571 2.0496 117.559 1.9686 117.559 1.88936C117.559 1.81013 117.559 1.75378 117.559 1.72209V1.65165C117.559 1.65165 117.559 1.627 117.559 1.59883C117.556 1.5654 117.549 1.53237 117.539 1.50022C117.529 1.46407 117.516 1.42875 117.501 1.39457C117.482 1.35701 117.462 1.32055 117.439 1.2854C117.413 1.24373 117.383 1.2048 117.349 1.16918C117.315 1.13397 117.287 1.10579 117.262 1.08466C117.237 1.06231 117.21 1.04172 117.181 1.02303C117.157 1.00589 117.131 0.991151 117.103 0.979011L117.063 0.961403H117.042L116.991 0.943795C116.966 0.943795 116.927 0.926186 116.876 0.91386C116.818 0.901302 116.759 0.893645 116.699 0.890969C116.63 0.887409 116.56 0.890949 116.491 0.901534C116.423 0.910714 116.357 0.926038 116.292 0.947316C116.228 0.968581 116.166 0.995084 116.106 1.02655C116.045 1.05833 115.986 1.09483 115.93 1.13573C115.87 1.18356 115.814 1.23596 115.762 1.29244C115.711 1.34566 115.666 1.40476 115.628 1.46852L115.577 1.55833V1.57594L115.552 1.61996L115.487 1.74322L115.388 1.9193C115.353 1.98445 115.316 2.05664 115.277 2.13412C115.238 2.2116 115.208 2.27851 115.187 2.32957L115.155 2.41409L115.123 2.49862L114.661 3.74177C114.373 4.51771 113.922 5.73445 113.309 7.39199C112.696 9.04952 112.266 10.2158 112.02 10.8908L111.517 12.2695H103.575C103.621 12.1216 103.699 11.898 103.806 11.5986L104.336 10.1072C104.587 9.41226 104.854 8.66742 105.139 7.87269C105.424 7.07797 105.735 6.22866 106.073 5.32476C106.391 4.43025 106.648 3.70949 106.842 3.16245C107.036 2.61542 107.142 2.31666 107.158 2.26618L107.188 2.1799C107.196 2.15918 107.203 2.13802 107.209 2.11651C107.222 2.07954 107.234 2.03375 107.248 1.97565C107.262 1.91754 107.275 1.86119 107.283 1.79956C107.292 1.73793 107.303 1.68511 107.31 1.62348C107.317 1.56185 107.322 1.51078 107.327 1.44739C107.333 1.384 107.336 1.32237 107.34 1.24138C107.343 1.16038 107.34 1.07762 107.34 0.998381C107.34 0.919143 107.34 0.862796 107.34 0.822297C107.34 0.781797 107.34 0.771232 107.34 0.76595V0.771232C107.34 0.771232 107.34 0.746581 107.34 0.718407C107.338 0.684279 107.331 0.650566 107.32 0.618039C107.311 0.582295 107.298 0.547519 107.282 0.51415C107.264 0.475831 107.243 0.43877 107.22 0.403217C107.195 0.362063 107.165 0.323697 107.132 0.288763C107.098 0.253546 107.07 0.225372 107.045 0.202481C107.019 0.180543 106.991 0.159973 106.962 0.140852C106.937 0.124369 106.911 0.109659 106.884 0.0968311L106.844 0.0792227H106.824C106.808 0.0721449 106.791 0.0662604 106.773 0.0616143C106.749 0.0616143 106.708 0.0422451 106.657 0.0299192C106.599 0.0179533 106.54 0.010885 106.48 0.00878914C106.411 0.00260414 106.341 0.00260414 106.272 0.00878914C106.204 0.0195891 106.138 0.0360823 106.073 0.0580926C106.008 0.0793341 105.946 0.105836 105.886 0.13733C105.824 0.169041 105.765 0.205545 105.709 0.246502C105.647 0.293821 105.588 0.345609 105.533 0.401456C105.482 0.455019 105.438 0.514084 105.4 0.57754L105.349 0.667343L105.34 0.684951L105.315 0.730733L105.248 0.852231L105.15 1.02831C105.114 1.09288 105.077 1.16507 105.038 1.2449C105 1.32237 104.971 1.38753 104.95 1.43859L104.918 1.52487C104.906 1.55227 104.895 1.58051 104.887 1.60939C104.867 1.66046 104.71 2.07601 104.424 2.85078C104.138 3.62555 103.685 4.84405 103.072 6.50276C102.46 8.16147 101.978 9.46449 101.632 10.4153C101.286 11.3662 101.09 11.898 101.05 12.0001C101.009 12.1022 100.979 12.1762 100.961 12.2255L100.268 12.2114L99.8953 12.2061L99.5424 12.1885C99.38 12.1885 99.2476 12.1744 99.147 12.1727H98.9811H98.9317H98.6352L97.8568 12.1498L96.7432 12.1251L95.483 12.0917C95.0382 12.0917 94.6782 12.0811 94.4064 12.0811H93.6298H92.9485L91.9778 12.1022L91.0724 12.1234L90.3664 12.141H89.8211H89.5634H89.4487C89.3576 12.1454 89.2674 12.1614 89.1804 12.1885C89.1349 12.2015 89.091 12.2198 89.0498 12.2431C89.0075 12.2668 88.9668 12.2933 88.928 12.3223C88.8856 12.3575 88.8477 12.3977 88.8151 12.4421C88.7802 12.4901 88.7512 12.5421 88.7286 12.597C88.7067 12.647 88.6896 12.6989 88.6774 12.752C88.6668 12.803 88.658 12.8541 88.6527 12.9034C88.6474 12.9527 88.6527 12.9932 88.6421 13.0249C88.6315 13.0566 88.6421 13.0742 88.6421 13.0795V13.0989C88.6421 13.0989 88.6421 13.1288 88.6421 13.1658C88.6421 13.2028 88.6421 13.2503 88.6509 13.3084C88.6568 13.3602 88.6669 13.4114 88.6809 13.4616C88.6933 13.5046 88.708 13.547 88.725 13.5884C88.7463 13.6373 88.7736 13.6835 88.8062 13.7257C88.8419 13.7757 88.884 13.8207 88.9315 13.8595C88.9774 13.8973 89.0278 13.9293 89.0816 13.9546C89.1336 13.9803 89.188 14.001 89.2439 14.0163C89.291 14.029 89.3387 14.039 89.3869 14.0462L89.4822 14.0568H89.5228H89.5528H89.7134L90.1352 14.0849L90.7406 14.1272L91.4307 14.1765C91.6743 14.1923 91.8702 14.2047 92.0202 14.2117L92.2655 14.224H92.3237L92.9079 14.2505C93.275 14.2669 93.8487 14.2892 94.6288 14.3174C95.4106 14.3473 96.0407 14.3684 96.4961 14.3843L97.2285 14.4107H97.2903L97.675 14.423L98.8099 14.4582L99.8689 14.4882L100.222 14.4987C100.164 14.6907 100.093 14.9284 100.007 15.2136C99.92 15.4989 99.8406 15.763 99.7665 16.0078C99.6924 16.2525 99.6306 16.4621 99.5794 16.6364L99.4206 17.184C99.3659 17.3724 99.2847 17.6418 99.1823 17.994C99.0799 18.3462 98.9688 18.7212 98.8523 19.1245C98.7358 19.5277 98.6105 19.9538 98.4816 20.4081C98.3528 20.8624 98.2504 21.2287 98.1781 21.5086C98.1057 21.7886 98.0616 21.9383 98.0563 21.9647L98.0404 22.0228L98.0086 22.1408C97.991 22.2077 97.968 22.2904 97.938 22.3926C97.908 22.4947 97.878 22.5951 97.8462 22.6919C97.8145 22.7888 97.7792 22.8821 97.7421 22.9736C97.705 23.0652 97.6662 23.1497 97.6239 23.2378C97.5815 23.3258 97.5339 23.4051 97.4844 23.4843C97.4345 23.5628 97.3797 23.638 97.3203 23.7097C97.262 23.7836 97.0467 23.9861 96.6761 24.3207C96.2444 24.7189 95.7869 25.0883 95.3065 25.4265C94.7664 25.8045 94.3581 26.0833 94.0816 26.2629C93.8045 26.439 93.501 26.6151 93.1709 26.8035C92.8409 26.9919 92.4861 27.168 92.1014 27.3493C91.7166 27.5307 91.3954 27.6663 91.1624 27.7578L90.7653 27.9093L90.6612 27.9445C90.6164 27.9602 90.5684 27.9638 90.5218 27.9551C90.4741 27.9551 90.4565 27.9234 90.4688 27.8829C90.4816 27.8393 90.5006 27.7978 90.5253 27.7596C90.5518 27.7156 90.5729 27.6857 90.5853 27.668L90.6912 27.5325C91.9196 26.4666 92.9656 25.4952 93.8292 24.6183C94.7164 23.7155 95.203 22.8486 95.2889 22.0175C95.3747 21.1864 95.1265 20.5678 94.544 20.1616C94.532 20.1472 94.5191 20.1337 94.5052 20.1211C94.4648 20.0843 94.4211 20.0512 94.3746 20.0225C94.2803 19.9658 94.178 19.9236 94.071 19.8975C94.0183 19.8834 93.9646 19.8728 93.9104 19.8658C93.852 19.8568 93.793 19.8509 93.7339 19.8482C93.6775 19.8482 93.6175 19.8482 93.5574 19.8482C93.4974 19.8482 93.4427 19.8482 93.3951 19.8482H93.2998H93.2733H93.208C93.1561 19.8531 93.1047 19.8625 93.0544 19.8763C93.0132 19.887 92.9725 19.8999 92.9327 19.9151L92.8691 19.938C92.8479 19.938 92.765 19.9785 92.622 20.0383C92.3691 20.1636 92.1271 20.3097 91.8984 20.475C91.5917 20.6763 91.3184 20.924 91.0883 21.2093C90.8889 21.4699 90.7706 21.6196 90.7353 21.6601C90.7 21.7006 90.6312 21.7816 90.5288 21.9066C90.4264 22.0316 90.3188 22.1672 90.2111 22.3169C90.1035 22.4665 89.9976 22.6162 89.897 22.7712C89.7964 22.9261 89.7028 23.0811 89.611 23.2395C89.5193 23.398 89.4345 23.5582 89.3498 23.722C89.2651 23.8858 89.1733 24.0935 89.0551 24.3436C88.9368 24.5936 88.8504 24.819 88.7833 25.0145C88.7162 25.2099 88.6756 25.3191 88.6686 25.342L88.6544 25.3842C88.6442 25.4108 88.6354 25.4378 88.628 25.4652C88.6121 25.5128 88.5944 25.5709 88.575 25.6413C88.5556 25.7118 88.538 25.7663 88.5238 25.8174C88.5097 25.8685 88.4938 25.9178 88.4797 25.9671L88.4321 26.1062C88.4162 26.1502 88.4003 26.1925 88.3826 26.233C88.365 26.2735 88.3456 26.3122 88.3226 26.3545C88.3053 26.3887 88.2846 26.4211 88.2609 26.4513L88.2291 26.4918L88.1973 26.527L87.982 26.77C87.8561 26.9109 87.6667 27.1216 87.4137 27.4022C87.1613 27.6804 86.8842 27.9797 86.593 28.2949C86.3018 28.6101 85.9841 28.9464 85.6505 29.3003C85.317 29.6543 85.0452 29.9378 84.8387 30.1508L84.5015 30.503L84.468 30.5382C84.4514 30.5568 84.4337 30.5745 84.4151 30.591C84.377 30.63 84.3369 30.667 84.2951 30.702L84.1591 30.8147C84.1341 30.8332 84.1045 30.8447 84.0735 30.8481C84.0425 30.8515 84.0112 30.8467 83.9827 30.834C83.9103 30.8147 83.8803 30.7002 83.8944 30.4924C83.9085 30.2847 83.9297 30.0698 83.9562 29.8497C83.9827 29.6296 84.0162 29.4095 84.0515 29.1894C84.0868 28.9693 84.1256 28.7527 84.168 28.5361C84.2103 28.3196 84.2545 28.0995 84.3004 27.8829C84.3462 27.6663 84.3904 27.4479 84.4362 27.2296C84.4821 27.0113 84.5227 26.8 84.5633 26.5957C84.6039 26.3914 84.6622 26.0481 84.7398 25.5709C84.8175 25.0937 84.8916 24.6482 84.9516 24.2379C85.0116 23.8277 85.0452 23.6058 85.0522 23.5671L85.0628 23.4896V23.4614C85.0628 23.4614 85.0628 23.4279 85.0734 23.3804C85.0798 23.3219 85.0798 23.2628 85.0734 23.2043C85.0685 23.1449 85.0585 23.0859 85.0434 23.0282C85.0299 22.9742 85.0109 22.9217 84.9869 22.8715C84.9632 22.8205 84.9342 22.7721 84.9004 22.7271C84.8671 22.6812 84.8292 22.6388 84.7875 22.6004C84.7393 22.557 84.6873 22.5181 84.6322 22.4841C84.5804 22.4504 84.5247 22.4232 84.4662 22.4031L84.3851 22.3767H84.3621L84.2562 22.3486C84.1826 22.3311 84.1076 22.3199 84.0321 22.3151C83.9527 22.3108 83.8732 22.3108 83.7938 22.3151C83.7252 22.3197 83.6568 22.328 83.5891 22.3397C83.5223 22.3538 83.4563 22.3715 83.3914 22.3926C83.3278 22.4152 83.2659 22.4423 83.2061 22.4736C83.1436 22.5065 83.0845 22.5454 83.0296 22.5898C82.9818 22.6282 82.9386 22.6719 82.9007 22.7201C82.869 22.7623 82.846 22.7958 82.8319 22.8187C82.8222 22.8347 82.8134 22.8511 82.8055 22.868L82.786 22.9085L82.6748 23.1356C82.6113 23.2677 82.5301 23.4262 82.4348 23.6111C82.3395 23.796 82.2495 23.9632 82.1683 24.1076C82.0871 24.252 82.0059 24.3964 81.923 24.539C81.84 24.6817 81.7465 24.8225 81.6635 24.9616C81.5806 25.1007 81.487 25.2363 81.39 25.3719C81.2929 25.5075 81.1888 25.6554 81.0635 25.8192C80.9381 25.9829 80.8305 26.1167 80.7352 26.2242C80.6399 26.3316 80.5852 26.4002 80.571 26.409L80.5357 26.446L80.4263 26.5658L80.2551 26.7647L79.9233 27.1169C79.7992 27.2479 79.662 27.3659 79.5138 27.4691C79.3962 27.5442 79.4138 27.2942 79.5668 26.719L79.8792 25.5304C79.9374 25.312 80.0292 24.9564 80.1545 24.4739C80.2798 23.9914 80.3822 23.5935 80.4581 23.2853C80.534 22.9772 80.5746 22.8205 80.5799 22.7923L80.5922 22.7447L80.6046 22.6937C80.6046 22.6655 80.6205 22.6268 80.631 22.5792C80.6416 22.5317 80.6487 22.4789 80.6557 22.4278C80.6632 22.3735 80.6679 22.3188 80.6699 22.264C80.6743 22.2054 80.6743 22.1466 80.6699 22.0879C80.6645 22.0286 80.6545 21.9697 80.6399 21.9119C80.6232 21.8475 80.6001 21.785 80.571 21.7252C80.5403 21.6624 80.5024 21.6033 80.4581 21.5491C80.4223 21.5014 80.3808 21.4582 80.3345 21.4206L80.2692 21.3695L80.241 21.3502L80.1757 21.3061C80.1248 21.2764 80.0724 21.2494 80.0186 21.2251C79.949 21.1935 79.8762 21.1693 79.8015 21.1529C79.7256 21.1389 79.6515 21.1283 79.5774 21.1212C79.5041 21.1133 79.4301 21.1133 79.3568 21.1212C79.2844 21.1336 79.212 21.1477 79.1432 21.1653C79.0729 21.1837 79.0049 21.2097 78.9402 21.2427C78.8752 21.2747 78.8121 21.3106 78.7514 21.3502C78.6805 21.3984 78.6143 21.4532 78.5537 21.5139C78.4822 21.5839 78.4184 21.6612 78.3631 21.7446C78.3163 21.8119 78.2767 21.8839 78.2448 21.9594C78.2219 22.0193 78.2078 22.0545 78.2043 22.0668V22.0862L78.1937 22.1196C78.1848 22.1408 78.1795 22.1566 78.176 22.1672C78.1651 22.1928 78.1521 22.2176 78.1372 22.2411C78.1203 22.2705 78.1014 22.2988 78.0807 22.3257C78.0707 22.3396 78.0595 22.3525 78.0472 22.3644L78.0313 22.382C78.0313 22.382 78.0313 22.382 78.0225 22.382H78.0136L77.9819 22.4049L77.7542 22.5669C77.6201 22.6602 77.4171 22.7923 77.14 22.9631C76.8629 23.1339 76.6105 23.2818 76.3564 23.4068C76.1022 23.5318 75.8604 23.6516 75.6098 23.759C75.3592 23.8664 75.0803 23.9826 74.7732 24.0883C74.4661 24.1939 74.2349 24.2643 74.0778 24.3101L73.8078 24.3823L73.7672 24.3929C73.7672 24.333 73.7672 24.2872 73.7672 24.2573V24.1252C73.7672 24.0689 73.7672 24.0108 73.7672 23.9492V23.7731C73.7672 23.715 73.7672 23.6692 73.7672 23.634V23.5354C73.7672 23.5037 73.7672 23.4861 73.7672 23.4772V23.4315C73.7672 23.4086 73.7672 23.3822 73.7672 23.3505V23.2483C73.7672 23.2131 73.7601 23.1638 73.746 23.1004L73.7125 22.8997C73.6981 22.8203 73.678 22.742 73.6525 22.6655L73.5713 22.4102C73.5449 22.325 73.5119 22.2419 73.4725 22.1619L73.356 21.9207C73.3161 21.8411 73.2713 21.764 73.2218 21.69L73.0718 21.4699C73.0214 21.3963 72.966 21.3263 72.9059 21.2604L72.7294 21.0649C72.668 21.0013 72.602 20.9425 72.5317 20.8888L72.3182 20.7127C72.2472 20.6561 72.1717 20.6054 72.0923 20.5613L71.8522 20.4275C71.7802 20.3857 71.7046 20.3503 71.6263 20.3218L71.4287 20.2514C71.3669 20.2285 71.3192 20.2144 71.2822 20.2038L71.1798 20.1757L71.0968 20.1563L71.0368 20.1422L70.9539 20.1246L70.8286 20.1L70.6521 20.0735L70.4491 20.0489C70.382 20.0489 70.315 20.0348 70.2479 20.0313L70.0467 20.0207C69.9796 20.0207 69.9126 20.0207 69.8455 20.0207H69.6461C69.579 20.0207 69.5137 20.0207 69.4466 20.033L69.249 20.0524C69.1837 20.0524 69.1184 20.0665 69.0531 20.0771L68.8571 20.1088C68.7913 20.1193 68.7118 20.1352 68.6189 20.1563L68.3259 20.2232C68.2271 20.2461 68.1388 20.2708 68.0629 20.2954L67.8511 20.3694L67.7293 20.4099H67.7064L67.6729 20.4222L67.5705 20.4609L67.4099 20.5261C67.3457 20.5529 67.2838 20.5847 67.2246 20.6212L67.0481 20.7303C66.9951 20.7632 66.9439 20.7984 66.8945 20.836L66.7357 20.954C66.6796 20.9959 66.6265 21.0418 66.5768 21.0913L66.4409 21.2322C66.4004 21.2744 66.3598 21.3185 66.3209 21.3642L66.1992 21.5086C66.1519 21.5645 66.1083 21.6233 66.0685 21.6847L65.9379 21.8943C65.894 21.963 65.855 22.0348 65.8214 22.1091L65.7208 22.3274C65.6863 22.3992 65.6568 22.4734 65.6326 22.5493L65.5602 22.7729C65.5357 22.8466 65.5162 22.9219 65.502 22.9983L65.4561 23.2237C65.442 23.2976 65.4314 23.3734 65.4243 23.4473L65.4067 23.6709C65.4034 23.7372 65.4034 23.8036 65.4067 23.8699V24.0354C65.4067 24.0865 65.4067 24.127 65.4155 24.1569L65.4243 24.2379C65.4243 24.2626 65.4243 24.2855 65.4243 24.3031V24.3295C65.4249 24.3389 65.4249 24.3483 65.4243 24.3577C65.4243 24.3718 65.4243 24.3823 65.4243 24.3911C65.4254 24.4105 65.4254 24.4299 65.4243 24.4492V24.5232C65.4261 24.549 65.4261 24.5749 65.4243 24.6007V24.694C65.423 24.7242 65.4188 24.7543 65.412 24.7838L65.3943 24.8754C65.3898 24.9015 65.3839 24.9273 65.3767 24.9528L65.3537 25.025L65.3343 25.0796L65.322 25.1113C65.322 25.1236 65.322 25.1324 65.3131 25.1377L65.3008 25.1659C65.3008 25.1817 65.2831 25.2134 65.2637 25.2645L65.202 25.423C65.1825 25.4776 65.1578 25.5427 65.1314 25.6202L65.0519 25.8491C65.0255 25.9266 65.0043 25.997 64.9849 26.0586L64.9266 26.2488C64.9066 26.3122 64.889 26.3756 64.8737 26.439C64.8737 26.4531 64.8578 26.4865 64.8401 26.5358C64.4309 28.0718 63.7753 29.5316 62.8987 30.8587C62.3163 31.8541 61.9045 32.5309 61.6633 32.8889C60.9573 33.8363 59.9066 35.35 58.5111 37.4301C58.3822 37.615 58.2993 37.733 58.264 37.7823C58.2523 37.7962 58.2417 37.8109 58.2322 37.8263L58.1757 37.9003C58.0081 38.0993 57.9339 38.057 57.9551 37.777C57.9657 37.6749 57.9781 37.5745 57.9904 37.4759C58.0028 37.3773 58.0187 37.2769 58.0381 37.166C58.0575 37.0551 58.0751 36.9723 58.0875 36.9195L58.114 36.8103C58.1228 36.7698 58.1457 36.6783 58.181 36.5356L58.3399 35.8982C58.4122 35.6147 58.4899 35.3101 58.5746 34.9879C58.6593 34.6656 58.7511 34.3399 58.8323 34.0159C58.9135 33.6919 59.0088 33.3696 59.0953 33.0456L59.3441 32.1371C59.4218 31.8536 59.48 31.6423 59.5206 31.4996L59.5948 31.2267C59.7377 30.6984 59.8595 30.2706 59.9601 29.9131C60.0607 29.5557 60.1489 29.2493 60.2231 28.9904C60.2972 28.7316 60.3854 28.4234 60.4896 28.0678C60.5937 27.7121 60.6837 27.4162 60.7561 27.175C60.8284 26.9338 60.8726 26.7964 60.8814 26.7647C60.8902 26.733 60.922 26.638 60.9785 26.4548C61.0349 26.2717 61.1055 26.0534 61.1938 25.791C61.282 25.5286 61.3597 25.298 61.425 25.106C61.4903 24.9141 61.5574 24.7222 61.6262 24.5302C61.695 24.3383 61.7568 24.1587 61.8168 23.9914L61.9509 23.6146L62.0092 23.4526C62.0092 23.4385 62.0198 23.4227 62.0251 23.4033C62.0304 23.3839 62.041 23.3505 62.0515 23.3117C62.0644 23.2625 62.0744 23.2125 62.0816 23.1621C62.0816 23.1057 62.0974 23.0511 62.101 22.9948C62.1045 22.9384 62.101 22.8821 62.101 22.8187C62.101 22.7553 62.101 22.7078 62.0886 22.6532C62.0842 22.6041 62.0771 22.5553 62.0674 22.507C62.058 22.4683 62.0492 22.4313 62.041 22.3961C62.0286 22.3538 62.0145 22.3098 61.9986 22.2693C61.9827 22.2288 61.9704 22.2042 61.958 22.1795C61.9462 22.1545 61.9326 22.1304 61.9174 22.1073C61.9032 22.0822 61.8873 22.0581 61.8698 22.0351C61.8518 22.0116 61.8324 21.9892 61.8115 21.9682C61.7903 21.9453 61.7673 21.9241 61.7427 21.9048C61.7172 21.8839 61.69 21.865 61.6615 21.8485C61.6315 21.8313 61.6003 21.8166 61.568 21.8045C61.5302 21.7908 61.4912 21.7807 61.4515 21.7745H61.3632H61.2644L61.0879 21.7604L60.9114 21.7463H60.749H60.5831H60.4066C60.3466 21.7463 60.2884 21.7587 60.2301 21.7675C60.1719 21.7763 60.1101 21.7886 60.0536 21.8027C59.9972 21.8168 59.9319 21.8361 59.8771 21.8573C59.8168 21.8796 59.7579 21.9055 59.7006 21.9348C59.6486 21.9585 59.5984 21.9861 59.5506 22.0175L59.4818 22.0615L59.2241 22.2376L58.6664 22.6127L58.0893 22.9948L57.6321 23.2959L57.6922 23.2149L57.8598 22.9789C57.9286 22.8821 57.9992 22.7764 58.0751 22.662C58.151 22.5475 58.2075 22.4612 58.2516 22.4014L58.3187 22.2904L58.3646 22.2112C58.3954 22.1545 58.4219 22.0957 58.444 22.0351C58.4964 21.8998 58.5279 21.7573 58.5376 21.6125C58.5418 21.5498 58.5418 21.4868 58.5376 21.4241C58.5376 21.3766 58.5376 21.329 58.5217 21.2832C58.5142 21.2291 58.503 21.1756 58.4881 21.123C58.474 21.0772 58.4599 21.035 58.444 20.9927C58.4255 20.9412 58.4019 20.8916 58.3734 20.8448C58.3514 20.8054 58.3272 20.7672 58.3011 20.7303C58.2696 20.684 58.2335 20.6409 58.1934 20.6018C58.1615 20.57 58.128 20.5401 58.0928 20.512C58.0476 20.4751 57.9985 20.4432 57.9463 20.4169C57.9097 20.3976 57.872 20.3805 57.8333 20.3658C57.8028 20.354 57.7716 20.344 57.7398 20.3359L57.678 20.3218H57.6269C57.5813 20.3135 57.5354 20.3076 57.4892 20.3042C57.4306 20.2969 57.3717 20.2934 57.3127 20.2937C57.2562 20.2937 57.198 20.2937 57.1362 20.2937C57.0744 20.2937 57.0179 20.3042 56.9597 20.313C56.9062 20.32 56.8532 20.33 56.8009 20.343L56.7091 20.3694L56.6755 20.3799L56.4991 20.4416C56.409 20.475 56.2996 20.5226 56.169 20.5824C56.0384 20.6423 55.9149 20.711 55.7948 20.7814C55.6748 20.8518 55.5619 20.9258 55.4524 21.005C55.343 21.0843 55.2407 21.1688 55.1401 21.2568C55.0395 21.3449 54.9477 21.4329 54.8577 21.528C54.7677 21.6231 54.6812 21.7199 54.6035 21.8221C54.5259 21.9242 54.4464 22.0246 54.3741 22.1302C54.3017 22.2359 54.2346 22.345 54.1693 22.456C54.104 22.5669 54.044 22.6778 53.9928 22.7923C53.9417 22.9067 53.8799 23.023 53.8287 23.1445C53.7775 23.2659 53.7263 23.3804 53.6804 23.4966C53.6346 23.6128 53.5887 23.7379 53.5463 23.8611C53.504 23.9844 53.4704 24.09 53.4404 24.1833L53.3769 24.3929C53.3645 24.4387 53.3522 24.4774 53.3433 24.5091C53.3345 24.5408 53.3433 24.5338 53.3292 24.5566C53.3151 24.5795 53.3116 24.613 53.2939 24.6658C53.275 24.7203 53.2532 24.7738 53.2286 24.8261C53.2021 24.8842 53.1739 24.9387 53.1439 24.9916C53.1139 25.0432 53.0803 25.0926 53.0433 25.1395C53.0143 25.1793 52.9825 25.217 52.948 25.2522C52.9162 25.2874 52.888 25.3138 52.865 25.3349L52.8121 25.3807L52.7786 25.4089L52.445 25.6713L51.7125 26.2664L50.9642 26.8493C50.7548 27.0113 50.5442 27.1727 50.3324 27.3335C50.1206 27.4955 49.9229 27.6452 49.7358 27.7843C49.5487 27.9234 49.4111 28.0273 49.3175 28.0942L49.141 28.228L49.0192 28.316C48.9575 28.3618 48.8639 28.4287 48.7351 28.5168C48.6063 28.6048 48.4704 28.6929 48.3221 28.7985L47.8738 29.0943C47.7238 29.1912 47.5208 29.3215 47.2631 29.4799C47.0055 29.6384 46.926 29.5028 47.0196 29.0714C47.0196 29.0116 47.0337 28.9623 47.039 28.9235C47.0443 28.8848 47.039 28.8549 47.0513 28.832C47.0637 28.8091 47.0513 28.7897 47.0513 28.7791C47.0513 28.7686 47.0725 28.6664 47.0937 28.5432C47.1149 28.4199 47.1502 28.235 47.1943 27.9903C47.2384 27.7455 47.2878 27.4814 47.3408 27.1997L47.4996 26.3562C47.5544 26.0762 47.6073 25.7945 47.6602 25.5128C47.7132 25.231 47.7644 24.9687 47.812 24.7222C47.8597 24.4756 47.8932 24.2908 47.9162 24.1675C47.9391 24.0442 47.9532 23.965 47.9603 23.9298C47.9603 23.9157 47.9603 23.8998 47.9603 23.8805C47.9603 23.8611 47.9691 23.8277 47.9726 23.7907C47.9756 23.7426 47.9756 23.6944 47.9726 23.6463C47.9753 23.5941 47.9753 23.5418 47.9726 23.4896C47.9689 23.4388 47.9624 23.3882 47.9532 23.3381C47.9426 23.2888 47.9303 23.2395 47.9162 23.1938C47.9009 23.1465 47.8833 23.1001 47.8632 23.0546C47.8438 23.0132 47.8214 22.9731 47.7961 22.9349C47.7812 22.9104 47.7647 22.8869 47.7467 22.8645C47.7326 22.8451 47.7132 22.824 47.692 22.7993C47.6608 22.7652 47.6266 22.7339 47.5896 22.706C47.5523 22.6763 47.5121 22.6503 47.4696 22.6285C47.4414 22.6127 47.4114 22.6004 47.3796 22.5863C47.3403 22.5705 47.2995 22.5587 47.2578 22.5511L47.2031 22.5405L47.1219 22.5299C47.0752 22.5223 47.0281 22.5176 46.9807 22.5158L46.8043 22.5C46.5185 22.4802 46.232 22.5247 45.9659 22.6303C45.8302 22.6925 45.7106 22.7848 45.6161 22.9002C45.5216 23.0155 45.4547 23.1509 45.4205 23.2959C45.3099 23.6351 45.0911 24.5654 44.764 26.0868C44.4369 27.6082 44.2822 28.8061 44.2998 29.6807C44.3104 30.5552 44.5934 31.2449 45.1487 31.7497C45.1982 31.8025 45.2513 31.852 45.3076 31.8976C45.357 31.9363 45.4064 31.9733 45.4558 32.0068C45.5214 32.0491 45.5898 32.0867 45.6606 32.1194C45.7379 32.1546 45.8175 32.1846 45.8988 32.2092C45.9792 32.2325 46.0612 32.2496 46.1442 32.2603C46.2266 32.272 46.3097 32.2785 46.393 32.2797C46.5608 32.2803 46.7283 32.2631 46.8925 32.2286C46.9737 32.211 47.0566 32.1899 47.1396 32.1652C47.2225 32.1406 47.2878 32.1159 47.3408 32.0948L47.4414 32.0561L47.5879 31.9927L47.8509 31.8729C47.9673 31.8183 48.1015 31.7514 48.2515 31.6722C48.4015 31.593 48.5498 31.512 48.6963 31.4257C48.8428 31.3394 48.9839 31.2496 49.1269 31.1616C49.2699 31.0735 49.4058 30.9767 49.5434 30.8798C49.6811 30.783 49.817 30.6861 49.9511 30.5875C50.0853 30.4889 50.2159 30.385 50.3465 30.2811C50.4771 30.1772 50.6059 30.0734 50.7348 29.9659C50.8636 29.8585 50.9889 29.7511 51.1142 29.6437C51.2395 29.5363 51.3649 29.4254 51.4884 29.3144L51.8114 29.0239L52.0179 28.8355L52.1308 28.7316L52.2208 28.6471C52.2703 28.6013 52.3409 28.5344 52.4326 28.4446C52.5244 28.3548 52.625 28.2579 52.7291 28.154L53.0362 27.8406L53.3416 27.5254L53.624 27.2331L53.6434 27.2137L53.6663 27.2349C53.7142 27.2779 53.7643 27.3185 53.8163 27.3564C53.8693 27.3934 53.9169 27.425 53.9611 27.4497C54.0052 27.4744 54.037 27.492 54.0758 27.5096C54.1266 27.5343 54.1791 27.5555 54.2329 27.573C54.3519 27.6109 54.4752 27.634 54.6 27.6416C54.6629 27.6451 54.7259 27.6451 54.7888 27.6416C54.8524 27.6346 54.9112 27.6258 54.9653 27.6152L55.0942 27.58C55.1436 27.5642 55.1895 27.5465 55.2318 27.5289L55.3024 27.4955L55.5072 27.3969C55.6307 27.3388 55.8107 27.2472 56.0508 27.1257C56.2908 27.0042 56.5326 26.8757 56.7691 26.7471C57.0056 26.6186 57.1838 26.5182 57.2986 26.4478L57.4962 26.3333L57.6039 26.2699L57.8545 26.1167C57.9657 26.0481 58.0857 25.9724 58.2075 25.8914L58.587 25.6466L58.8694 25.46C58.8482 25.5304 58.8305 25.585 58.8182 25.622C58.8058 25.6589 58.7899 25.7065 58.7882 25.7153L58.6999 25.9812C58.6664 26.0886 58.6134 26.2488 58.5429 26.4636C58.4723 26.6785 58.3893 26.9267 58.2958 27.212C58.2022 27.4972 58.1069 27.7825 58.0134 28.0678C57.9198 28.353 57.8263 28.64 57.7345 28.9253C57.6427 29.2105 57.5492 29.4993 57.4592 29.7863C57.3692 30.0734 57.2827 30.3621 57.1927 30.6509C57.1027 30.9397 57.0162 31.2285 56.9368 31.519C56.8573 31.8095 56.7709 32.1001 56.6932 32.3906C56.6155 32.6812 56.5379 32.9752 56.4638 33.271C56.3896 33.5669 56.3208 33.8592 56.2537 34.1515C56.1867 34.4438 56.1319 34.7079 56.0861 34.9315C56.0402 35.1551 56.0084 35.3224 55.989 35.4351C55.9696 35.5478 55.9502 35.6394 55.9378 35.7151L55.9166 35.8242C55.9166 35.8683 55.8972 35.9334 55.8796 36.0215C55.8619 36.1095 55.8425 36.2116 55.8195 36.3279C55.7966 36.4441 55.7701 36.5656 55.7472 36.68C55.7242 36.7945 55.6995 36.9177 55.6748 37.0322C55.6501 37.1466 55.6289 37.2734 55.6078 37.3844C55.5866 37.4953 55.5654 37.6291 55.546 37.7506C55.5266 37.8721 55.5107 37.9971 55.4966 38.1204C55.4824 38.2436 55.4683 38.3704 55.4595 38.4954C55.4507 38.6205 55.4419 38.749 55.4401 38.8758C55.4383 39.0026 55.4401 39.1329 55.4401 39.2614C55.4401 39.3899 55.4507 39.5079 55.4613 39.6136C55.4719 39.7192 55.4789 39.7897 55.486 39.8337C55.493 39.8777 55.4983 39.9235 55.5036 39.9569C55.5089 39.9904 55.5036 39.9992 55.5142 40.0274C55.5248 40.0555 55.5283 40.1013 55.5389 40.1559C55.5495 40.2105 55.5707 40.2809 55.5919 40.3531C55.6361 40.4951 55.6953 40.632 55.7684 40.7616C55.8044 40.823 55.8445 40.8818 55.8884 40.9377C55.9312 40.9953 55.9784 41.0494 56.0296 41.0997C56.0756 41.1457 56.1245 41.1886 56.1761 41.2283C56.2167 41.2582 56.2573 41.2864 56.2996 41.3128C56.3488 41.3444 56.4001 41.3726 56.4532 41.3973C56.4991 41.4184 56.5467 41.4378 56.5961 41.4572C56.6537 41.4788 56.7127 41.4964 56.7726 41.51C56.8238 41.5241 56.8768 41.5347 56.9315 41.5452C56.9898 41.5572 57.0487 41.566 57.108 41.5716H57.2033H57.2703H57.3886C57.4517 41.5707 57.5147 41.5666 57.5774 41.5593C57.6457 41.5514 57.7135 41.5397 57.7804 41.5241C57.845 41.5096 57.9086 41.4914 57.971 41.4695C58.0311 41.4492 58.09 41.4257 58.1475 41.3991C58.6852 41.1471 59.1796 40.812 59.6124 40.406C60.1431 39.9364 60.9902 38.7836 62.1539 36.9477C63.3176 35.1117 64.536 33.0368 65.8091 30.7231L65.8515 30.7478L65.9521 30.8023C66.0036 30.8309 66.058 30.854 66.1144 30.871L66.2539 30.9133L66.3545 30.9397L66.4268 30.9538H66.4815H66.5062H66.5327L66.6439 30.9679L66.8328 30.989C66.9127 30.9938 66.9929 30.9938 67.0728 30.989H67.3428C67.4219 30.9883 67.5008 30.9836 67.5793 30.9749L67.7911 30.952C67.8617 30.9444 67.9318 30.9333 68.0012 30.9186L68.2094 30.8763C68.28 30.8604 68.3488 30.8428 68.4159 30.8217L68.6206 30.7583C68.6877 30.7372 68.7548 30.7125 68.8218 30.6844L69.0089 30.6386C69.083 30.607 69.1555 30.5717 69.226 30.5329L69.466 30.4026C69.5392 30.3635 69.6099 30.32 69.6778 30.2723L69.8332 30.1579L69.9249 30.0892L69.9708 30.054L70.075 29.9747L70.2409 29.8462C70.2991 29.8004 70.3662 29.7458 70.4421 29.6807L70.6715 29.4852C70.7492 29.4201 70.8162 29.3602 70.8762 29.3091L71.0527 29.1454C71.1127 29.0908 71.171 29.0345 71.2292 28.9781L71.4057 28.802C71.464 28.7457 71.5204 28.6858 71.5822 28.6259L71.7463 28.4499C71.8011 28.3882 71.854 28.3266 71.9052 28.2614L72.0605 28.0695C72.1135 28.0044 72.1682 27.9304 72.2282 27.8459L72.4047 27.5906C72.4595 27.5153 72.5102 27.4372 72.5565 27.3564L72.6535 27.1803L72.7082 27.0834L72.7294 27.0465L72.8618 26.7964C73.0136 26.77 73.1654 26.7454 73.3189 26.7225L73.7196 26.6573L74.039 26.601C74.1361 26.5816 74.2155 26.5658 74.2861 26.5499L74.4026 26.5217H74.4467L74.6797 26.4636C74.8138 26.4308 74.9762 26.385 75.1668 26.3263C75.3574 26.2664 75.5286 26.2101 75.6786 26.1502C75.8287 26.0903 75.9787 26.0375 76.1269 25.9741C76.2752 25.9107 76.4234 25.8456 76.5717 25.7751C76.7199 25.7047 76.8558 25.6325 76.9829 25.5621C77.11 25.4916 77.2424 25.4142 77.373 25.3332L77.2724 25.7346C77.2194 25.9407 77.1718 26.1326 77.1259 26.3087C77.08 26.4848 77.057 26.5781 77.0535 26.5869L77.0447 26.6221C77.0447 26.6362 77.027 26.6873 77.0041 26.7806C76.9811 26.8739 76.9547 26.9848 76.9247 27.1187C76.8947 27.2525 76.8717 27.3722 76.8523 27.4814C76.8329 27.5906 76.817 27.6997 76.8029 27.8107C76.7888 27.9216 76.7782 28.0308 76.7711 28.1435C76.7641 28.2562 76.7605 28.3671 76.7623 28.4816C76.7641 28.596 76.7623 28.7245 76.7817 28.8689C76.791 28.9927 76.8087 29.1156 76.8347 29.237C76.8576 29.3373 76.8717 29.3937 76.8753 29.413V29.4447C76.8753 29.4447 76.8841 29.4729 76.8929 29.5064C76.9017 29.5398 76.9158 29.5874 76.9353 29.6437C76.9547 29.7001 76.9776 29.7546 77.0023 29.8198C77.0274 29.8765 77.0557 29.9318 77.087 29.9853C77.1196 30.0413 77.1562 30.0948 77.1965 30.1455C77.2377 30.199 77.2838 30.2485 77.3341 30.2935C77.3883 30.3413 77.4475 30.3832 77.5106 30.4185C77.5752 30.4562 77.6439 30.4863 77.7154 30.5083C77.7723 30.5288 77.8316 30.5424 77.8919 30.5488H77.9801H78.0101H78.1019C78.1548 30.5488 78.236 30.5488 78.3437 30.5488C78.4513 30.5488 78.5696 30.5365 78.6967 30.5206C78.8076 30.5086 78.9178 30.4904 79.0267 30.466C79.1203 30.4449 79.2032 30.422 79.2826 30.3991C79.3621 30.3762 79.4256 30.3516 79.4768 30.3304L79.5668 30.2899L79.5897 30.2794L79.6903 30.2301C79.7486 30.2019 79.8174 30.1649 79.8968 30.1174C79.9762 30.0698 80.0451 30.0258 80.1051 29.9853C80.1651 29.9448 80.2392 29.892 80.3257 29.8286C80.4122 29.7652 80.5022 29.7001 80.5799 29.6314L80.8022 29.4553L80.9681 29.3127L81.0458 29.2475L81.0652 29.2317L81.1605 29.1489C81.217 29.0996 81.2805 29.0415 81.3511 28.9728C81.4217 28.9042 81.48 28.8478 81.5276 28.7967L81.6724 28.6506C81.6724 28.6629 81.6724 28.7017 81.6635 28.7668C81.6547 28.832 81.6441 28.9799 81.6229 29.2088C81.6018 29.4377 81.5806 29.6877 81.5559 29.9536C81.5312 30.2195 81.5117 30.4502 81.4959 30.6579C81.48 30.8657 81.4676 31.0418 81.4553 31.2091C81.4429 31.3764 81.4376 31.519 81.4323 31.637C81.427 31.755 81.4323 31.8131 81.4235 31.8395V32.0578C81.4239 32.1571 81.4334 32.2561 81.4517 32.3536C81.4712 32.461 81.4906 32.5473 81.5082 32.6125C81.5259 32.6776 81.5506 32.7428 81.5753 32.8062C81.5995 32.8664 81.6272 32.9252 81.6582 32.9823C81.6882 33.0404 81.7235 33.0949 81.7588 33.1495C81.7941 33.2041 81.8365 33.2534 81.8789 33.3027C81.9343 33.3647 81.9932 33.4235 82.0554 33.4788C82.1263 33.5432 82.2052 33.5982 82.2901 33.6426C82.3607 33.6813 82.4339 33.7154 82.5089 33.7447C82.5666 33.7674 82.6255 33.7868 82.6854 33.8028C82.7489 33.8181 82.8131 33.8298 82.8778 33.838C82.9439 33.847 83.0105 33.8517 83.0772 33.8521C83.146 33.8556 83.215 33.8556 83.2837 33.8521C83.3526 33.8521 83.4408 33.8327 83.5467 33.8116C83.646 33.7926 83.7435 33.7649 83.8379 33.7289L83.9932 33.6672L84.0444 33.6443L84.2474 33.5528C84.3656 33.4999 84.5368 33.4084 84.7628 33.2816C84.9717 33.1649 85.1743 33.0374 85.3699 32.8995C85.5499 32.7715 85.7264 32.6395 85.8994 32.5033C86.0759 32.366 86.2524 32.2092 86.4412 32.0332C86.6301 31.8571 86.766 31.7215 86.8542 31.6264C86.9425 31.5313 86.9919 31.4785 87.006 31.4662L87.036 31.431L87.2531 31.1968C87.3872 31.0489 87.5531 30.8675 87.749 30.6491L88.2485 30.0927L88.5768 29.7247L88.658 29.8251C88.7033 29.8777 88.7516 29.9277 88.8027 29.9747C88.9194 30.085 89.0499 30.1797 89.191 30.2565C89.2613 30.2942 89.3338 30.3277 89.4081 30.3568C89.4815 30.3849 89.5563 30.409 89.6322 30.429C89.7081 30.4484 89.7964 30.466 89.8934 30.4819C89.9905 30.4977 90.0699 30.5048 90.1476 30.5083H90.2676H90.3894H90.6471C90.7855 30.4994 90.9234 30.4829 91.0601 30.459C91.2152 30.4341 91.369 30.4012 91.5207 30.3604C91.6707 30.3199 91.8013 30.2794 91.9108 30.2389C92.0202 30.1984 92.0978 30.1702 92.1437 30.1526L92.2249 30.1191L92.2655 30.1015L92.4844 30.0117C92.6114 29.9571 92.7668 29.8902 92.9468 29.8092C93.1268 29.7282 93.2874 29.6525 93.4304 29.5821C93.5733 29.5116 93.7145 29.4412 93.854 29.3655C93.9934 29.2898 94.1328 29.2141 94.2705 29.1331C94.4081 29.0521 94.5458 28.9675 94.6782 28.8795C94.8106 28.7915 94.9535 28.6506 95.13 28.5256C95.3065 28.4006 95.4283 28.2984 95.5359 28.2033L95.7124 28.0396L95.7495 28.0061L95.8536 27.911C95.9136 27.8565 96.0054 27.7737 96.129 27.6663L96.4819 27.3599L96.7749 27.1099L96.7255 27.3529C96.6937 27.5113 96.6426 27.7702 96.5684 28.1311C96.4943 28.4921 96.4202 28.8777 96.3425 29.2845C96.2649 29.6912 96.2013 30.0223 96.1572 30.2723C96.1131 30.5224 96.0901 30.6597 96.0866 30.6826L96.0742 30.753C96.0742 30.7759 96.0531 30.8728 96.0248 31.0418L95.8978 31.806C95.8424 32.1441 95.7836 32.508 95.7213 32.8977C95.6589 33.2875 95.6001 33.7013 95.5448 34.1391C95.4847 34.577 95.4389 34.9292 95.4071 35.1956C95.3771 35.465 95.3594 35.6129 95.3577 35.6358V35.6975C95.3577 35.7133 95.3489 35.7785 95.3383 35.8894C95.3277 36.0003 95.3118 36.1711 95.2977 36.3965C95.2836 36.6219 95.273 36.8297 95.2677 37.0234C95.2624 37.2171 95.2589 37.409 95.2553 37.6009C95.2518 37.7929 95.2553 38.0006 95.2553 38.2243C95.2553 38.4479 95.2553 38.6134 95.2553 38.7261C95.2553 38.8388 95.2553 38.9022 95.2553 38.9163V38.9533C95.2553 38.9533 95.2553 38.999 95.2553 39.0607C95.2553 39.1223 95.2553 39.1998 95.2712 39.2896C95.2871 39.3794 95.2906 39.4762 95.303 39.5836C95.3153 39.6911 95.3365 39.8125 95.363 39.9517C95.3895 40.0908 95.4177 40.2193 95.4459 40.339C95.4742 40.4588 95.4971 40.5468 95.5112 40.6067C95.5253 40.6666 95.5359 40.6982 95.5395 40.7071V40.7317C95.5395 40.7317 95.5518 40.7757 95.5695 40.8374C95.5935 40.9119 95.6236 40.9843 95.6595 41.0539C95.6956 41.1283 95.7369 41.2001 95.783 41.2688C95.8249 41.3305 95.8708 41.3893 95.9207 41.4448C95.9703 41.4999 96.024 41.5511 96.0813 41.598C96.137 41.645 96.196 41.6879 96.2578 41.7266C96.3326 41.7697 96.4105 41.8073 96.4908 41.8393C96.5676 41.8717 96.6474 41.8965 96.729 41.9132L96.8455 41.9326H96.8844L97.022 41.9484C97.1205 41.9588 97.2195 41.9629 97.3185 41.9608C97.4366 41.959 97.5545 41.9502 97.6715 41.9344C97.7865 41.9182 97.9002 41.8947 98.0122 41.8639C98.1221 41.8324 98.2299 41.7942 98.3351 41.7495C98.44 41.7054 98.542 41.6548 98.6405 41.598C98.7388 41.5422 98.8337 41.4804 98.9246 41.4132C99.0164 41.3445 99.1011 41.2723 99.1911 41.1966C99.2811 41.1209 99.3447 41.0539 99.3941 41.0011L99.4823 40.906L99.5106 40.8743L99.6288 40.7423L99.943 40.3901C100.082 40.2352 100.211 40.0908 100.33 39.9552C100.448 39.8196 100.547 39.7069 100.624 39.6136C100.702 39.5203 100.78 39.4375 100.855 39.3354C100.931 39.2332 101.016 39.1346 101.11 39.0149C101.203 38.8952 101.286 38.7913 101.341 38.705C101.396 38.6187 101.436 38.5676 101.445 38.5553L101.496 38.4814L101.8 38.0376C101.976 37.7805 102.241 37.3914 102.592 36.8719C102.943 36.3525 103.318 35.7961 103.715 35.2009C104.112 34.6058 104.534 33.9683 104.98 33.3027C105.427 32.6371 105.783 32.0913 106.055 31.6828L106.5 31.0136L106.544 30.9467L106.579 30.8957L106.611 30.8446C106.611 30.8446 106.611 30.8569 106.611 30.8974C106.611 30.9379 106.577 31.0612 106.535 31.2707C106.493 31.4803 106.443 31.7532 106.385 32.086C106.327 32.4188 106.276 32.7199 106.233 32.9875C106.191 33.2552 106.154 33.5158 106.117 33.7922C106.08 34.0687 106.051 34.3293 106.023 34.6005C105.995 34.8716 105.97 35.141 105.949 35.4122C105.928 35.6834 105.914 35.9898 105.9 36.3314C105.886 36.673 105.882 36.9635 105.887 37.203C105.893 37.4425 105.887 37.5798 105.887 37.6133V37.6925C105.887 37.7083 105.887 37.7788 105.887 37.902C105.887 38.0253 105.887 38.1732 105.887 38.3493C105.887 38.5254 105.887 38.6839 105.887 38.8247C105.887 38.9656 105.887 39.1082 105.887 39.2508C105.887 39.3935 105.887 39.5343 105.887 39.677C105.887 39.8196 105.887 39.9622 105.898 40.1048C105.908 40.2475 105.91 40.4095 105.919 40.5891C105.928 40.7687 105.938 40.9219 105.951 41.0469C105.963 41.1719 105.968 41.2441 105.97 41.2635V41.3163C105.97 41.3339 105.97 41.3674 105.983 41.4202C105.995 41.473 106.002 41.5294 106.018 41.5963C106.034 41.6632 106.05 41.7248 106.069 41.7864C106.089 41.8481 106.12 41.922 106.157 42.0066C106.195 42.09 106.242 42.1691 106.297 42.2425C106.351 42.3147 106.408 42.3834 106.473 42.4468C106.532 42.509 106.598 42.5645 106.669 42.6123C106.742 42.6581 106.814 42.7003 106.888 42.7391C106.962 42.7764 107.039 42.8059 107.119 42.8271C107.198 42.8493 107.278 42.8669 107.359 42.8799C107.44 42.8938 107.521 42.8997 107.603 42.8975C107.684 42.8975 107.767 42.8975 107.848 42.8852C107.944 42.874 108.039 42.8557 108.132 42.8306C108.22 42.8088 108.306 42.7811 108.39 42.7479L108.506 42.6968L108.538 42.6827L108.611 42.6475C108.651 42.6264 108.702 42.5964 108.762 42.5595C108.822 42.5225 108.882 42.4802 108.939 42.4362C108.995 42.3922 109.05 42.3499 109.103 42.3024C109.156 42.2548 109.209 42.209 109.26 42.1597C109.311 42.1104 109.357 42.0611 109.405 42.0101C109.452 41.959 109.509 41.8956 109.581 41.8181C109.654 41.7407 109.701 41.6738 109.747 41.6157L109.823 41.517L109.853 41.4783L110.03 41.2512C110.13 41.1173 110.282 40.9166 110.481 40.6472C110.681 40.3778 110.893 40.0908 111.119 39.7826C111.344 39.4745 111.583 39.1452 111.825 38.7983L112.433 37.9584L112.686 37.6062C112.698 37.5869 112.718 37.5604 112.742 37.527C112.767 37.4935 112.959 37.2294 113.323 36.7328L115.074 34.4261C115.847 33.3696 116.464 32.5268 116.925 31.8976L117.652 30.9062L117.695 30.8464L117.76 30.7583L117.937 30.5294C118.014 30.4273 118.099 30.3181 118.191 30.2019C118.284 30.0874 118.367 29.9853 118.434 29.8973L118.563 29.7353C118.579 29.7159 118.591 29.7106 118.598 29.7194C118.605 29.7282 118.641 29.7599 118.699 29.8198C118.777 29.8959 118.859 29.9671 118.946 30.0329C119.052 30.1144 119.163 30.1886 119.28 30.2547C119.392 30.3232 119.51 30.3821 119.633 30.4308C119.756 30.4778 119.883 30.5138 120.012 30.5382C120.142 30.5632 120.275 30.5767 120.407 30.5787C120.543 30.5807 120.679 30.5712 120.813 30.5505C120.926 30.5358 121.037 30.5122 121.145 30.4801L121.295 30.4326L121.343 30.415L121.717 30.2811C121.952 30.1966 122.236 30.0792 122.568 29.929C122.9 29.7787 123.2 29.6372 123.468 29.5046C123.734 29.3708 123.946 29.2598 124.105 29.1683C124.264 29.0767 124.349 29.0274 124.364 29.0204L124.403 28.9975L124.537 28.9147C124.617 28.8678 124.711 28.8091 124.818 28.7386C124.924 28.6612 125.019 28.5907 125.1 28.5273C125.182 28.4639 125.265 28.3988 125.344 28.3336L125.58 28.1347L125.812 27.9339L126.066 27.7085C126.161 27.6258 126.242 27.5554 126.308 27.499L126.419 27.4022L126.461 27.3669L126.574 27.2701L126.83 27.0535L127.224 26.7013C127.374 26.5693 127.522 26.4355 127.67 26.2999C127.818 26.1643 127.963 26.0252 128.106 25.8843C128.249 25.7434 128.39 25.5991 128.528 25.4529C128.666 25.3068 128.8 25.1536 128.93 24.9986C129.061 24.8437 129.188 24.6834 129.312 24.5179C129.435 24.3524 129.537 24.2062 129.62 24.0759C129.703 23.9456 129.767 23.847 129.797 23.7784C129.827 23.7097 129.864 23.6674 129.876 23.6445L129.901 23.6005C129.901 23.6005 129.912 23.5776 129.926 23.5494C129.942 23.5142 129.954 23.4769 129.961 23.4385C129.971 23.3969 129.977 23.3544 129.979 23.3117C129.988 23.2801 129.995 23.2477 129.998 23.2149ZM70.1332 26.8123C70.1155 26.8405 70.0908 26.8739 70.0608 26.9179C70.0308 26.9619 69.9991 27.0024 69.9673 27.0429C69.9355 27.0834 69.9055 27.1257 69.8737 27.1662C69.842 27.2067 69.8084 27.2454 69.7767 27.2842L69.6761 27.4004L69.5737 27.5113C69.5402 27.5483 69.5049 27.5853 69.4696 27.6205C69.4343 27.6557 69.399 27.6909 69.3619 27.7244L69.2525 27.8248L69.1395 27.9216L69.0248 28.0149L68.9066 28.1047L68.7848 28.1893L68.6612 28.2703L68.5324 28.346C68.49 28.3724 68.4459 28.3953 68.4018 28.4199L68.2694 28.4886C68.2235 28.5097 68.1776 28.5326 68.1318 28.552L67.9923 28.6119L67.83 28.6752C67.7699 28.6981 67.717 28.7157 67.6729 28.7281L67.5899 28.7545H67.5652L67.5229 28.765L67.477 28.7756H67.447H67.4152H67.3746H67.2863H67.2458H67.2069L67.1699 28.7633L67.1363 28.7492L67.1046 28.7316L67.0746 28.7122L67.0516 28.6911L67.0322 28.6717C67.0322 28.6717 67.0198 28.6559 67.011 28.6453L66.9934 28.6171L66.9775 28.5925L66.9634 28.559L66.9475 28.5203C66.9475 28.5062 66.9387 28.4921 66.9351 28.4763C66.9312 28.4612 66.9282 28.4459 66.9263 28.4305C66.9263 28.4146 66.9263 28.4006 66.9263 28.3882C66.9263 28.3759 66.9263 28.3653 66.9263 28.3583C66.9272 28.353 66.9272 28.3477 66.9263 28.3424C66.9263 28.3424 66.9263 28.309 66.9263 28.2685C66.9263 28.228 66.9263 28.1805 66.9263 28.1276V27.9973V27.8934C66.9263 27.8582 66.9263 27.823 66.9263 27.7878C66.9263 27.7526 66.9351 27.7103 66.9422 27.6592C66.9492 27.6082 66.9563 27.5571 66.9651 27.5078C66.974 27.4585 66.9845 27.4057 66.9951 27.3564C67.0057 27.3071 67.0181 27.2578 67.0322 27.2085C67.0463 27.1592 67.0587 27.1099 67.0746 27.0623C67.0904 27.0148 67.1046 26.9655 67.1222 26.9179C67.1399 26.8704 67.1557 26.8228 67.1752 26.7771C67.1946 26.7313 67.2122 26.6837 67.2316 26.6362L67.2952 26.5006C67.3164 26.4548 67.3393 26.4055 67.3675 26.3545C67.3958 26.3034 67.4152 26.2647 67.4293 26.2382L67.4558 26.1889L70.1491 26.7436H70.1808C70.165 26.7647 70.1526 26.7859 70.1332 26.8123ZM71.4269 23.7977C71.4214 23.8644 71.4126 23.9309 71.4004 23.9967C71.4004 24.0302 71.3845 24.0636 71.3757 24.0971C71.3676 24.1316 71.3576 24.1657 71.3457 24.1992C71.3351 24.2309 71.3245 24.2591 71.3157 24.282C71.3069 24.3048 71.2981 24.326 71.2875 24.3489L71.2575 24.4158L71.2151 24.4985C71.1957 24.532 71.178 24.5637 71.1569 24.5971L71.1074 24.6711L71.0827 24.7081L71.0668 24.7274L71.0527 24.7415L71.0333 24.7591L71.0104 24.775L70.9874 24.7891L70.961 24.8032L70.9327 24.8155L70.9045 24.8278L70.8727 24.8384L70.8409 24.8472L70.8003 24.8577L70.7421 24.8683C70.7209 24.8683 70.698 24.8683 70.675 24.8789H70.6168H70.4791H70.4615L70.4032 24.8701L70.2656 24.8489L70.0697 24.8155L69.8579 24.7785L69.6478 24.7398L69.4343 24.6993L69.2207 24.6517L69.0036 24.6077L68.783 24.5637L68.5606 24.5197L68.3488 24.4774L68.1635 24.4404H68.1335L68.1794 24.3594C68.2024 24.3189 68.2324 24.2696 68.2677 24.2133L68.3683 24.0636L68.4583 23.9368L68.5536 23.8153C68.5854 23.7766 68.6171 23.7361 68.6507 23.6974L68.7513 23.5847L68.8518 23.4755L68.956 23.3681L69.0619 23.2642L69.1695 23.1638L69.2772 23.0652L69.3866 22.9684L69.4961 22.8733L69.6072 22.78L69.7167 22.6866L69.8279 22.5933L69.9373 22.5017L70.0467 22.4084L70.1561 22.3151L70.2497 22.2323L70.3097 22.1795L70.3432 22.1496L70.3873 22.1707L70.4668 22.213C70.5018 22.2306 70.536 22.25 70.5691 22.2711L70.6644 22.3327C70.6962 22.3538 70.7262 22.3767 70.7562 22.3996L70.8409 22.4683C70.8686 22.491 70.8951 22.5151 70.9204 22.5405L70.9945 22.6162C71.0192 22.642 71.0421 22.6684 71.0633 22.6954C71.0863 22.7218 71.1074 22.75 71.1269 22.7764C71.1463 22.8028 71.1674 22.8328 71.1851 22.861L71.2363 22.9472C71.2522 22.9772 71.2681 23.0053 71.2822 23.0353C71.2963 23.0652 71.3086 23.0969 71.321 23.1268C71.334 23.1567 71.3452 23.1872 71.3545 23.2184C71.3651 23.2501 71.3739 23.2818 71.3828 23.3135C71.3919 23.3447 71.399 23.3765 71.404 23.4086L71.4198 23.5054C71.4198 23.5371 71.4198 23.5706 71.4198 23.6023C71.4198 23.634 71.4198 23.6674 71.4198 23.7009C71.4238 23.733 71.4262 23.7653 71.4269 23.7977ZM108.161 23.3135C108.131 23.4139 108.101 23.5142 108.067 23.6111C108.033 23.7079 108.012 23.7713 107.981 23.8488C107.981 23.854 107.981 23.8594 107.981 23.8646C107.947 23.9492 107.912 24.0407 107.875 24.1164C107.838 24.1922 107.779 24.3189 107.728 24.4193C107.677 24.5197 107.626 24.62 107.573 24.7186C107.52 24.8172 107.463 24.9159 107.396 25.0127C107.329 25.1095 107.282 25.2082 107.22 25.305C107.158 25.4018 107.1 25.4987 107.043 25.5955C106.987 25.6924 106.918 25.7892 106.854 25.8861C106.791 25.9829 106.736 26.0622 106.689 26.1414C106.641 26.2206 106.604 26.2699 106.579 26.3069C106.554 26.3439 106.535 26.3738 106.519 26.3985L105.931 27.2965C105.585 27.8248 105.065 28.616 104.371 29.6701C103.677 30.7243 102.982 31.7778 102.287 32.8308C101.59 33.8873 101.067 34.6762 100.718 35.1974L100.123 36.0972L100.007 36.2733C99.9483 36.3613 99.8742 36.4687 99.7859 36.5955L99.5424 36.9265C99.47 37.0269 99.3959 37.1255 99.3217 37.2241C99.2476 37.3227 99.1717 37.4196 99.0941 37.5164C99.0164 37.6133 98.9176 37.7348 98.7958 37.8792C98.674 38.0235 98.531 38.1873 98.3563 38.3739C98.2253 38.523 98.0758 38.655 97.9115 38.7666C97.7915 38.8441 97.7351 38.8054 97.7227 38.6539C97.7227 38.6046 97.7139 38.5712 97.7139 38.55C97.7139 38.5289 97.7139 38.5095 97.7139 38.5025C97.7139 38.4954 97.7139 38.3986 97.7139 38.2859C97.7139 38.1732 97.7139 38.0447 97.7139 37.8862C97.7139 37.7277 97.7139 37.5851 97.7245 37.4583C97.7351 37.3315 97.7368 37.2048 97.7439 37.078C97.7509 36.9512 97.7615 36.8226 97.7704 36.6959C97.7792 36.5691 97.7933 36.4423 97.8056 36.3138C97.818 36.1852 97.8321 36.0584 97.8445 35.9317C97.8568 35.8049 97.8745 35.6763 97.8886 35.5478L97.9363 35.1639C97.9539 35.0354 97.9715 34.8892 97.9927 34.729C98.0139 34.5688 98.0316 34.4297 98.0457 34.317C98.0598 34.2043 98.0704 34.1409 98.0739 34.0986C98.0845 34.0212 98.1075 33.8451 98.1428 33.5704C98.1781 33.2957 98.2257 32.9652 98.2857 32.579C98.3457 32.1881 98.4022 31.8395 98.4622 31.5225C98.5222 31.2056 98.5699 30.9027 98.6263 30.5928C98.6828 30.2829 98.7411 29.9747 98.8028 29.6648C98.8646 29.3549 98.9246 29.0468 98.9899 28.7386C99.0552 28.4305 99.1188 28.1223 99.1876 27.8142C99.2564 27.5061 99.3235 27.1997 99.3941 26.8915C99.4647 26.5834 99.5353 26.2787 99.6094 25.9706C99.6835 25.6625 99.7647 25.3191 99.86 24.9352C99.9553 24.5514 100.037 24.2309 100.104 23.9597L100.236 23.4438C100.236 23.4068 100.268 23.3223 100.301 23.192C100.335 23.0617 100.386 22.868 100.458 22.6092C100.531 22.3503 100.596 22.1091 100.661 21.8872L100.82 21.3325C100.864 21.1846 100.919 20.9997 100.984 20.7761C101.05 20.5525 101.127 20.2954 101.216 19.9996C101.304 19.7038 101.392 19.4256 101.464 19.165C101.537 18.9043 101.6 18.7107 101.641 18.5786C101.681 18.4465 101.704 18.3655 101.715 18.3286L101.809 18.0028C101.863 17.8126 101.946 17.5262 102.057 17.1435C102.169 16.7614 102.278 16.3793 102.389 15.9954C102.5 15.6116 102.58 15.3263 102.635 15.1344L102.726 14.8086L102.816 14.5269H103.699L105.003 14.5093L106.341 14.4917L107.679 14.4723L108.983 14.4494L109.581 14.4371H109.675L109.895 14.4283C109.994 14.4283 110.1 14.4283 110.211 14.4107L110.547 14.3878L110.826 14.3649L110.402 15.638V15.6556L110.266 16.1046C110.176 16.404 110.09 16.6769 110.021 16.9216C109.952 17.1664 109.885 17.3777 109.832 17.552C109.779 17.7263 109.73 17.9042 109.673 18.0979C109.617 18.2916 109.539 18.5575 109.435 18.9079C109.331 19.2583 109.223 19.6369 109.105 20.0383C108.987 20.4398 108.865 20.8694 108.734 21.322C108.604 21.7745 108.505 22.1443 108.429 22.4243C108.353 22.7042 108.312 22.8662 108.3 22.9173C108.3 22.9437 108.281 22.9913 108.261 23.0582C108.242 23.1251 108.191 23.2096 108.161 23.3135ZM49.4587 20.4785C49.4587 20.5014 49.4587 20.5243 49.4587 20.5472C49.4569 20.5709 49.4534 20.5945 49.4481 20.6176C49.4427 20.6422 49.4356 20.6663 49.4269 20.6898C49.4191 20.7139 49.4096 20.7374 49.3987 20.7603C49.3864 20.7849 49.374 20.8078 49.3599 20.8307C49.345 20.8541 49.3285 20.8765 49.3105 20.8976C49.2936 20.9177 49.2753 20.9365 49.2557 20.954L49.2205 20.9839L49.1887 21.0068L49.171 21.0209L49.1534 21.0314L49.1216 21.0508L49.0704 21.0755L49.0298 21.0931L48.9787 21.1142L48.9381 21.1265L48.8816 21.1441L48.8198 21.1582L48.758 21.1688H48.6945C48.6733 21.1688 48.6521 21.1688 48.631 21.1688H48.5692H48.4298C48.3962 21.1705 48.3627 21.1705 48.3292 21.1688H48.2533H48.1915L48.1297 21.1565L48.0679 21.1424L48.0079 21.1265L47.9479 21.1072L47.8897 21.086L47.8314 21.0614L47.7803 21.035L47.7485 21.0191L47.7326 21.0086L47.6991 20.9892L47.6179 20.9381L47.519 20.8712L47.4343 20.8096C47.4043 20.7867 47.3743 20.7638 47.3461 20.7391L47.2649 20.6722L47.1696 20.586L47.0655 20.4856L46.9649 20.3817L46.8696 20.2725L46.7778 20.1633L46.6913 20.0507L46.6136 19.9415L46.5625 19.864L46.5413 19.8323L46.5324 19.8165C46.5261 19.8068 46.5202 19.7968 46.5148 19.7865L46.4883 19.7355C46.4795 19.7161 46.4707 19.6967 46.4636 19.6774C46.4561 19.659 46.4496 19.6401 46.4442 19.621C46.4442 19.6016 46.4318 19.584 46.4266 19.5647C46.4213 19.5453 46.4177 19.5277 46.4142 19.5083L46.4036 19.452C46.4036 19.4344 46.4036 19.415 46.4036 19.3974V19.341C46.4036 19.3234 46.4036 19.3058 46.4036 19.2865C46.4036 19.2671 46.4036 19.2512 46.4036 19.2336V19.179C46.4036 19.1614 46.4036 19.1438 46.4036 19.1262C46.4036 19.1086 46.4036 19.091 46.4036 19.0734C46.4045 19.0564 46.4045 19.0393 46.4036 19.0223V18.9713C46.4036 18.9537 46.4036 18.9343 46.4036 18.9096L46.4142 18.8339L46.4248 18.7652C46.4248 18.7406 46.4248 18.7159 46.4371 18.6895C46.4394 18.6699 46.4429 18.6505 46.4477 18.6314C46.4477 18.6191 46.4477 18.6103 46.4477 18.6068C46.4469 18.5974 46.4469 18.588 46.4477 18.5786C46.452 18.5605 46.4579 18.5428 46.4654 18.5258C46.472 18.51 46.4796 18.4947 46.4883 18.48C46.4883 18.4659 46.5042 18.4536 46.513 18.4395L46.5413 18.4078C46.5501 18.4078 46.5589 18.3884 46.5677 18.3814C46.5751 18.3729 46.5834 18.3652 46.5925 18.3585C46.6012 18.351 46.6106 18.3446 46.6207 18.3391C46.6331 18.3287 46.6467 18.3198 46.6613 18.3127L46.6878 18.2986L46.7231 18.281H46.7478L46.7813 18.2669L46.8184 18.2546L46.8537 18.244L46.889 18.2335H46.9243L46.9613 18.2229H46.9966H47.0337H47.069H47.1061L47.1519 18.2123C47.3457 18.1769 47.5453 18.1902 47.7326 18.2511L47.7608 18.2669L47.7891 18.2828L47.8279 18.3039L47.8738 18.3286L47.9232 18.355L47.9744 18.3849L48.0238 18.4131L48.0785 18.4465L48.1227 18.4747L48.158 18.4994L48.195 18.524L48.2303 18.5504L48.2656 18.5786L48.3009 18.6085L48.3397 18.642L48.3839 18.6842L48.4209 18.7247C48.4386 18.7424 48.4562 18.7635 48.4756 18.7864C48.4916 18.8029 48.5063 18.8206 48.5198 18.8392L48.5639 18.892C48.5815 18.9149 48.5992 18.936 48.6151 18.9589L48.6627 19.0223L48.7104 19.0892L48.7545 19.1526L48.7986 19.2178L48.841 19.2812L48.8833 19.3428L48.9257 19.4044L48.9663 19.4625L48.9998 19.5118L49.0281 19.5506L49.0581 19.5928L49.0881 19.6316L49.1093 19.658L49.1251 19.6791L49.1481 19.7073L49.1834 19.7566C49.1975 19.7795 49.2152 19.8041 49.2328 19.8341C49.2505 19.864 49.2699 19.8939 49.2858 19.9239C49.3016 19.9538 49.3105 19.9697 49.3193 19.989C49.3286 20.0073 49.3368 20.0261 49.344 20.0454C49.3528 20.063 49.3599 20.0824 49.3687 20.1017L49.3899 20.1598L49.4075 20.2197C49.4145 20.2392 49.4198 20.2592 49.4234 20.2796C49.4234 20.3007 49.4322 20.3218 49.4358 20.3412C49.4393 20.3606 49.4358 20.3852 49.4464 20.4063C49.457 20.4275 49.4464 20.4486 49.4464 20.4715C49.4464 20.4944 49.4587 20.4556 49.4587 20.4785Z" fill="#111211"/>
</svg>
